<svg width="201" height="200" viewBox="0 0 201 200" fill="none" xmlns="http://www.w3.org/2000/svg">
<rect x="96.9803" y="1.80392" width="139" height="139" rx="69.5" transform="rotate(43 96.9803 1.80392)" stroke="#C1272D" stroke-width="2"/>
<circle cx="100.41" cy="100.032" r="62" transform="rotate(43 100.41 100.032)" stroke="#C1272D" stroke-linecap="round" stroke-dasharray="4 4"/>
<path d="M60.6422 79.763C60.5954 79.8351 60.5289 79.8944 60.4428 79.9409C60.3609 79.9809 60.2714 80.0113 60.1741 80.0319C60.0811 80.0461 59.9858 80.0494 59.8882 80.0419C59.7948 80.0278 59.7154 79.9995 59.6499 79.957C59.604 79.9272 59.5603 79.8941 59.5187 79.8578C59.477 79.8215 59.4333 79.7884 59.3874 79.7586C59.3285 79.7203 59.2764 79.7144 59.2312 79.741C59.1903 79.761 59.1472 79.7843 59.102 79.8108C59.0634 79.8416 59.0171 79.8628 58.963 79.8742C58.9047 79.8923 58.833 79.8736 58.7478 79.8183C58.6954 79.7843 58.644 79.7416 58.5935 79.6902C58.5431 79.6388 58.4883 79.5939 58.4294 79.5556C58.3049 79.4748 58.1688 79.419 58.0211 79.3883C57.8756 79.3684 57.7374 79.3158 57.6063 79.2307C57.495 79.1584 57.3406 79.0303 57.1434 78.8463C56.9419 78.6688 56.752 78.4663 56.5738 78.2388C56.3978 78.0221 56.2587 77.806 56.1564 77.5905C56.0584 77.3685 56.0562 77.1854 56.1498 77.0412C56.2221 76.9299 56.3567 76.8589 56.5535 76.8284C56.7612 76.7955 56.9883 76.7614 57.2349 76.7259C57.4857 76.6839 57.7309 76.6148 57.9702 76.5188C58.2162 76.4269 58.4157 76.2631 58.5689 76.0272C58.6583 75.8896 58.716 75.7362 58.7421 75.5668C58.7748 75.4017 58.7847 75.2359 58.7719 75.0692C58.7633 74.8959 58.7352 74.724 58.6877 74.5534C58.6467 74.387 58.6047 74.2293 58.5617 74.0803C58.5374 74.0459 58.4926 74.0075 58.427 73.9649C58.2501 73.85 58.0605 73.7548 57.858 73.6792C57.6598 73.5971 57.4723 73.4986 57.2954 73.3837C57.2037 73.3241 57.1172 73.2493 57.0359 73.1593C56.9612 73.0735 56.9415 72.9676 56.9768 72.8415C56.7511 72.816 56.5276 72.7873 56.3062 72.7553C56.089 72.7167 55.8729 72.6695 55.6576 72.6136C55.5207 72.5806 55.4197 72.5569 55.3545 72.5425C55.2959 72.5323 55.2449 72.5319 55.2017 72.5411C55.165 72.5545 55.1231 72.5832 55.076 72.6271C55.0354 72.6753 54.9635 72.7357 54.8604 72.8085C54.7916 72.857 54.7402 72.9074 54.7062 72.9598C54.6722 73.0123 54.6339 73.0712 54.5913 73.1367C54.536 73.2219 54.4749 73.2801 54.4081 73.3112C54.3456 73.3358 54.2798 73.3583 54.2107 73.3786C54.1524 73.3966 54.092 73.418 54.0294 73.4426C53.9669 73.4671 53.9122 73.5155 53.8654 73.5875C53.8271 73.6465 53.8029 73.7053 53.7928 73.7639L53.751 73.8067C53.6872 73.905 53.6623 74.0006 53.6765 74.0936C53.6948 74.1801 53.7294 74.2631 53.7802 74.3427C53.8418 74.4199 53.9067 74.4993 53.9749 74.5809C54.043 74.6624 54.0971 74.7441 54.1371 74.8259C54.1771 74.9078 54.1968 75.0137 54.1962 75.1438C54.2064 75.2715 54.2004 75.4027 54.1782 75.5373C54.1668 75.6696 54.1434 75.7988 54.1081 75.9249C54.077 76.0445 54.0381 76.1403 53.9913 76.2124L53.9594 76.2615L53.8316 76.1785C53.5695 76.0083 53.2989 75.8513 53.0198 75.7073C52.7515 75.561 52.4811 75.418 52.2085 75.2782C51.9317 75.145 51.6559 75.0032 51.381 74.8526C51.1085 74.7129 50.8412 74.5579 50.5791 74.3877C50.4874 74.3282 50.3552 74.2377 50.1825 74.1162C50.0164 73.999 49.8588 73.8688 49.7097 73.7254C49.5564 73.5885 49.4355 73.4448 49.347 73.2942C49.2693 73.1413 49.273 72.9993 49.3581 72.8682C49.4475 72.7306 49.5514 72.6351 49.67 72.5817C49.7951 72.5325 49.9259 72.5103 50.0625 72.5152C50.2099 72.5178 50.3586 72.5398 50.5086 72.5813C50.6694 72.6206 50.8248 72.661 50.9748 72.7025C51.1314 72.7483 51.2782 72.7877 51.4151 72.8207C51.5585 72.858 51.6909 72.8694 51.812 72.8549C51.9332 72.8405 52.0668 72.7782 52.2128 72.6681C52.3631 72.5514 52.51 72.4185 52.6534 72.2695C52.7967 72.1204 52.9347 71.9725 53.0673 71.8257C53.2042 71.6723 53.3143 71.5529 53.3978 71.4674C53.4256 71.4389 53.4544 71.4017 53.4842 71.3558C53.5248 71.3077 53.5621 71.2574 53.5962 71.205C53.6368 71.1568 53.6719 71.1098 53.7017 71.0639C53.7381 71.0223 53.7692 70.9959 53.795 70.9848C53.9329 70.916 54.0246 70.8824 54.0701 70.884C54.1222 70.8898 54.159 70.8905 54.1806 70.8859C54.2088 70.8856 54.2399 70.8592 54.274 70.8068C54.3188 70.752 54.3987 70.6362 54.5136 70.4593C54.5646 70.3807 54.6193 70.3324 54.6776 70.3143C54.7401 70.2897 54.7984 70.2717 54.8525 70.2602C54.913 70.253 54.9682 70.2469 55.018 70.242C55.072 70.2305 55.1161 70.1985 55.1501 70.1461C55.2097 70.0544 55.2367 69.9555 55.2311 69.8494C55.2297 69.7367 55.2588 69.6345 55.3184 69.5428C55.3524 69.4903 55.3953 69.453 55.447 69.4307C55.4988 69.4084 55.5517 69.3915 55.6057 69.38C55.6663 69.3728 55.7203 69.3613 55.7678 69.3456C55.8195 69.3233 55.8624 69.2859 55.8965 69.2335C55.9433 69.1614 55.9737 69.0787 55.9877 68.9854C56.0083 68.8963 56.042 68.8157 56.0889 68.7436C56.1229 68.6912 56.1627 68.6658 56.2082 68.6674C56.2645 68.6667 56.3166 68.6726 56.3644 68.685C56.4188 68.7017 56.4645 68.7174 56.5015 68.7322C56.5493 68.7446 56.5796 68.741 56.5924 68.7213C56.5983 68.6692 56.575 68.6262 56.5226 68.5921C56.444 68.5411 56.377 68.5581 56.3217 68.6433C56.2971 68.5808 56.2812 68.5192 56.2739 68.4586C56.271 68.3915 56.2865 68.3317 56.3205 68.2793C56.3631 68.2138 56.4178 68.1654 56.4846 68.1343C56.5556 68.0966 56.6342 68.0545 56.7203 68.0079C56.813 67.9656 56.9055 67.9093 56.9978 67.8388C57.0902 67.7684 57.1789 67.6676 57.264 67.5366C57.3533 67.399 57.4188 67.2552 57.4603 67.1051C57.5061 66.9486 57.5715 66.8048 57.6566 66.6737C57.6992 66.6082 57.7548 66.5512 57.8236 66.5027C57.8989 66.4584 57.9754 66.4196 58.053 66.3862C58.1414 66.3504 58.2244 66.3158 58.302 66.2824C58.3904 66.2467 58.4679 66.1991 58.5343 66.1398C58.6545 66.0409 58.7592 65.9226 58.8486 65.785C58.9445 65.6517 59.0371 65.5162 59.1265 65.3786C59.2224 65.2453 59.3194 65.1173 59.4176 64.9948C59.5267 64.87 59.6522 64.7699 59.7943 64.6945C59.9214 64.6279 60.0226 64.5725 60.0979 64.5283C60.1732 64.484 60.2431 64.4409 60.3076 64.399C60.3763 64.3505 60.444 64.2966 60.5104 64.2373C60.5811 64.1714 60.6667 64.0826 60.7672 63.9709C60.9234 63.8022 61.0917 63.6506 61.2721 63.5163C61.459 63.3862 61.6273 63.2346 61.7769 63.0616C61.8836 62.926 61.9689 62.809 62.0327 62.7107C62.1074 62.6102 62.1833 62.5291 62.2606 62.4675C62.3444 62.4101 62.4415 62.3754 62.5519 62.3632C62.6688 62.3553 62.825 62.3729 63.0206 62.4161C63.2292 62.4677 63.4251 62.539 63.6082 62.63C63.7956 62.7144 63.9745 62.812 64.1448 62.9226C64.3414 63.0502 64.5381 63.192 64.735 63.3478C64.6823 63.4719 64.659 63.6011 64.6649 63.7354C64.6751 63.8632 64.6886 63.993 64.7054 64.125C64.7287 64.2612 64.7433 64.3965 64.7493 64.5308C64.766 64.6628 64.7513 64.7929 64.7052 64.9214C64.6401 65.0933 64.5662 65.2502 64.4834 65.3921C64.4114 65.5316 64.382 65.6988 64.3951 65.8937C64.3942 65.9956 64.3618 66.0956 64.298 66.1939C64.2001 66.3446 64.0869 66.476 63.9582 66.5881C63.8295 66.7001 63.7184 66.8282 63.6248 66.9724C63.5695 67.0576 63.5042 67.2155 63.4289 67.4461C63.3537 67.6767 63.2777 67.93 63.2008 68.2062C63.1282 68.4757 63.0545 68.7399 62.9796 68.9987C62.9089 69.2509 62.8517 69.4466 62.8079 69.5858C62.7052 69.8731 62.5687 70.1478 62.3985 70.4099C62.2349 70.6762 62.1115 70.9594 62.0284 71.2594C61.9369 71.5726 61.8355 71.8793 61.7242 72.1797C61.6173 72.4735 61.4842 72.7644 61.3252 73.0524C61.1723 73.3164 61.0434 73.5867 60.9384 73.8632C60.8376 74.1331 60.738 74.4084 60.6396 74.6891C60.5453 74.9633 60.4425 75.2365 60.3309 75.5087C60.2259 75.7852 60.0883 76.0544 59.9181 76.3165C59.8542 76.4148 59.7785 76.51 59.6907 76.602C59.6095 76.6984 59.5074 76.7624 59.3842 76.7943C59.4155 77.0474 59.4546 77.3243 59.5015 77.625C59.555 77.9299 59.6308 78.1933 59.7288 78.4153C59.7688 78.4972 59.8512 78.5926 59.976 78.7016C60.1009 78.8106 60.2214 78.9262 60.3378 79.0483C60.4649 79.1681 60.5617 79.2916 60.6283 79.4186C60.7056 79.5434 60.7102 79.6582 60.6422 79.763ZM59.9643 71.7914C60.0026 71.7324 60.0286 71.6421 60.0423 71.5206C60.0603 71.3926 60.0781 71.2504 60.0957 71.0942C60.1199 70.9422 60.1537 70.7825 60.1972 70.6151C60.2407 70.4478 60.3114 70.2887 60.4092 70.138C60.5241 69.9611 60.6107 69.7705 60.6689 69.5661C60.7313 69.3551 60.8102 69.1548 60.9054 68.9651C60.9859 68.8125 61.0717 68.6446 61.1626 68.4615C61.2644 68.2761 61.338 68.091 61.3835 67.9063C61.4332 67.715 61.4342 67.534 61.3867 67.3634C61.3499 67.1905 61.23 67.0381 61.0269 66.9062C60.9797 66.9501 60.9313 66.9745 60.8815 66.9794C60.836 66.9778 60.7839 66.9719 60.7253 66.9618C60.6774 66.9494 60.6263 66.9348 60.572 66.9181C60.5176 66.9015 60.4667 66.901 60.4192 66.9167C60.413 66.9406 60.3971 66.9723 60.3716 67.0116C60.295 67.1295 60.1964 67.2239 60.0759 67.2947C59.9662 67.3632 59.8577 67.4371 59.7503 67.5164C59.6321 67.598 59.5228 67.6946 59.4223 67.8064C59.3326 67.9158 59.2494 68.0295 59.1728 68.1474C59.1048 68.2522 59.0421 68.3559 58.9848 68.4585C58.9275 68.561 58.867 68.6614 58.8032 68.7597C58.7053 68.9104 58.6071 69.0329 58.5085 69.1273C58.4143 69.2151 58.3209 69.2942 58.2286 69.3647C58.1363 69.4351 58.0494 69.5044 57.9678 69.5726C57.8906 69.6342 57.8221 69.7109 57.7626 69.8026C57.6349 69.9992 57.5308 70.1738 57.4503 70.3264C57.3698 70.4791 57.3206 70.6195 57.3026 70.7475C57.2889 70.869 57.3077 70.9837 57.3588 71.0914C57.4142 71.1926 57.5172 71.2921 57.6679 71.39C57.7728 71.458 57.932 71.5428 58.1456 71.6442C58.3657 71.7499 58.5932 71.8371 58.828 71.9058C59.0737 71.9722 59.3005 72.003 59.5085 71.9984C59.723 71.998 59.875 71.929 59.9643 71.7914ZM69.3311 68.4704C69.2836 68.4861 69.235 68.4964 69.1852 68.5014C69.1419 68.5106 69.1007 68.5024 69.0614 68.4769C69.0155 68.4471 68.989 68.4019 68.9817 68.3413C68.981 68.285 68.9956 68.2339 69.0254 68.188C69.0296 68.1815 69.0393 68.1738 69.0544 68.1649C69.0694 68.1561 69.0812 68.1451 69.0897 68.132L69.1614 68.1506C69.2139 68.1847 69.2524 68.2329 69.277 68.2955C69.3015 68.358 69.3196 68.4163 69.3311 68.4704ZM67.5814 77.2969L67.5622 77.3263C67.5685 77.3024 67.5758 77.2839 67.5843 77.2708C67.5971 77.2512 67.6077 77.2348 67.6162 77.2217L67.5878 77.287L67.5814 77.2969ZM77.3739 77.2147C77.3101 77.3129 77.2345 77.4222 77.1471 77.5424C77.0597 77.6627 76.9636 77.7819 76.8589 77.9002C76.7607 78.0227 76.6581 78.1377 76.551 78.2452C76.4548 78.3504 76.3605 78.4382 76.2681 78.5087C76.0317 78.6719 75.7786 78.7963 75.5088 78.8818C75.2455 78.9717 74.9968 79.1036 74.7627 79.2776C74.7047 79.3238 74.6065 79.3532 74.468 79.3657C74.3294 79.3782 74.1811 79.3843 74.0229 79.3841C73.8647 79.3838 73.7086 79.3803 73.5547 79.3734C73.4116 79.3643 73.2977 79.3603 73.2132 79.3613C72.6909 79.3481 72.2046 79.2792 71.7546 79.1546C71.3045 79.03 70.8633 78.8273 70.4308 78.5465L70.3718 78.5082C70.3053 78.3811 70.2424 78.2844 70.1831 78.2179C70.1303 78.1557 70.0417 78.0842 69.9172 78.0033C69.7927 77.9225 69.6694 77.847 69.5472 77.777C69.425 77.707 69.3007 77.6402 69.1742 77.5767C69.1241 77.5535 69.0153 77.5201 68.848 77.4766C68.6914 77.4308 68.5219 77.3906 68.3394 77.356C68.1613 77.3148 67.9941 77.2854 67.8378 77.2678C67.6924 77.2478 67.609 77.2543 67.5878 77.287L67.5622 77.3263C67.5456 77.3807 67.547 77.4143 67.5667 77.4271C67.5995 77.4483 67.6396 77.4511 67.6871 77.4354C67.7454 77.4173 67.7942 77.4211 67.8335 77.4466C67.8662 77.4679 67.8818 77.5013 67.8802 77.5468C67.8786 77.5923 67.8661 77.6401 67.8429 77.6903C67.8305 77.7381 67.8094 77.7849 67.7796 77.8308C67.7606 77.8744 67.7447 77.906 67.732 77.9256C67.6086 78.1156 67.4655 78.2929 67.3028 78.4574C67.1444 78.6153 67.0034 78.7893 66.8801 78.9793C66.7567 79.1693 66.63 79.3572 66.5 79.5429C66.3809 79.7264 66.2596 79.9131 66.1362 80.1031C65.9107 80.4504 65.7569 80.7231 65.6748 80.9213C65.5992 81.1237 65.5841 81.3049 65.6293 81.4647C65.6788 81.6179 65.7804 81.7771 65.9341 81.9421C66.092 82.1005 66.2929 82.3148 66.5367 82.5849C66.4787 82.6311 66.4327 82.6804 66.3987 82.7328C66.3476 82.8115 66.3323 82.8853 66.3526 82.9544C66.3837 83.0212 66.4128 83.0913 66.4396 83.1646C66.4773 83.2357 66.5042 83.309 66.5203 83.3847C66.5429 83.4646 66.5223 83.5537 66.4585 83.652C66.4032 83.7372 66.3215 83.7912 66.2134 83.8142C66.0838 83.8418 65.9888 83.8732 65.9285 83.9086C65.8748 83.9483 65.8275 83.9781 65.7866 83.9981C65.7499 84.0116 65.699 84.0111 65.6338 83.9967C65.5729 83.9758 65.4715 83.9239 65.3296 83.8411C65.0024 83.6565 64.6848 83.4642 64.3768 83.2642C64.2589 83.1877 64.1431 83.1078 64.0294 83.0246C63.9115 82.9481 63.7902 82.8693 63.6658 82.7885C63.3512 82.5843 63.0369 82.3941 62.7228 82.218C62.5308 82.112 62.3315 82.0245 62.1248 81.9554C61.9246 81.8907 61.7295 81.7966 61.5395 81.6732C61.3233 81.5328 61.2163 81.3748 61.2185 81.1993C61.2208 81.0237 61.2857 80.8376 61.4133 80.6411C61.5367 80.4511 61.6814 80.3215 61.8475 80.2523C62.0177 80.1766 62.1907 80.1398 62.3662 80.142C62.5526 80.142 62.7348 80.1625 62.913 80.2037C63.0978 80.2492 63.2673 80.2894 63.4215 80.3244C63.5866 80.357 63.7288 80.3748 63.848 80.3777C63.9672 80.3806 64.0545 80.3395 64.1098 80.2543C64.1609 80.1757 64.1934 80.0897 64.2074 79.9963C64.228 79.9073 64.2639 79.8234 64.3149 79.7448C64.3447 79.6989 64.4251 79.6253 64.5561 79.5241C64.687 79.4228 64.8099 79.2837 64.9248 79.1068C64.9716 79.0348 65.0163 78.966 65.0589 78.9005C65.1057 78.8284 65.1492 78.7542 65.1894 78.6778C65.1629 78.6327 65.1589 78.5742 65.1776 78.5025C65.1962 78.4307 65.2203 78.3579 65.2497 78.2838C65.29 78.2075 65.3314 78.1366 65.3739 78.071C65.4207 77.999 65.4569 77.9433 65.4824 77.904C65.6441 77.655 65.82 77.4199 66.0102 77.1988C66.2047 76.9711 66.3828 76.7327 66.5445 76.4837C66.6466 76.3265 66.7367 76.1661 66.8149 76.0027C66.8932 75.8392 66.9833 75.6788 67.0854 75.5216C67.1152 75.4757 67.1496 75.4515 67.1886 75.4488C67.1594 75.3647 67.1725 75.28 67.2278 75.1948C67.2873 75.1031 67.3558 75.0264 67.433 74.9648C67.5169 74.9075 67.5864 74.8362 67.6417 74.751C67.7268 74.62 67.7988 74.4804 67.8577 74.3324C67.9166 74.1843 67.9701 74.0374 68.0182 73.8916C68.0771 73.7436 68.1338 73.5988 68.1885 73.4573C68.2539 73.3135 68.3292 73.1761 68.4143 73.045C68.4654 72.9664 68.5241 72.8974 68.5906 72.8381C68.6636 72.7831 68.7333 72.7259 68.7998 72.6666C68.8771 72.605 68.9489 72.5445 69.0154 72.4852C69.0926 72.4236 69.1589 72.3502 69.2143 72.265C69.3589 72.0423 69.4764 71.8111 69.5667 71.5717C69.6678 71.3299 69.7907 71.0977 69.9354 70.8749C70.0205 70.7439 70.1116 70.668 70.2089 70.6473C70.317 70.6244 70.4198 70.6166 70.5174 70.6241C70.615 70.6316 70.7039 70.6381 70.7842 70.6437C70.8752 70.6469 70.9442 70.6125 70.991 70.5404C71.0208 70.4945 71.0234 70.4403 70.9988 70.3778C70.9807 70.3195 70.9521 70.2776 70.9127 70.2521C70.821 70.1925 70.7232 70.1709 70.6194 70.1873C70.5156 70.2037 70.4211 70.1843 70.3359 70.129C70.2835 70.0949 70.2556 70.0303 70.2523 69.935C70.2598 69.8374 70.2629 69.7322 70.2615 69.6196C70.2667 69.5112 70.2578 69.4029 70.2349 69.2948C70.2227 69.1845 70.174 69.1016 70.0889 69.0463C70.0168 68.9995 69.9383 68.9625 69.8535 68.9354C69.7687 68.9082 69.6902 68.8713 69.6181 68.8245C69.5198 68.7606 69.4725 68.6973 69.4761 68.6344C69.4796 68.5715 69.5048 68.504 69.5516 68.432C69.5729 68.3992 69.5942 68.3664 69.6155 68.3337C69.6433 68.3052 69.6678 68.2745 69.6891 68.2418C69.7232 68.1894 69.7495 68.1273 69.7681 68.0555C69.7868 67.9838 69.7601 67.9245 69.688 67.8777C69.6487 67.8522 69.6051 67.8332 69.5573 67.8208C69.7256 67.7624 69.9043 67.7527 70.0932 67.7916C70.2865 67.8239 70.4757 67.8769 70.6607 67.9505C70.8524 68.0284 71.0376 68.1161 71.2165 68.2136C71.4062 68.3089 71.5804 68.3848 71.7393 68.4414C71.8002 68.4623 71.8525 68.4822 71.896 68.5012C71.9462 68.5245 71.9974 68.5531 72.0498 68.5871C72.1678 68.6637 72.2739 68.7513 72.3683 68.8498C72.4735 68.9461 72.5817 69.0304 72.6931 69.1027C72.8176 69.1836 72.9329 69.2212 73.039 69.2156C73.156 69.2076 73.2668 69.2377 73.3717 69.3058C73.4071 69.3661 73.4546 69.4435 73.5142 69.5381C73.5781 69.6262 73.6363 69.6873 73.6887 69.7213C73.9115 69.866 74.1395 69.9954 74.3727 70.1096C74.606 70.2238 74.8307 70.3511 75.0469 70.4915C75.2828 70.6447 75.4876 70.8243 75.6612 71.0302C75.8457 71.2339 76.0205 71.4452 76.1857 71.6642C76.3574 71.8875 76.5258 72.1087 76.691 72.3277C76.8562 72.5468 77.0406 72.7504 77.2444 72.9387C77.3145 73.0028 77.3708 73.0812 77.413 73.1739C77.4619 73.2708 77.5011 73.3755 77.5306 73.4878C77.5644 73.5936 77.5927 73.7005 77.6157 73.8086C77.6452 73.9209 77.6746 74.0191 77.7038 74.1033C77.7487 74.2349 77.7676 74.3636 77.7604 74.4894C77.7598 74.6194 77.7538 74.7506 77.7424 74.8829C77.7418 75.0129 77.7412 75.143 77.7406 75.273C77.7508 75.4007 77.7838 75.5293 77.8395 75.6586C77.893 75.7771 77.9097 75.9091 77.8898 76.0545C77.8741 76.1934 77.8357 76.3315 77.7745 76.4687C77.7199 76.6103 77.6554 76.7454 77.5811 76.8741C77.5068 77.0029 77.4378 77.1164 77.3739 77.2147ZM75.363 76.7611C75.6353 76.3417 75.8166 75.9192 75.9068 75.4934C76.0078 75.0652 76.0158 74.6513 75.9308 74.2514C75.8566 73.8492 75.6939 73.4687 75.4425 73.1099C75.1912 72.751 74.8558 72.4354 74.4365 72.1631C74.371 72.1206 74.2727 72.0567 74.1416 71.9716C74.0106 71.8865 73.8643 71.7962 73.7028 71.7006C73.5413 71.6051 73.3711 71.5085 73.1922 71.411C73.0134 71.3135 72.8434 71.231 72.6822 71.1636C72.5253 71.0897 72.3784 71.0362 72.2415 71.0032C72.1154 70.9678 72.0189 70.9657 71.9521 70.9969C71.8594 71.0392 71.7365 71.0851 71.5832 71.1346C71.4408 71.1818 71.344 71.2447 71.2929 71.3234C71.2461 71.3954 71.2169 71.4836 71.2051 71.5877C71.1976 71.6853 71.1891 71.7916 71.1797 71.9066C71.1768 72.0258 71.1652 72.144 71.145 72.2613C71.1355 72.3762 71.101 72.4796 71.0414 72.5713C70.9848 72.5438 70.925 72.5283 70.8621 72.5247C70.8035 72.5146 70.755 72.539 70.7167 72.598C70.6529 72.6963 70.6122 72.8235 70.5945 72.9797C70.5835 73.1402 70.5375 73.2827 70.4567 73.4072C70.3971 73.4989 70.3306 73.5583 70.2573 73.5851C70.1882 73.6055 70.1201 73.6171 70.0529 73.6201C69.9858 73.6231 69.9219 73.6282 69.8613 73.6354C69.8008 73.6426 69.7534 73.6725 69.7194 73.7249C69.6811 73.7839 69.6599 73.9098 69.6557 74.1027C69.6515 74.2956 69.6508 74.5047 69.6535 74.7301C69.6605 74.9488 69.664 75.1514 69.6641 75.3378C69.6684 75.5176 69.6621 75.6206 69.645 75.6468C69.7895 75.7686 69.9371 75.8784 70.0878 75.9762C70.1861 76.0401 70.3488 76.141 70.5758 76.2792C70.8136 76.415 71.0613 76.5572 71.3188 76.7058C71.5805 76.8478 71.8259 76.9792 72.0549 77.1C72.2838 77.2207 72.444 77.2968 72.5354 77.3282C72.6334 77.3639 72.7115 77.3727 72.7698 77.3546C72.8281 77.3366 72.8864 77.3186 72.9446 77.3005C73.0029 77.2825 73.0635 77.2753 73.1264 77.2788C73.2001 77.2801 73.2926 77.3169 73.404 77.3892C73.6071 77.5212 73.8009 77.5957 73.9853 77.613C74.1762 77.6346 74.3526 77.614 74.5144 77.5514C74.6804 77.4822 74.8308 77.3796 74.9657 77.2437C75.1114 77.1054 75.2438 76.9445 75.363 76.7611ZM80.4762 75.7081C80.4287 75.7238 80.3801 75.7342 80.3303 75.7391C80.2871 75.7483 80.2458 75.7401 80.2065 75.7146C80.1606 75.6848 80.1341 75.6396 80.1269 75.579C80.1262 75.5227 80.1407 75.4716 80.1705 75.4257C80.1748 75.4192 80.1844 75.4115 80.1995 75.4026C80.2146 75.3938 80.2263 75.3828 80.2349 75.3697L80.3066 75.3884C80.359 75.4224 80.3975 75.4707 80.4221 75.5332C80.4467 75.5958 80.4647 75.6541 80.4762 75.7081ZM78.7265 84.5346L78.7074 84.5641C78.7136 84.5402 78.721 84.5217 78.7295 84.5086C78.7422 84.4889 78.7529 84.4725 78.7614 84.4594L78.7329 84.5248L78.7265 84.5346ZM88.5191 84.4524C88.4553 84.5507 88.3797 84.6599 88.2923 84.7802C88.2049 84.9004 88.1088 85.0197 88.004 85.138C87.9058 85.2605 87.8032 85.3755 87.6961 85.483C87.5999 85.5881 87.5056 85.6759 87.4133 85.7464C87.1769 85.9096 86.9238 86.034 86.6539 86.1196C86.3906 86.2094 86.1419 86.3414 85.9078 86.5154C85.8499 86.5616 85.7516 86.5909 85.6131 86.6034C85.4746 86.6159 85.3262 86.6221 85.168 86.6218C85.0098 86.6215 84.8538 86.618 84.6998 86.6112C84.5567 86.6021 84.4429 86.598 84.3584 86.5991C83.836 86.5858 83.3498 86.5169 82.8997 86.3923C82.4496 86.2677 82.0084 86.065 81.576 85.7842L81.517 85.7459C81.4505 85.6189 81.3875 85.5221 81.3282 85.4556C81.2755 85.3934 81.1868 85.3219 81.0624 85.2411C80.9379 85.1602 80.8145 85.0848 80.6923 85.0147C80.5701 84.9447 80.4458 84.8779 80.3194 84.8145C80.2692 84.7912 80.1605 84.7579 79.9931 84.7144C79.8365 84.6686 79.667 84.6284 79.4846 84.5937C79.3064 84.5525 79.1392 84.5231 78.983 84.5055C78.8375 84.4856 78.7542 84.492 78.7329 84.5248L78.7074 84.5641C78.6907 84.6185 78.6922 84.652 78.7118 84.6648C78.7446 84.6861 78.7847 84.6888 78.8322 84.6731C78.8905 84.6551 78.9393 84.6588 78.9786 84.6843C79.0114 84.7056 79.0269 84.739 79.0253 84.7845C79.0237 84.8301 79.0113 84.8779 78.9881 84.928C78.9756 84.9758 78.9545 85.0227 78.9247 85.0685C78.9058 85.1121 78.8899 85.1437 78.8771 85.1634C78.7537 85.3534 78.6107 85.5306 78.448 85.6951C78.2895 85.853 78.1486 86.027 78.0252 86.217C77.9018 86.407 77.7751 86.5949 77.6452 86.7807C77.526 86.9641 77.4048 87.1509 77.2814 87.3409C77.0559 87.6881 76.9021 87.9609 76.8199 88.159C76.7444 88.3615 76.7292 88.5426 76.7745 88.7024C76.824 88.8557 76.9256 89.0148 77.0793 89.1798C77.2372 89.3383 77.438 89.5525 77.6818 89.8226C77.6239 89.8688 77.5779 89.9181 77.5438 89.9706C77.4928 90.0492 77.4774 90.1231 77.4978 90.1922C77.5289 90.259 77.5579 90.329 77.5848 90.4024C77.6225 90.4734 77.6494 90.5468 77.6655 90.6224C77.6881 90.7023 77.6675 90.7914 77.6037 90.8897C77.5484 90.9749 77.4667 91.029 77.3586 91.0519C77.2289 91.0795 77.1339 91.111 77.0737 91.1464C77.02 91.186 76.9727 91.2159 76.9317 91.2359C76.8951 91.2493 76.8441 91.2488 76.779 91.2344C76.718 91.2135 76.6166 91.1616 76.4748 91.0788C76.1475 90.8943 75.8299 90.702 75.522 90.502C75.404 90.4254 75.2882 90.3455 75.1745 90.2624C75.0566 90.1858 74.9354 90.1071 74.8109 90.0262C74.4964 89.822 74.1821 89.6318 73.8679 89.4558C73.6759 89.3497 73.4766 89.2622 73.2699 89.1932C73.0698 89.1284 72.8747 89.0343 72.6847 88.9109C72.4685 88.7705 72.3615 88.6125 72.3637 88.437C72.3659 88.2614 72.4308 88.0754 72.5585 87.8788C72.6819 87.6888 72.8266 87.5592 72.9926 87.49C73.1629 87.4143 73.3358 87.3776 73.5114 87.3798C73.6977 87.3797 73.88 87.4003 74.0582 87.4415C74.2429 87.4869 74.4124 87.5271 74.5667 87.5621C74.7318 87.5948 74.8739 87.6126 74.9931 87.6155C75.1124 87.6184 75.1996 87.5772 75.2549 87.4921C75.306 87.4134 75.3385 87.3274 75.3526 87.2341C75.3732 87.145 75.409 87.0611 75.4601 86.9825C75.4899 86.9366 75.5702 86.8631 75.7012 86.7618C75.8322 86.6606 75.9551 86.5215 76.07 86.3446C76.1168 86.2725 76.1615 86.2037 76.204 86.1382C76.2508 86.0661 76.2943 85.9919 76.3346 85.9156C76.308 85.8704 76.3041 85.8119 76.3227 85.7402C76.3414 85.6685 76.3654 85.5956 76.3949 85.5216C76.4351 85.4452 76.4765 85.3743 76.5191 85.3088C76.5659 85.2367 76.602 85.181 76.6276 85.1417C76.7893 84.8927 76.9652 84.6577 77.1554 84.4365C77.3498 84.2088 77.5279 83.9705 77.6896 83.7215C77.7917 83.5642 77.8819 83.4039 77.9601 83.2404C78.0383 83.0769 78.1285 82.9166 78.2306 82.7593C78.2604 82.7135 78.2948 82.6892 78.3337 82.6866C78.3045 82.6024 78.3176 82.5178 78.3729 82.4326C78.4325 82.3408 78.5009 82.2642 78.5782 82.2026C78.662 82.1452 78.7316 82.074 78.7869 81.9888C78.872 81.8577 78.944 81.7182 79.0029 81.5701C79.0618 81.4221 79.1152 81.2752 79.1633 81.1294C79.2222 80.9813 79.279 80.8365 79.3336 80.695C79.3991 80.5512 79.4743 80.4138 79.5594 80.2828C79.6105 80.2041 79.6693 80.1352 79.7357 80.0759C79.8087 80.0208 79.8785 79.9636 79.9449 79.9043C80.0222 79.8427 80.0941 79.7822 80.1605 79.7229C80.2378 79.6613 80.3041 79.5879 80.3594 79.5028C80.5041 79.28 80.6216 79.0489 80.7118 78.8094C80.8129 78.5677 80.9358 78.3354 81.0805 78.1126C81.1656 77.9816 81.2568 77.9057 81.3541 77.8851C81.4621 77.8621 81.565 77.8544 81.6626 77.8619C81.7602 77.8693 81.8491 77.8759 81.9293 77.8814C82.0204 77.8846 82.0893 77.8502 82.1361 77.7781C82.1659 77.7323 82.1685 77.6781 82.1439 77.6155C82.1259 77.5572 82.0972 77.5153 82.0579 77.4898C81.9662 77.4302 81.8684 77.4086 81.7646 77.4251C81.6607 77.4415 81.5663 77.422 81.4811 77.3667C81.4287 77.3327 81.4008 77.268 81.3975 77.1727C81.405 77.0751 81.408 76.97 81.4067 76.8573C81.4119 76.7489 81.403 76.6407 81.38 76.5326C81.3679 76.4222 81.3192 76.3394 81.234 76.2841C81.1619 76.2373 81.0835 76.2003 80.9986 76.1731C80.9138 76.146 80.8353 76.109 80.7633 76.0622C80.665 75.9984 80.6176 75.935 80.6212 75.8721C80.6248 75.8092 80.65 75.7418 80.6968 75.6697C80.7181 75.6369 80.7393 75.6042 80.7606 75.5714C80.7884 75.5429 80.813 75.5123 80.8343 75.4795C80.8683 75.4271 80.8946 75.365 80.9133 75.2933C80.9319 75.2216 80.9052 75.1623 80.8331 75.1155C80.7938 75.0899 80.7502 75.071 80.7024 75.0585C80.8707 75.0002 81.0494 74.9904 81.2384 75.0293C81.4316 75.0617 81.6208 75.1147 81.8059 75.1883C81.9975 75.2661 82.1828 75.3538 82.3616 75.4514C82.5513 75.5466 82.7256 75.6225 82.8844 75.6791C82.9454 75.7 82.9976 75.72 83.0412 75.739C83.0913 75.7622 83.1426 75.7908 83.195 75.8249C83.3129 75.9015 83.4191 75.989 83.5134 76.0876C83.6186 76.1838 83.7269 76.2681 83.8383 76.3404C83.9628 76.4213 84.0781 76.4589 84.1842 76.4533C84.3011 76.4454 84.412 76.4755 84.5168 76.5436C84.5522 76.6038 84.5997 76.6812 84.6594 76.7759C84.7233 76.8639 84.7814 76.925 84.8339 76.959C85.0566 77.1037 85.2846 77.2331 85.5179 77.3474C85.7511 77.4616 85.9758 77.5889 86.1921 77.7293C86.4279 77.8825 86.6327 78.062 86.8064 78.268C86.9909 78.4716 87.1657 78.6829 87.3308 78.902C87.5026 79.1253 87.671 79.3464 87.8361 79.5655C88.0013 79.7845 88.1858 79.9882 88.3896 80.1764C88.4597 80.2406 88.5159 80.319 88.5582 80.4116C88.607 80.5086 88.6462 80.6132 88.6757 80.7255C88.7095 80.8313 88.7379 80.9382 88.7609 81.0463C88.7904 81.1586 88.8197 81.2569 88.8489 81.341C88.8938 81.4727 88.9127 81.6014 88.9056 81.7271C88.905 81.8572 88.899 81.9883 88.8876 82.1207C88.887 82.2507 88.8864 82.3807 88.8858 82.5107C88.896 82.6385 88.9289 82.767 88.9847 82.8963C89.0381 83.0149 89.0549 83.1469 89.0349 83.2923C89.0193 83.4312 88.9809 83.5692 88.9197 83.7065C88.865 83.848 88.8006 83.9831 88.7263 84.1119C88.652 84.2406 88.5829 84.3541 88.5191 84.4524ZM86.5081 83.9988C86.7804 83.5795 86.9617 83.1569 87.0519 82.7311C87.1529 82.303 87.161 81.889 87.076 81.4891C87.0018 81.087 86.839 80.7065 86.5877 80.3476C86.3363 79.9888 86.001 79.6732 85.5816 79.4009C85.5161 79.3583 85.4178 79.2945 85.2868 79.2094C85.1557 79.1243 85.0095 79.034 84.848 78.9384C84.6864 78.8428 84.5163 78.7463 84.3374 78.6487C84.1585 78.5512 83.9885 78.4688 83.8273 78.4014C83.6704 78.3274 83.5235 78.2739 83.3866 78.2409C83.2605 78.2056 83.164 78.2035 83.0972 78.2346C83.0046 78.2769 82.8816 78.3228 82.7284 78.3723C82.5859 78.4196 82.4891 78.4825 82.4381 78.5611C82.3913 78.6332 82.362 78.7213 82.3503 78.8255C82.3428 78.9231 82.3343 79.0293 82.3248 79.1443C82.3219 79.2635 82.3104 79.3818 82.2901 79.499C82.2807 79.614 82.2462 79.7173 82.1866 79.8091C82.1299 79.7816 82.0701 79.766 82.0072 79.7625C81.9486 79.7523 81.9002 79.7767 81.8619 79.8357C81.798 79.934 81.7573 80.0613 81.7397 80.2175C81.7286 80.378 81.6827 80.5205 81.6018 80.645C81.5423 80.7367 81.4758 80.796 81.4024 80.8229C81.3333 80.8432 81.2652 80.8549 81.1981 80.8578C81.1309 80.8608 81.0671 80.8659 81.0065 80.8732C80.9459 80.8804 80.8986 80.9102 80.8645 80.9626C80.8263 81.0216 80.805 81.1475 80.8008 81.3404C80.7967 81.5334 80.7959 81.7425 80.7986 81.9678C80.8056 82.1866 80.8091 82.3892 80.8092 82.5755C80.8135 82.7553 80.8072 82.8583 80.7902 82.8845C80.9347 83.0063 81.0823 83.1161 81.233 83.214C81.3312 83.2778 81.4939 83.3788 81.7209 83.5169C81.9588 83.6527 82.2064 83.7949 82.4639 83.9435C82.7257 84.0855 82.971 84.2169 83.2 84.3377C83.429 84.4585 83.5892 84.5345 83.6806 84.5659C83.7785 84.6016 83.8566 84.6104 83.9149 84.5924C83.9732 84.5743 84.0315 84.5563 84.0898 84.5383C84.1481 84.5202 84.2087 84.513 84.2716 84.5166C84.3452 84.5178 84.4378 84.5547 84.5492 84.627C84.7523 84.7589 84.946 84.8335 85.1304 84.8508C85.3214 84.8723 85.4978 84.8518 85.6595 84.7891C85.8255 84.72 85.976 84.6174 86.1109 84.4814C86.2566 84.3431 86.389 84.1823 86.5081 83.9988ZM96.0383 101.534C96 101.593 95.9457 101.669 95.8753 101.763C95.8049 101.857 95.7296 101.902 95.6494 101.896C95.5626 101.886 95.4838 101.914 95.4131 101.98C95.3489 102.05 95.2913 102.125 95.2403 102.203C95.1892 102.282 95.1391 102.352 95.09 102.413C95.0452 102.468 94.9998 102.48 94.954 102.451C94.9212 102.429 94.8992 102.406 94.8881 102.38C94.8812 102.347 94.8614 102.321 94.8286 102.299C94.7959 102.278 94.7525 102.273 94.6984 102.285C94.6444 102.296 94.6067 102.318 94.5855 102.351C94.5642 102.384 94.557 102.416 94.5639 102.449C94.5816 102.479 94.5798 102.51 94.5585 102.543C94.5415 102.569 94.4711 102.57 94.3473 102.546C94.2277 102.515 94.095 102.475 93.9493 102.427C93.7993 102.385 93.6589 102.336 93.5282 102.279C93.3932 102.229 93.3061 102.191 93.2668 102.165C93.0309 102.012 92.8227 101.816 92.6421 101.578C92.4616 101.34 92.2833 101.112 92.1073 100.895C91.8983 100.629 91.7963 100.349 91.8014 100.054C91.8131 99.7634 91.8745 99.468 91.9858 99.1676C92.097 98.8672 92.2256 98.5688 92.3715 98.2724C92.524 97.9801 92.6312 97.7004 92.693 97.4331C92.724 97.3136 92.7608 97.221 92.8034 97.1555C92.8459 97.09 92.8865 97.0418 92.9252 97.011C92.9746 96.9779 93.0177 96.9546 93.0543 96.9412C93.1018 96.9255 93.1385 96.912 93.1644 96.9009C93.2011 96.8874 93.2279 96.8676 93.2449 96.8414C93.296 96.7628 93.3241 96.6692 93.3293 96.5608C93.3345 96.4524 93.3796 96.3327 93.4647 96.2017C93.5116 96.1296 93.5562 96.0608 93.5988 95.9953C93.6521 95.9274 93.7022 95.8575 93.749 95.7854C93.9065 95.543 94.0133 95.3283 94.0696 95.1412C94.1324 94.9585 94.167 94.776 94.1735 94.5939C94.1865 94.4161 94.1832 94.2276 94.1634 94.0285C94.1502 93.8336 94.141 93.604 94.1356 93.3397C94.0681 93.3145 94.0016 93.2806 93.9361 93.2381C93.8772 93.1998 93.8149 93.1594 93.7494 93.1168C93.6183 93.0317 93.4916 92.9401 93.369 92.8419C93.253 92.7479 93.1295 92.6584 92.9985 92.5733C92.8609 92.4839 92.7115 92.4056 92.5503 92.3382C92.3957 92.275 92.2464 92.1966 92.1022 92.103C92.0105 92.0435 91.9273 91.9708 91.8525 91.885C91.7821 91.7927 91.701 91.7167 91.6093 91.6572C91.4979 91.5848 91.3716 91.5354 91.2304 91.5089C91.0935 91.4759 90.9537 91.4689 90.8109 91.488C90.6723 91.5005 90.5396 91.54 90.4125 91.6066C90.2963 91.6708 90.1998 91.7619 90.1233 91.8798L89.919 92.1943C89.5488 92.7644 89.1359 93.2927 88.6802 93.7792C88.6118 93.8559 88.5433 93.9325 88.4749 94.0092C88.4108 94.0793 88.3489 94.1602 88.2893 94.252C88.1149 94.5206 88.0269 94.7709 88.0253 95.0028C88.0303 95.2389 88.0774 95.4604 88.1666 95.6674C88.26 95.8678 88.3805 96.0625 88.5279 96.2514C88.6754 96.4403 88.8044 96.6218 88.9148 96.796C89.0295 96.9637 89.1074 97.1307 89.1484 97.297C89.1959 97.4677 89.1644 97.6381 89.0538 97.8085C89.0112 97.874 88.9577 97.9278 88.8932 97.9697C88.8395 98.0094 88.7792 98.0447 88.7124 98.0759C88.5379 98.1582 88.3879 98.2098 88.2625 98.2308C88.1479 98.2495 88.0319 98.2488 87.9147 98.2285C87.804 98.2125 87.6898 98.1803 87.5722 98.1319C87.4546 98.0835 87.3131 98.0288 87.1477 97.968C87.0193 97.9218 86.8907 97.8616 86.762 97.7873C86.6355 97.7239 86.5133 97.6538 86.3954 97.5772C86.2119 97.4581 86.0466 97.3181 85.8995 97.1574C85.7481 97.0032 85.5807 96.8665 85.3972 96.7474C85.2597 96.658 85.1103 96.5797 84.9491 96.5123C84.7987 96.4426 84.6463 96.3761 84.4916 96.313C84.3328 96.2564 84.1782 96.1932 84.0278 96.1235C83.8732 96.0604 83.7271 95.9842 83.5895 95.8948C83.4978 95.8352 83.4026 95.7594 83.304 95.6675C83.2119 95.5797 83.137 95.4799 83.0793 95.3679C83.0174 95.2624 82.9792 95.1491 82.9647 95.028C82.9568 94.911 82.989 94.7969 83.0614 94.6855C83.1209 94.5938 83.197 94.5268 83.2897 94.4845C83.3824 94.4422 83.4818 94.4182 83.5879 94.4126C83.7006 94.4113 83.8101 94.4219 83.9166 94.4444C84.023 94.467 84.1177 94.5005 84.2006 94.545C84.2769 94.5853 84.338 94.6203 84.3839 94.6501C84.4363 94.6841 84.4831 94.7052 84.5244 94.7134C84.5722 94.7258 84.6243 94.7317 84.6806 94.731C84.737 94.7303 84.8083 94.7208 84.8948 94.7024C84.9488 94.6909 84.9953 94.6839 85.0343 94.6812C85.0798 94.6829 85.1255 94.6986 85.1714 94.7283C85.2042 94.7496 85.2348 94.7742 85.2633 94.802C85.2918 94.8298 85.3224 94.8544 85.3552 94.8756C85.4076 94.9097 85.4707 94.9273 85.5444 94.9286C85.733 94.9394 85.8973 94.9016 86.0371 94.8154C86.1769 94.7292 86.3034 94.6204 86.4167 94.4891C86.5342 94.3511 86.644 94.2035 86.7461 94.0463C86.8548 93.8933 86.9681 93.7619 87.0859 93.6521C87.2123 93.5293 87.3159 93.4056 87.3968 93.2811C87.5457 93.0518 87.663 92.8066 87.7487 92.5455C87.841 92.2887 87.9615 92.0456 88.1105 91.8163C88.2892 91.5411 88.4875 91.2787 88.7056 91.029C88.9236 90.7794 89.122 90.517 89.3007 90.2418C89.3475 90.1697 89.3889 90.0988 89.4249 90.029C89.4674 89.9635 89.5121 89.8947 89.5589 89.8226C89.8653 89.3508 90.1969 88.9048 90.5537 88.4844C90.9105 88.0641 91.2421 87.618 91.5484 87.1463C91.6335 87.0152 91.7132 86.8853 91.7875 86.7566C91.8618 86.6279 91.935 86.4937 92.007 86.3542C92.0619 86.2408 92.1318 86.1045 92.2166 85.9453C92.3056 85.7796 92.3902 85.6063 92.4703 85.4255C92.5505 85.2446 92.6208 85.0574 92.6814 84.8638C92.7484 84.6745 92.7831 84.4921 92.7853 84.3165C92.7983 84.1387 92.7747 83.9743 92.7143 83.8233C92.6648 83.67 92.5647 83.5445 92.414 83.4466C92.3812 83.4253 92.3431 83.4052 92.2995 83.3862C92.2625 83.3715 92.2276 83.3535 92.1948 83.3322C92.1228 83.2854 92.0766 83.2275 92.0562 83.1584C92.0402 83.0827 92.0382 83.0069 92.0502 82.9309C92.0666 82.8484 92.0916 82.7668 92.1253 82.6862C92.1656 82.6099 92.2027 82.5455 92.2367 82.4931C92.3814 82.2704 92.5435 82.1427 92.7229 82.1102C92.909 82.082 93.0966 82.1014 93.286 82.1684C93.4819 82.2398 93.6727 82.3404 93.8584 82.4703C94.055 82.598 94.2329 82.7042 94.3921 82.789C94.571 82.8865 94.7572 82.9655 94.9508 83.026C95.1509 83.0908 95.3394 83.1806 95.5163 83.2955C95.7719 83.4614 96.0029 83.658 96.2093 83.8852C96.4157 84.1124 96.6467 84.309 96.9022 84.475C97.1119 84.6111 97.3257 84.7266 97.5435 84.8215C97.7656 84.9099 97.9962 84.9851 98.2353 85.0472C98.3549 85.0783 98.4539 85.1194 98.5326 85.1704C98.7881 85.3364 99.0191 85.5329 99.2255 85.7601C99.4319 85.9874 99.6554 86.1884 99.8959 86.3632C100.058 86.4869 100.213 86.6345 100.363 86.8061C100.516 86.9711 100.642 87.1505 100.74 87.3444C100.848 87.5359 100.917 87.7388 100.945 87.953C100.974 88.1672 100.945 88.3766 100.859 88.5814C100.806 88.7055 100.782 88.8434 100.786 88.995C100.794 89.1401 100.81 89.2808 100.833 89.417C100.867 89.551 100.89 89.6731 100.902 89.7835C100.925 89.8916 100.922 89.9685 100.892 90.0144C100.862 90.0603 100.816 90.0814 100.753 90.0778C100.701 90.0719 100.658 90.0952 100.624 90.1476C100.603 90.1804 100.599 90.2292 100.613 90.294C100.633 90.3631 100.652 90.4409 100.671 90.5274C100.689 90.6138 100.697 90.7026 100.694 90.7936C100.701 90.8824 100.682 90.9628 100.635 91.0349C100.571 91.1332 100.481 91.2003 100.364 91.2364C100.258 91.2702 100.174 91.3362 100.11 91.4345L100.11 91.4767L100.273 91.5268L100.28 91.5592C100.238 91.6811 100.176 91.7988 100.093 91.9125C100.02 92.0239 99.9544 92.1255 99.8949 92.2172C99.814 92.3417 99.7214 92.4771 99.617 92.6236C99.5126 92.77 99.4004 92.9068 99.2806 93.0339C99.1608 93.1611 99.0343 93.2699 98.901 93.3603C98.7677 93.4508 98.6286 93.5001 98.4835 93.5084C98.3947 93.5159 98.3091 93.5115 98.2265 93.4952C98.1548 93.4766 98.0788 93.4645 97.9986 93.4589C97.9226 93.4469 97.8468 93.4489 97.7711 93.4649C97.6955 93.481 97.619 93.5199 97.5417 93.5815C97.4366 93.6716 97.3129 93.7402 97.1704 93.7875C97.028 93.8347 96.8822 93.8798 96.7332 93.9227C96.595 93.9634 96.4613 94.0116 96.3319 94.0673C96.2091 94.1273 96.1094 94.2163 96.0328 94.3342C95.9095 94.5242 95.8372 94.7288 95.816 94.9479C95.8013 95.1713 95.7747 95.3916 95.7362 95.6087C95.6933 95.8324 95.6288 96.0467 95.5424 96.2514C95.4602 96.4496 95.3662 96.6447 95.2601 96.8366C95.1606 97.0328 95.0546 97.2248 94.942 97.4125C94.836 97.6045 94.7365 97.8007 94.6436 98.0012C94.6056 98.0883 94.55 98.2385 94.4767 98.4518C94.4143 98.6627 94.3595 98.8833 94.3124 99.1136C94.2654 99.3439 94.243 99.5576 94.2454 99.7547C94.2478 99.9519 94.2981 100.082 94.3964 100.146C94.4816 100.202 94.5801 100.2 94.6921 100.143C94.8041 100.085 94.9213 100.012 95.0438 99.9239C95.1728 99.84 95.3029 99.7615 95.4343 99.6884C95.5721 99.6196 95.7062 99.5995 95.8366 99.6283C96.0269 99.7799 96.1685 99.9277 96.2612 100.072C96.3605 100.22 96.4122 100.37 96.4162 100.522C96.4244 100.667 96.3927 100.823 96.3211 100.991C96.2602 101.156 96.166 101.337 96.0383 101.534ZM98.9716 90.5836C99.0311 90.4919 99.0796 90.3743 99.1168 90.2308C99.1584 90.0808 99.1901 89.9244 99.212 89.7616C99.2338 89.5988 99.2449 89.4383 99.2452 89.2801C99.252 89.1262 99.246 88.9919 99.2273 88.8773C99.0897 88.7879 99.0044 88.7185 98.9713 88.6691C98.9382 88.6197 98.9236 88.5776 98.9275 88.5429C98.9357 88.5016 98.9427 88.4549 98.9486 88.4028C98.961 88.355 98.9406 88.2859 98.8876 88.1955C98.7306 87.9352 98.5795 87.716 98.4343 87.5379C98.2892 87.3598 98.0888 87.1878 97.8333 87.0218C97.7612 86.975 97.6764 86.9479 97.5788 86.9404C97.4877 86.9371 97.416 86.9185 97.3636 86.8845C97.2129 86.7866 97.0761 86.6745 96.9532 86.5481C96.8346 86.4152 96.6999 86.2998 96.5492 86.2019C96.333 86.0615 96.0932 85.9431 95.8299 85.8465C95.6536 85.788 95.4795 85.7262 95.3076 85.6611C95.1356 85.596 94.9693 85.5579 94.8089 85.5468C94.6484 85.5357 94.4926 85.5604 94.3417 85.6207C94.1973 85.6853 94.0613 85.8158 93.9336 86.0124C93.8017 86.2155 93.6916 86.4281 93.6032 86.6502C93.5215 86.8766 93.4146 87.0913 93.2827 87.2944C93.2189 87.3927 93.1408 87.4771 93.0485 87.5475C92.9627 87.6222 92.8736 87.6948 92.7813 87.7653C92.6932 87.8292 92.603 87.8963 92.5107 87.9668C92.4249 88.0415 92.3501 88.128 92.2863 88.2263C92.2097 88.3442 92.1408 88.4718 92.0796 88.6091C92.0292 88.744 92.0016 88.8798 91.9968 89.0164C91.9962 89.1464 92.0226 89.2707 92.076 89.3892C92.136 89.512 92.2381 89.6202 92.3822 89.7138C92.5198 89.8032 92.6679 89.8621 92.8264 89.8905C92.9892 89.9124 93.1394 89.968 93.277 90.0574C93.3491 90.1042 93.4051 90.1685 93.4451 90.2504C93.4893 90.3257 93.5314 90.4043 93.5714 90.4861C93.6114 90.568 93.6547 90.652 93.7012 90.7381C93.752 90.8177 93.82 90.8851 93.9052 90.9404C93.9707 90.983 94.0372 91.0168 94.1047 91.042C94.1764 91.0607 94.247 91.0739 94.3165 91.0817C94.6378 91.132 94.9637 91.2039 95.2942 91.2975C95.6355 91.3887 95.9437 91.5237 96.2189 91.7024C96.291 91.7492 96.4017 91.7652 96.5511 91.7504C96.7046 91.729 96.8743 91.6902 97.06 91.6338C97.2499 91.5708 97.4462 91.498 97.6489 91.4154C97.8559 91.3262 98.0476 91.2318 98.2241 91.1322C98.4114 91.0302 98.5684 90.9319 98.6951 90.8372C98.8326 90.7402 98.9248 90.6557 98.9716 90.5836ZM111.129 104.138C111.04 104.275 110.939 104.401 110.828 104.515C110.721 104.623 110.608 104.731 110.491 104.841C110.377 104.944 110.264 105.053 110.153 105.167C110.042 105.281 109.944 105.403 109.859 105.534C109.825 105.587 109.794 105.641 109.766 105.698C109.75 105.752 109.724 105.806 109.69 105.858C109.605 105.989 109.501 106.099 109.379 106.187C109.263 106.279 109.139 106.362 109.008 106.435C108.892 106.5 108.793 106.58 108.712 106.676C108.637 106.777 108.563 106.877 108.488 106.978C108.42 107.083 108.342 107.181 108.254 107.273C108.167 107.365 108.063 107.438 107.945 107.492C107.889 107.549 107.806 107.634 107.694 107.748C107.594 107.86 107.51 107.931 107.443 107.962C107.428 107.971 107.402 107.968 107.365 107.954C107.328 107.939 107.288 107.922 107.244 107.903C107.201 107.884 107.15 107.869 107.091 107.859C107.033 107.849 106.974 107.853 106.916 107.871C106.862 107.883 106.806 107.912 106.748 107.958C106.69 108.004 106.629 108.048 106.564 108.09C106.5 108.132 106.433 108.163 106.364 108.183C106.305 108.201 106.247 108.191 106.188 108.153C106.129 108.115 106.083 108.071 106.05 108.021C106.021 107.965 105.99 107.913 105.957 107.863C105.928 107.807 105.895 107.758 105.858 107.715C105.82 107.672 105.762 107.639 105.684 107.616C105.695 107.642 105.681 107.679 105.64 107.727C105.604 107.769 105.572 107.818 105.544 107.875C105.523 107.936 105.521 108.004 105.537 108.08C105.553 108.155 105.62 108.231 105.738 108.308C105.797 108.346 105.855 108.379 105.911 108.407C105.975 108.438 106.04 108.467 106.107 108.492C105.961 108.602 105.825 108.676 105.697 108.715C105.574 108.747 105.445 108.765 105.311 108.771C105.188 108.775 105.056 108.778 104.915 108.779C104.785 108.779 104.642 108.798 104.486 108.837C104.303 108.876 104.15 108.874 104.028 108.832C103.913 108.795 103.773 108.751 103.61 108.701C103.423 108.645 103.276 108.628 103.168 108.651C103.06 108.674 102.947 108.689 102.83 108.697C102.713 108.705 102.573 108.684 102.41 108.634C102.249 108.595 102.025 108.482 101.736 108.294C101.474 108.124 101.219 107.944 100.969 107.754C100.727 107.569 100.488 107.377 100.254 107.178C100.144 107.088 100.061 107.001 100.004 106.918C99.9486 106.845 99.9011 106.767 99.8611 106.685C99.8169 106.61 99.7747 106.531 99.7347 106.45C99.6948 106.368 99.6384 106.275 99.5656 106.172C99.526 106.118 99.4808 106.052 99.43 105.972C99.3749 105.899 99.3187 105.821 99.2614 105.737C99.204 105.653 99.1532 105.573 99.109 105.498C99.069 105.416 99.04 105.346 99.0219 105.288C99.0016 105.219 98.9965 105.155 99.0066 105.096C99.0275 105.035 99.0485 104.974 99.0694 104.914C99.0946 104.846 99.1123 104.783 99.1224 104.724C99.1433 104.663 99.1415 104.602 99.1169 104.539C99.0271 104.462 98.9428 104.384 98.8638 104.305C98.7891 104.219 98.7165 104.13 98.6461 104.038C98.6667 103.949 98.6851 103.863 98.7015 103.78C98.7286 103.696 98.7525 103.609 98.7731 103.519C98.7475 103.372 98.7145 103.244 98.6742 103.134C98.6381 103.017 98.6119 102.907 98.5954 102.803C98.579 102.699 98.5755 102.59 98.585 102.475C98.6052 102.358 98.6556 102.223 98.7361 102.07C98.8271 101.887 98.8942 101.698 98.9373 101.502C98.9847 101.3 99.0267 101.099 99.0633 100.899C99.1065 100.704 99.155 100.507 99.209 100.309C99.2695 100.116 99.3551 99.9337 99.4657 99.7634C99.5806 99.5865 99.7336 99.4297 99.9248 99.293C99.9093 98.901 99.9807 98.5328 100.139 98.1885C100.302 97.8377 100.487 97.5018 100.696 97.1807C100.764 97.0759 100.83 96.9743 100.894 96.876C100.968 96.7755 101.037 96.676 101.101 96.5777C101.174 96.4664 101.203 96.3642 101.189 96.2712C101.185 96.1758 101.213 96.0823 101.273 95.9906C101.367 95.8465 101.478 95.7183 101.606 95.6063C101.742 95.4985 101.863 95.3767 101.969 95.2411C101.893 95.1727 101.858 95.1038 101.866 95.0343L101.911 95.0078C102.008 94.9589 102.091 94.9103 102.16 94.8618C102.235 94.8175 102.298 94.7702 102.35 94.7197C102.401 94.6693 102.455 94.6155 102.51 94.5585C102.566 94.5015 102.631 94.4368 102.706 94.3644C102.933 94.1298 103.169 93.9102 103.414 93.7058C103.665 93.5055 103.915 93.2999 104.163 93.0889C104.444 92.8428 104.722 92.6455 104.995 92.4971C105.268 92.3486 105.6 92.2612 105.99 92.2348C106.161 92.2154 106.326 92.1831 106.486 92.1378C106.646 92.0925 106.792 92.0106 106.925 91.892C106.975 91.8871 107.021 91.8941 107.065 91.9131C107.108 91.932 107.15 91.9543 107.189 91.9798L107.268 92.0309C107.314 92.0607 107.358 92.085 107.402 92.104C107.456 92.1207 107.514 92.1254 107.574 92.1182C107.732 92.0903 107.86 92.0801 107.958 92.0876C108.062 92.0993 108.179 92.1477 108.31 92.2328C108.402 92.2924 108.484 92.3597 108.557 92.4347C108.633 92.5031 108.711 92.5769 108.79 92.6561C108.844 92.6446 108.918 92.6318 109.011 92.6177C109.114 92.6013 109.196 92.5981 109.254 92.6083L109.235 92.6378C109.218 92.664 109.204 92.6923 109.194 92.7228C109.194 92.7509 109.211 92.7757 109.244 92.7969C109.329 92.8522 109.423 92.8858 109.528 92.8975C109.632 92.9093 109.731 92.9363 109.824 92.9785C110.036 93.0691 110.258 93.1434 110.49 93.2012C110.727 93.2525 110.944 93.342 111.14 93.4697C111.35 93.6058 111.564 93.7636 111.783 93.943C112.008 94.1266 112.212 94.329 112.395 94.55C112.577 94.771 112.724 95.0108 112.836 95.2695C112.952 95.5216 113.002 95.7876 112.988 96.0673C112.981 96.193 112.987 96.2992 113.005 96.3856C113.028 96.4655 113.053 96.5421 113.08 96.6155C113.111 96.6823 113.14 96.7524 113.167 96.8257C113.198 96.8925 113.222 96.9778 113.238 97.0816C113.269 97.3066 113.265 97.5277 113.226 97.7449C113.199 97.9597 113.211 98.1774 113.264 98.3978C113.332 98.6656 113.333 98.9365 113.267 99.2103C113.207 99.4884 113.103 99.7421 112.954 99.9714C112.907 100.044 112.851 100.109 112.784 100.169C112.718 100.228 112.659 100.297 112.608 100.375C112.566 100.441 112.534 100.518 112.513 100.607C112.499 100.701 112.486 100.799 112.475 100.904C112.463 101.008 112.446 101.113 112.423 101.22C112.401 101.326 112.37 101.423 112.332 101.51C112.237 101.7 112.154 101.892 112.083 102.088C112.016 102.278 111.944 102.473 111.869 102.676C111.776 102.933 111.669 103.184 111.546 103.431C111.423 103.677 111.284 103.913 111.129 104.138ZM109.572 103.029C109.81 102.662 110.013 102.277 110.182 101.874C110.357 101.475 110.532 101.077 110.707 100.678C110.766 100.53 110.804 100.378 110.822 100.221C110.846 100.069 110.879 99.9184 110.92 99.7684C110.995 99.4815 111.073 99.1967 111.154 98.914C111.235 98.6313 111.316 98.3486 111.397 98.0659C111.445 97.892 111.434 97.708 111.364 97.5138C111.299 97.313 111.198 97.1171 111.062 96.9258C110.929 96.7281 110.77 96.5361 110.583 96.3498C110.408 96.1612 110.23 95.99 110.051 95.8361C109.875 95.6757 109.705 95.5369 109.538 95.4197C109.383 95.3003 109.263 95.2129 109.178 95.1575L109.312 95.2307L109.197 95.1703C109.053 95.0767 108.913 94.9765 108.778 94.8698C108.649 94.7674 108.512 94.6693 108.368 94.5757C108.25 94.4991 108.126 94.4324 107.995 94.3754C107.875 94.3162 107.746 94.2928 107.607 94.3053C107.28 94.3353 106.973 94.3639 106.685 94.3912C106.402 94.412 106.115 94.5097 105.824 94.6844C105.729 94.744 105.646 94.7786 105.575 94.7881C105.508 94.7911 105.439 94.7974 105.367 94.8069C105.307 94.8141 105.245 94.83 105.183 94.8546C105.12 94.8792 105.048 94.9397 104.967 95.036C104.811 95.2047 104.648 95.3692 104.479 95.5294C104.32 95.6874 104.179 95.8613 104.056 96.0513C103.924 96.2545 103.773 96.4448 103.601 96.6224C103.441 96.7977 103.26 96.9548 103.058 97.0937C103.004 97.1334 102.953 97.1698 102.903 97.2029C102.86 97.2402 102.822 97.2851 102.788 97.3375C102.724 97.4358 102.691 97.5359 102.691 97.6377C102.694 97.7331 102.678 97.8069 102.644 97.8593C102.627 97.8855 102.607 97.8955 102.583 97.8893C102.57 97.8808 102.549 97.8767 102.521 97.8771C102.504 97.8751 102.475 97.8841 102.434 97.9041C102.399 97.9284 102.354 97.9831 102.299 98.0683C102.176 98.2583 102.05 98.4516 101.923 98.6481C101.801 98.8489 101.696 99.055 101.605 99.2663C101.552 99.3904 101.515 99.5198 101.493 99.6544C101.481 99.7868 101.439 99.9086 101.367 100.02C101.32 100.092 101.257 100.154 101.177 100.204C101.098 100.255 101.033 100.32 100.982 100.398C100.922 100.49 100.899 100.583 100.913 100.676C100.932 100.762 100.944 100.858 100.949 100.964C100.955 101.042 100.943 101.132 100.914 101.235C100.895 101.335 100.876 101.429 100.855 101.518C100.841 101.611 100.83 101.693 100.822 101.762C100.815 101.832 100.827 101.877 100.86 101.898C100.886 101.915 100.911 101.927 100.935 101.933C100.963 101.933 100.99 101.941 101.017 101.958C101.148 102.043 101.208 102.166 101.197 102.327C101.196 102.485 101.16 102.62 101.088 102.731C101.028 102.823 101.003 102.918 101.013 103.018C101.027 103.111 101.053 103.207 101.091 103.306C101.129 103.405 101.167 103.505 101.205 103.604C101.254 103.701 101.286 103.796 101.3 103.889C101.321 104.042 101.344 104.15 101.369 104.213C101.4 104.28 101.431 104.333 101.462 104.371C101.497 104.403 101.529 104.433 101.557 104.461C101.592 104.493 101.626 104.548 101.66 104.626C101.698 104.725 101.732 104.831 101.761 104.943C101.801 105.053 101.841 105.158 101.879 105.257C101.988 105.533 102.157 105.768 102.384 105.963C102.623 106.155 102.863 106.329 103.106 106.487C103.204 106.551 103.311 106.587 103.426 106.597C103.541 106.606 103.658 106.612 103.777 106.615C103.901 106.612 104.02 106.615 104.135 106.624C104.256 106.638 104.369 106.679 104.474 106.747C104.559 106.802 104.635 106.879 104.701 106.978C105.001 106.847 105.264 106.757 105.491 106.708C105.718 106.66 105.93 106.607 106.126 106.548C106.323 106.489 106.516 106.4 106.705 106.281C106.894 106.162 107.101 105.965 107.325 105.692C107.419 105.576 107.526 105.482 107.647 105.412C107.778 105.338 107.889 105.247 107.978 105.138C108.181 104.897 108.368 104.646 108.538 104.383C108.715 104.126 108.908 103.878 109.117 103.642C109.199 103.546 109.277 103.447 109.351 103.347C109.426 103.246 109.499 103.14 109.572 103.029ZM128.642 106.023C128.591 106.102 128.517 106.152 128.42 106.172C128.327 106.186 128.225 106.185 128.114 106.169C128.01 106.158 127.905 106.141 127.798 106.118C127.692 106.095 127.601 106.078 127.525 106.066C127.455 106.058 127.39 106.058 127.33 106.065C127.276 106.077 127.216 106.089 127.151 106.103C127.097 106.115 127.039 106.118 126.976 106.115C126.92 106.116 126.852 106.104 126.774 106.082C126.676 106.046 126.594 106.007 126.529 105.964C126.463 105.922 126.397 105.888 126.329 105.863C126.266 105.831 126.199 105.82 126.127 105.829C126.056 105.839 125.965 105.878 125.856 105.946C125.761 106.006 125.666 106.088 125.569 106.194C125.484 106.296 125.391 106.39 125.29 106.473C125.189 106.557 125.083 106.613 124.97 106.643C124.864 106.677 124.746 106.651 124.615 106.566C124.568 106.638 124.542 106.728 124.537 106.837C124.543 106.943 124.548 107.049 124.554 107.155C124.566 107.265 124.569 107.375 124.564 107.483C124.563 107.585 124.539 107.672 124.493 107.744C124.442 107.823 124.376 107.887 124.297 107.938C124.217 107.989 124.152 108.054 124.101 108.132L123.702 108.725C123.61 108.852 123.548 108.998 123.515 109.163C123.493 109.326 123.438 109.476 123.348 109.614C123.297 109.692 123.23 109.76 123.146 109.818C123.066 109.869 122.999 109.937 122.944 110.022C122.765 110.297 122.612 110.589 122.486 110.898C122.371 111.205 122.219 111.503 122.032 111.791C121.909 111.981 121.758 112.177 121.581 112.378C121.408 112.573 121.21 112.706 120.988 112.776C120.934 112.872 120.903 112.963 120.893 113.05C120.888 113.13 120.878 113.217 120.864 113.31C120.854 113.397 120.835 113.492 120.806 113.594C120.787 113.694 120.736 113.809 120.65 113.94C120.574 114.058 120.459 114.207 120.305 114.386C120.162 114.564 120.001 114.725 119.823 114.87C119.649 115.009 119.465 115.113 119.271 115.182C119.088 115.249 118.917 115.232 118.76 115.13C118.747 115.121 118.734 115.113 118.721 115.104C118.718 115.093 118.711 115.084 118.698 115.075L118.65 115.128L118.63 115.157C118.571 115.249 118.544 115.348 118.549 115.454C118.562 115.564 118.538 115.666 118.478 115.757C118.449 115.803 118.381 115.843 118.275 115.877C118.176 115.915 118.061 115.948 117.932 115.975C117.802 116.003 117.671 116.025 117.539 116.042C117.414 116.063 117.308 116.082 117.221 116.101C117.124 116.121 117.04 116.151 116.969 116.188C116.909 116.224 116.847 116.254 116.785 116.278C116.733 116.301 116.67 116.311 116.596 116.31C116.534 116.306 116.447 116.282 116.336 116.238C116.144 116.16 115.961 116.112 115.788 116.092C115.614 116.072 115.442 116.058 115.27 116.049C115.103 116.034 114.933 116.003 114.759 115.955C114.581 115.914 114.39 115.827 114.187 115.695C114.076 115.623 113.976 115.54 113.888 115.445C113.8 115.351 113.715 115.253 113.631 115.153C113.552 115.045 113.465 114.942 113.371 114.844C113.283 114.749 113.187 114.668 113.082 114.6C112.997 114.545 112.907 114.496 112.813 114.454C112.731 114.409 112.646 114.359 112.561 114.304C112.496 114.262 112.445 114.224 112.41 114.192C112.382 114.164 112.36 114.113 112.344 114.037C112.336 113.976 112.307 113.906 112.257 113.827C112.212 113.751 112.159 113.675 112.098 113.598C112.04 113.514 111.979 113.437 111.913 113.366C111.851 113.289 111.799 113.227 111.755 113.179C111.658 113.07 111.586 112.93 111.538 112.759C111.497 112.593 111.471 112.418 111.46 112.234C111.46 112.047 111.469 111.862 111.486 111.678C111.51 111.498 111.539 111.339 111.572 111.202C111.638 110.928 111.729 110.666 111.845 110.415C111.965 110.158 112.09 109.909 112.219 109.667C112.353 109.418 112.481 109.17 112.604 108.924C112.737 108.675 112.849 108.417 112.939 108.15C112.972 108.041 113.002 107.93 113.029 107.817C113.067 107.702 113.118 107.595 113.181 107.497C113.228 107.425 113.279 107.36 113.335 107.303C113.395 107.24 113.455 107.176 113.515 107.112C113.746 106.871 113.966 106.618 114.175 106.354C114.391 106.093 114.59 105.822 114.773 105.54C115.016 105.167 115.237 104.784 115.436 104.391C115.641 104.003 115.865 103.622 116.108 103.249C116.154 103.177 116.199 103.108 116.242 103.043C116.284 102.977 116.332 102.91 116.386 102.843C116.484 102.72 116.593 102.609 116.713 102.51C116.84 102.416 116.946 102.303 117.031 102.172C117.061 102.126 117.082 102.079 117.094 102.031C117.107 101.983 117.121 101.932 117.138 101.878C117.17 101.656 117.224 101.473 117.3 101.327C117.381 101.174 117.474 101.002 117.58 100.81C117.737 100.511 117.808 100.273 117.792 100.095C117.784 99.9219 117.728 99.7644 117.624 99.6227C117.527 99.4851 117.407 99.3468 117.265 99.2077C117.133 99.0663 117.021 98.8726 116.93 98.6266C116.898 98.5598 116.878 98.4907 116.869 98.4194C116.87 98.3457 116.89 98.2793 116.928 98.2204C116.996 98.1155 117.113 98.0567 117.28 98.0438C117.453 98.0353 117.636 98.0558 117.827 98.1055C118.018 98.1552 118.201 98.218 118.375 98.2939C118.554 98.3633 118.686 98.4256 118.771 98.481C118.876 98.549 118.965 98.626 119.04 98.7117C119.121 98.8018 119.214 98.8808 119.319 98.9489C119.529 99.0851 119.747 99.194 119.973 99.2758C120.204 99.3511 120.424 99.4568 120.634 99.5929C120.719 99.6482 120.839 99.7497 120.995 99.8974C121.151 100.045 121.296 100.209 121.43 100.389C121.569 100.563 121.674 100.739 121.745 100.915C121.827 101.09 121.832 101.233 121.76 101.344C121.666 101.488 121.531 101.596 121.354 101.668C121.188 101.737 121.001 101.788 120.794 101.821C120.586 101.854 120.363 101.881 120.125 101.904C119.894 101.93 119.666 101.973 119.441 102.032C119.216 102.091 118.999 102.183 118.788 102.307C118.588 102.428 118.415 102.6 118.271 102.823C118.185 102.954 118.101 103.091 118.019 103.232C117.947 103.372 117.868 103.507 117.783 103.638C117.613 103.9 117.419 104.142 117.2 104.364C116.988 104.589 116.795 104.837 116.621 105.105C116.48 105.321 116.382 105.537 116.326 105.752C116.281 105.965 116.227 106.121 116.163 106.219C116.095 106.324 116.018 106.414 115.932 106.488C115.857 106.561 115.788 106.646 115.724 106.744C115.694 106.79 115.666 106.833 115.641 106.872C115.622 106.916 115.598 106.961 115.568 107.006C115.5 107.111 115.428 107.186 115.353 107.23C115.284 107.279 115.216 107.318 115.149 107.349C115.083 107.381 115.018 107.409 114.955 107.433C114.893 107.458 114.842 107.499 114.804 107.558C114.854 107.553 114.902 107.552 114.947 107.553C114.993 107.555 115.035 107.569 115.074 107.594C115.12 107.624 115.146 107.664 115.151 107.714C115.155 107.763 115.15 107.815 115.133 107.87C115.127 107.922 115.11 107.976 115.083 108.033C115.06 108.083 115.037 108.124 115.016 108.157C114.905 108.328 114.82 108.51 114.759 108.703C114.705 108.901 114.623 109.085 114.513 109.255C114.415 109.406 114.302 109.552 114.173 109.692C114.049 109.825 113.936 109.971 113.834 110.128C113.736 110.279 113.654 110.426 113.589 110.57C113.534 110.711 113.557 110.87 113.656 111.047C113.674 111.077 113.678 111.136 113.668 111.222C113.659 111.309 113.644 111.402 113.626 111.502C113.619 111.6 113.609 111.701 113.597 111.805C113.59 111.903 113.595 111.981 113.613 112.039C113.645 112.162 113.692 112.276 113.754 112.382C113.816 112.487 113.878 112.593 113.94 112.698C114.012 112.801 114.074 112.907 114.125 113.014C114.187 113.12 114.227 113.238 114.244 113.37C114.256 113.481 114.288 113.595 114.342 113.714C114.4 113.826 114.45 113.942 114.492 114.063C114.546 114.182 114.582 114.298 114.601 114.413C114.619 114.527 114.595 114.637 114.527 114.742C114.582 114.657 114.64 114.597 114.7 114.561C114.694 114.585 114.678 114.617 114.652 114.656C114.618 114.708 114.58 114.739 114.536 114.748C114.569 114.741 114.613 114.724 114.669 114.695C114.725 114.666 114.781 114.637 114.837 114.608C114.893 114.579 114.945 114.557 114.992 114.541C115.04 114.526 115.08 114.528 115.113 114.55C115.158 114.579 115.19 114.623 115.208 114.682C115.226 114.74 115.218 114.795 115.184 114.848C115.142 114.913 115.088 114.967 115.024 115.009C114.959 115.051 114.903 115.103 114.853 115.164C114.919 115.206 114.993 115.236 115.076 115.252C115.169 115.266 115.26 115.269 115.349 115.262C115.437 115.254 115.517 115.232 115.588 115.194C115.67 115.154 115.735 115.098 115.781 115.026C115.837 114.941 115.845 114.871 115.805 114.818C115.776 114.762 115.726 114.71 115.654 114.663C115.601 114.629 115.547 114.599 115.49 114.571C115.44 114.548 115.389 114.519 115.336 114.485L115.307 114.466C115.403 114.389 115.506 114.339 115.614 114.316C115.722 114.293 115.831 114.29 115.942 114.306C116.057 114.315 116.169 114.336 116.277 114.37C116.39 114.397 116.5 114.421 116.607 114.444C116.778 114.481 116.934 114.484 117.075 114.455C117.219 114.418 117.36 114.374 117.496 114.323C117.632 114.271 117.767 114.22 117.903 114.168C118.044 114.11 118.194 114.073 118.354 114.056C118.39 114.014 118.421 113.973 118.447 113.934C118.472 113.895 118.498 113.856 118.523 113.816C118.613 113.679 118.693 113.54 118.765 113.401C118.848 113.259 118.934 113.119 119.023 112.981C119.121 112.831 119.239 112.693 119.376 112.568C119.52 112.447 119.641 112.311 119.738 112.16C119.824 112.029 119.888 111.894 119.932 111.755C119.98 111.609 120.046 111.471 120.132 111.34C120.208 111.222 120.299 111.118 120.404 111.027C120.513 110.931 120.606 110.823 120.683 110.706C120.806 110.516 120.909 110.321 120.991 110.123C121.078 109.919 121.18 109.724 121.3 109.541C121.461 109.292 121.638 109.062 121.831 108.852C122.03 108.646 122.208 108.422 122.366 108.179C122.57 107.865 122.74 107.538 122.877 107.198C123.02 106.862 123.194 106.538 123.398 106.223C123.428 106.177 123.466 106.118 123.513 106.046C123.571 105.972 123.63 105.903 123.69 105.839C123.76 105.773 123.829 105.725 123.896 105.694C123.967 105.656 124.035 105.658 124.101 105.701C124.046 105.656 123.996 105.568 123.951 105.436C123.917 105.302 123.887 105.162 123.862 105.015C123.847 104.865 123.836 104.724 123.831 104.589C123.835 104.453 123.855 104.358 123.889 104.306C123.852 104.291 123.815 104.276 123.778 104.262C123.752 104.245 123.722 104.226 123.689 104.204C123.598 104.145 123.52 104.071 123.456 103.983C123.399 103.899 123.341 103.815 123.284 103.731C123.231 103.641 123.172 103.552 123.108 103.464C123.044 103.376 122.963 103.3 122.865 103.236L122.816 103.204C122.896 103.023 122.956 102.838 122.995 102.649C123.04 102.464 123.118 102.287 123.229 102.116C123.314 101.985 123.415 101.902 123.531 101.866C123.654 101.834 123.781 101.832 123.911 101.861C124.046 101.883 124.177 101.926 124.303 101.99C124.436 102.058 124.552 102.123 124.65 102.187C124.833 102.306 125.007 102.433 125.171 102.568C125.336 102.702 125.509 102.829 125.693 102.948C125.83 103.038 125.977 103.091 126.134 103.109C126.294 103.12 126.44 103.168 126.571 103.253C126.643 103.3 126.708 103.365 126.765 103.449C126.827 103.526 126.884 103.61 126.937 103.7C126.997 103.795 127.056 103.89 127.116 103.984C127.18 104.072 127.247 104.148 127.317 104.213C127.429 104.313 127.553 104.408 127.691 104.497C127.835 104.591 127.972 104.689 128.101 104.791C128.23 104.894 128.344 105.005 128.443 105.125C128.546 105.239 128.62 105.376 128.666 105.535C128.688 105.615 128.7 105.698 128.701 105.782C128.709 105.871 128.689 105.951 128.642 106.023ZM141.481 113.774C141.327 114.01 141.167 114.171 140.999 114.257C140.842 114.342 140.673 114.386 140.493 114.39C140.324 114.392 140.144 114.368 139.953 114.319C139.766 114.262 139.571 114.211 139.369 114.163C139.178 114.114 138.974 114.083 138.757 114.073C138.544 114.056 138.325 114.086 138.098 114.162C137.893 114.234 137.704 114.339 137.53 114.478C137.36 114.61 137.193 114.753 137.028 114.907C136.863 115.06 136.691 115.21 136.513 115.355C136.346 115.498 136.152 115.609 135.932 115.69C135.87 115.715 135.811 115.741 135.755 115.77C135.709 115.797 135.668 115.84 135.629 115.898C135.578 115.977 135.537 116.062 135.506 116.154C135.478 116.238 135.441 116.317 135.395 116.389C135.352 116.454 135.265 116.561 135.132 116.707C135.01 116.852 134.864 117.013 134.692 117.19C134.526 117.361 134.342 117.536 134.143 117.714C133.95 117.896 133.761 118.058 133.577 118.199C133.399 118.344 133.233 118.455 133.08 118.533C132.934 118.615 132.822 118.644 132.743 118.621C132.657 118.984 132.501 119.339 132.275 119.687C132.139 119.896 132.035 120.034 131.965 120.1C131.905 120.163 131.85 120.198 131.8 120.203C131.757 120.212 131.707 120.217 131.651 120.217C131.601 120.222 131.526 120.267 131.425 120.35C131.185 120.548 130.933 120.734 130.671 120.909C130.415 121.087 130.202 121.308 130.032 121.57C129.99 121.635 129.909 121.723 129.792 121.833C129.684 121.94 129.562 122.042 129.425 122.139C129.287 122.236 129.154 122.313 129.024 122.368C128.895 122.424 128.791 122.426 128.712 122.375C128.676 122.445 128.652 122.518 128.64 122.594C128.635 122.674 128.629 122.755 128.624 122.835C128.629 122.913 128.623 122.993 128.607 123.076C128.602 123.156 128.577 123.229 128.535 123.294C128.522 123.314 128.464 123.36 128.361 123.433C128.264 123.51 128.148 123.588 128.013 123.668C127.877 123.747 127.737 123.82 127.593 123.884C127.449 123.949 127.322 123.978 127.214 123.973C127.14 123.972 127.053 123.962 126.953 123.944C126.856 123.936 126.759 123.92 126.663 123.895C126.564 123.877 126.465 123.85 126.367 123.814C126.275 123.783 126.197 123.746 126.131 123.703C126.099 123.682 126.043 123.618 125.963 123.51C125.886 123.414 125.806 123.301 125.722 123.172C125.64 123.054 125.562 122.938 125.487 122.824C125.423 122.708 125.387 122.633 125.38 122.601C125.362 122.514 125.374 122.373 125.417 122.178C125.471 121.98 125.53 121.767 125.595 121.539C125.67 121.308 125.742 121.089 125.811 120.883C125.885 120.669 125.935 120.506 125.961 120.393C126.025 120.109 126.09 119.829 126.156 119.556C126.226 119.275 126.303 118.999 126.387 118.727C126.422 118.601 126.458 118.48 126.496 118.365C126.538 118.243 126.566 118.122 126.579 118L126.618 117.941C126.682 117.843 126.757 117.762 126.846 117.698C126.944 117.632 127.026 117.549 127.09 117.451C127.132 117.386 127.163 117.303 127.181 117.203C127.264 116.903 127.354 116.607 127.45 116.316C127.546 116.024 127.639 115.73 127.728 115.435C127.772 115.295 127.805 115.144 127.827 114.982C127.855 114.823 127.884 114.665 127.912 114.506C127.945 114.341 127.982 114.183 128.024 114.033C128.076 113.881 128.14 113.746 128.217 113.628C128.34 113.438 128.502 113.296 128.703 113.203C128.746 113.007 128.784 112.813 128.816 112.62C128.859 112.424 128.911 112.229 128.971 112.036C129.063 111.751 129.174 111.487 129.303 111.245C129.432 111.003 129.553 110.76 129.665 110.516C129.783 110.276 129.88 110.027 129.955 109.768C130.041 109.507 130.081 109.216 130.074 108.896C130.068 108.677 130.043 108.507 130 108.386C129.962 108.259 129.905 108.152 129.83 108.067C129.76 107.974 129.671 107.889 129.564 107.81C129.457 107.731 129.333 107.627 129.193 107.499C129.002 107.319 128.863 107.103 128.776 106.851C128.688 106.598 128.723 106.351 128.881 106.108C128.961 105.984 129.067 105.908 129.196 105.88C129.333 105.857 129.481 105.865 129.642 105.904C129.803 105.943 129.971 106.006 130.148 106.093C130.329 106.173 130.502 106.258 130.668 106.347C130.838 106.429 130.996 106.509 131.142 106.585C131.288 106.661 131.411 106.708 131.511 106.727C131.631 106.758 131.745 106.79 131.854 106.823C131.969 106.861 132.082 106.916 132.194 106.988C132.331 107.078 132.459 107.175 132.577 107.279C132.696 107.384 132.819 107.488 132.948 107.59C133.097 107.705 133.239 107.816 133.375 107.923C133.517 108.034 133.636 108.153 133.73 108.28C133.832 108.411 133.899 108.557 133.934 108.719C133.973 108.875 133.961 109.058 133.898 109.269C133.867 109.389 133.824 109.491 133.769 109.576C133.679 109.714 133.563 109.806 133.421 109.853C133.289 109.898 133.144 109.921 132.986 109.92C132.839 109.918 132.684 109.906 132.521 109.884C132.362 109.855 132.217 109.835 132.085 109.824L132.037 109.919C131.96 110.037 131.866 110.139 131.755 110.224C131.643 110.31 131.51 110.35 131.356 110.343C131.421 110.487 131.428 110.627 131.378 110.762C131.332 110.89 131.266 111.02 131.181 111.151C131.102 111.286 131.025 111.427 130.949 111.573C130.877 111.713 130.849 111.863 130.866 112.023C130.888 112.233 130.863 112.422 130.792 112.589C130.727 112.761 130.641 112.929 130.535 113.093L130.298 113.457C130.226 113.568 130.157 113.682 130.091 113.797C130.036 113.911 129.994 114.032 129.966 114.163C129.947 114.234 129.932 114.308 129.92 114.384C129.912 114.454 129.887 114.521 129.844 114.587C129.806 114.646 129.757 114.684 129.699 114.702C129.641 114.72 129.577 114.725 129.508 114.718C129.469 114.935 129.424 115.162 129.373 115.399C129.326 115.629 129.345 115.851 129.429 116.064C129.402 116.093 129.375 116.127 129.349 116.166C129.324 116.205 129.301 116.241 129.279 116.274C129.22 116.366 129.162 116.468 129.107 116.582C129.052 116.695 129.001 116.81 128.952 116.928C128.91 117.05 128.874 117.171 128.843 117.29C128.812 117.41 128.794 117.524 128.789 117.632L128.802 117.655L128.77 117.704C128.715 117.789 128.637 117.851 128.538 117.889C128.45 117.924 128.378 117.985 128.322 118.07C128.28 118.136 128.251 118.224 128.235 118.334C128.229 118.443 128.229 118.559 128.232 118.682C128.24 118.799 128.251 118.918 128.266 119.039C128.285 119.154 128.299 119.247 128.308 119.318L128.367 119.357C128.511 119.45 128.652 119.5 128.788 119.504C128.929 119.503 129.061 119.472 129.184 119.412C129.313 119.356 129.435 119.277 129.548 119.173C129.668 119.074 129.785 118.973 129.899 118.87C129.961 118.817 130.07 118.707 130.226 118.538C130.383 118.369 130.553 118.2 130.737 118.031C130.921 117.862 131.097 117.72 131.265 117.606C131.443 117.489 131.572 117.456 131.651 117.507L131.67 117.519C131.695 117.452 131.709 117.381 131.71 117.308C131.711 117.234 131.709 117.158 131.704 117.08C131.71 117 131.716 116.925 131.724 116.856C131.732 116.786 131.755 116.722 131.793 116.663C131.827 116.611 131.866 116.566 131.909 116.528C131.962 116.489 132.017 116.454 132.073 116.426C132.262 116.306 132.418 116.203 132.541 116.114C132.674 116.024 132.79 115.932 132.888 115.837C132.998 115.741 133.103 115.636 133.203 115.525C133.308 115.406 133.43 115.262 133.569 115.091C133.609 115.043 133.702 114.964 133.848 114.854C133.999 114.737 134.158 114.621 134.325 114.507C134.504 114.39 134.67 114.284 134.825 114.189C134.984 114.087 135.095 114.024 135.158 113.999L135.151 114.009C135.179 113.981 135.2 113.957 135.212 113.937C135.236 113.915 135.258 113.888 135.28 113.855C135.305 113.816 135.321 113.77 135.327 113.718C135.339 113.67 135.358 113.626 135.384 113.587C135.443 113.495 135.524 113.436 135.625 113.409C135.731 113.375 135.814 113.312 135.873 113.22C135.933 113.129 135.964 113.023 135.967 112.904C135.974 112.778 135.967 112.653 135.946 112.527C135.925 112.402 135.896 112.275 135.857 112.148C135.825 112.025 135.799 111.915 135.778 111.817L135.493 111.632C135.477 111.5 135.481 111.372 135.505 111.249C135.54 111.123 135.55 110.993 135.533 110.861C135.519 110.797 135.507 110.729 135.498 110.657C135.488 110.586 135.503 110.521 135.541 110.462C135.588 110.39 135.657 110.318 135.75 110.248C135.849 110.182 135.931 110.119 135.998 110.06C136.096 109.965 136.17 109.901 136.22 109.868C136.28 109.833 136.333 109.816 136.378 109.818C136.435 109.817 136.491 109.83 136.548 109.858C136.615 109.883 136.709 109.911 136.828 109.942C136.959 109.971 137.076 110.019 137.181 110.088C137.24 110.126 137.294 110.165 137.342 110.206C137.397 110.251 137.45 110.29 137.503 110.324C137.575 110.371 137.672 110.415 137.794 110.457C137.92 110.493 138.052 110.532 138.192 110.576C138.342 110.617 138.494 110.67 138.649 110.733C138.807 110.79 138.956 110.863 139.093 110.952C139.25 111.054 139.384 111.178 139.494 111.324C139.604 111.47 139.738 111.594 139.895 111.696C139.948 111.73 140.002 111.761 140.059 111.789C140.122 111.82 140.18 111.853 140.232 111.887C140.324 111.947 140.401 112.015 140.462 112.093C140.531 112.174 140.591 112.26 140.644 112.35C140.713 112.46 140.789 112.565 140.872 112.666C140.96 112.76 141.046 112.858 141.129 112.959C141.224 113.057 141.311 113.16 141.39 113.268C141.469 113.375 141.536 113.488 141.589 113.607L141.481 113.774ZM150.727 125.312C150.71 125.338 150.66 125.38 150.576 125.437C150.492 125.495 150.397 125.554 150.292 125.616C150.193 125.682 150.095 125.74 149.998 125.789C149.901 125.838 149.831 125.867 149.788 125.876L149.801 125.898C149.788 125.89 149.773 125.885 149.756 125.883L149.707 125.851C149.676 125.84 149.644 125.824 149.612 125.803C149.585 125.786 149.556 125.767 149.523 125.746L149.569 125.761C149.423 125.657 149.302 125.541 149.207 125.415C149.123 125.286 149.087 125.127 149.097 124.938C149.101 124.904 149.112 124.845 149.128 124.762C149.148 124.673 149.171 124.581 149.196 124.485C149.221 124.39 149.245 124.303 149.268 124.224C149.301 124.144 149.329 124.087 149.35 124.054C149.384 124.002 149.424 123.948 149.468 123.894C149.52 123.843 149.563 123.792 149.597 123.739C149.729 123.536 149.839 123.324 149.927 123.102C150.015 122.879 150.125 122.667 150.257 122.464C150.342 122.333 150.442 122.216 150.555 122.112C150.669 122.009 150.802 121.933 150.956 121.883L150.907 121.851C150.828 121.8 150.781 121.737 150.764 121.661C150.753 121.579 150.694 121.504 150.589 121.436C150.341 121.274 150.079 121.146 149.805 121.052C149.531 120.958 149.262 120.826 149 120.655C148.896 120.587 148.791 120.519 148.686 120.451C148.585 120.376 148.479 120.303 148.368 120.231C148.165 120.099 147.95 119.992 147.724 119.91C147.497 119.828 147.292 119.728 147.109 119.609C147.089 119.596 147.082 119.586 147.086 119.58C147.094 119.567 147.128 119.565 147.187 119.575C147.25 119.579 147.285 119.574 147.294 119.561C147.311 119.535 147.296 119.507 147.25 119.477C147.211 119.451 147.185 119.434 147.172 119.426C147.119 119.392 147.057 119.388 146.983 119.415C146.916 119.446 146.841 119.448 146.756 119.421C146.64 119.384 146.527 119.329 146.416 119.256C146.304 119.184 146.196 119.114 146.091 119.046C146.026 119.003 145.933 118.938 145.813 118.851C145.692 118.763 145.577 118.669 145.465 118.569C145.357 118.462 145.266 118.351 145.191 118.237C145.127 118.121 145.118 118.013 145.164 117.913C145.08 117.886 145.007 117.89 144.947 117.925C144.897 117.958 144.846 117.995 144.792 118.034C144.745 118.078 144.69 118.112 144.627 118.137C144.569 118.155 144.489 118.135 144.386 118.078C144.194 117.972 144.038 117.954 143.918 118.025C143.797 118.096 143.694 118.197 143.609 118.328C143.562 118.4 143.519 118.474 143.479 118.551C143.438 118.627 143.395 118.701 143.348 118.773C143.178 119.035 143.001 119.293 142.818 119.547C142.645 119.798 142.474 120.055 142.304 120.317C142.231 120.428 142.133 120.579 142.01 120.769C141.897 120.957 141.791 121.148 141.692 121.345C141.603 121.539 141.535 121.723 141.487 121.896C141.444 122.064 141.458 122.185 141.531 122.26C141.575 122.307 141.624 122.353 141.679 122.398C141.738 122.436 141.797 122.475 141.856 122.513C142.085 122.662 142.325 122.78 142.575 122.868C142.832 122.961 143.075 123.081 143.304 123.23C143.396 123.29 143.473 123.358 143.534 123.435C143.602 123.517 143.679 123.585 143.764 123.641C143.889 123.721 144.022 123.724 144.164 123.649C144.317 123.571 144.458 123.462 144.586 123.322C144.725 123.179 144.851 123.028 144.964 122.869C145.077 122.709 145.159 122.59 145.21 122.511C145.316 122.348 145.414 122.183 145.503 122.017C145.603 121.849 145.706 121.683 145.812 121.519L145.871 121.558C146.035 121.664 146.172 121.79 146.282 121.936C146.392 122.082 146.526 122.206 146.683 122.308C146.749 122.351 146.8 122.38 146.837 122.394C146.752 122.525 146.69 122.671 146.651 122.832C146.611 122.993 146.547 123.142 146.458 123.28C146.347 123.45 146.185 123.499 145.972 123.425C145.965 123.551 145.948 123.671 145.921 123.784C145.894 123.897 145.849 124.002 145.785 124.101C145.738 124.173 145.685 124.24 145.625 124.304C145.569 124.361 145.518 124.426 145.471 124.498C145.429 124.563 145.414 124.628 145.428 124.693C145.453 124.756 145.45 124.81 145.42 124.856C145.369 124.934 145.273 125.011 145.13 125.087C144.995 125.166 144.887 125.269 144.806 125.393C144.712 125.537 144.628 125.696 144.552 125.871C144.476 126.045 144.399 126.228 144.321 126.419C144.243 126.611 144.16 126.804 144.071 126.998C143.987 127.185 143.887 127.367 143.772 127.544C143.704 127.649 143.627 127.753 143.542 127.856C143.463 127.963 143.37 128.056 143.262 128.135C143.166 128.212 143.057 128.272 142.936 128.315C142.822 128.362 142.697 128.383 142.56 128.378C142.444 128.284 142.363 128.18 142.316 128.066C142.273 127.945 142.25 127.823 142.246 127.699C142.253 127.573 142.275 127.447 142.31 127.321C142.356 127.193 142.409 127.069 142.468 126.949C142.552 126.761 142.641 126.596 142.735 126.452C142.829 126.307 142.875 126.165 142.873 126.024C142.882 125.881 142.817 125.722 142.679 125.549C142.547 125.379 142.297 125.175 141.93 124.937C141.825 124.869 141.668 124.781 141.459 124.673C141.256 124.569 141.043 124.482 140.819 124.411C140.599 124.333 140.387 124.293 140.183 124.292C139.986 124.294 139.843 124.364 139.754 124.501C139.703 124.58 139.658 124.663 139.62 124.75C139.593 124.835 139.554 124.917 139.503 124.995C139.46 125.061 139.415 125.124 139.365 125.185C139.316 125.247 139.268 125.313 139.222 125.385C139.107 125.562 139.002 125.746 138.906 125.935C138.815 126.118 138.712 126.298 138.598 126.475C138.474 126.665 138.327 126.835 138.155 126.985C137.99 127.138 137.846 127.31 137.723 127.5C137.586 127.71 137.527 127.909 137.544 128.097C137.573 128.283 137.644 128.46 137.759 128.628C137.878 128.789 138.023 128.939 138.193 129.077C138.364 129.216 138.528 129.337 138.685 129.439C139 129.643 139.327 129.828 139.667 129.992C140.007 130.157 140.334 130.342 140.649 130.546C140.845 130.674 141.036 130.811 141.219 130.959C141.403 131.106 141.593 131.243 141.79 131.371C141.941 131.469 142.11 131.574 142.298 131.687C142.49 131.793 142.684 131.873 142.882 131.927C143.087 131.985 143.28 132.003 143.462 131.982C143.654 131.958 143.828 131.861 143.985 131.692C144.025 131.644 144.065 131.619 144.104 131.616C144.154 131.611 144.199 131.613 144.241 131.621C144.293 131.627 144.338 131.629 144.377 131.626C144.416 131.623 144.45 131.599 144.48 131.553C144.514 131.501 144.533 131.429 144.536 131.338C144.544 131.24 144.56 131.158 144.585 131.09C144.64 130.949 144.704 130.814 144.779 130.685C144.864 130.554 144.947 130.426 145.028 130.302C145.155 130.105 145.295 129.954 145.448 129.848C145.611 129.74 145.75 129.597 145.865 129.421C145.899 129.368 145.928 129.317 145.951 129.267C145.981 129.221 146.013 129.172 146.047 129.119C146.072 129.08 146.127 129.06 146.212 129.059C146.296 129.058 146.387 129.07 146.482 129.095C146.582 129.113 146.678 129.138 146.769 129.169C146.861 129.201 146.926 129.229 146.965 129.254C147.129 129.361 147.225 129.507 147.253 129.693C147.286 129.873 147.275 130.061 147.221 130.259C147.174 130.461 147.102 130.657 147.007 130.847C146.912 131.036 146.824 131.193 146.743 131.318C146.611 131.521 146.446 131.74 146.247 131.974C146.048 132.208 145.832 132.441 145.599 132.671C145.372 132.906 145.14 133.127 144.902 133.336C144.668 133.538 144.453 133.711 144.258 133.854C144.159 133.92 144.075 133.963 144.006 133.984C143.943 134.008 143.878 134.022 143.811 134.025C143.755 134.026 143.69 134.025 143.616 134.024C143.553 134.021 143.471 134.032 143.37 134.06C143.279 134.085 143.152 134.058 142.988 133.98C142.831 133.906 142.671 133.816 142.507 133.709C142.383 133.628 142.267 133.549 142.16 133.47C142.053 133.391 141.97 133.332 141.911 133.294C141.694 133.153 141.5 133.065 141.329 133.028C141.164 132.995 141.022 132.941 140.904 132.864C140.819 132.809 140.774 132.756 140.769 132.706C140.768 132.65 140.742 132.605 140.69 132.571C140.644 132.541 140.588 132.533 140.523 132.547C140.459 132.561 140.387 132.542 140.308 132.491C140.23 132.44 140.148 132.387 140.063 132.331C139.988 132.274 139.908 132.217 139.823 132.162C139.332 131.843 138.835 131.539 138.333 131.25C137.827 130.968 137.324 130.674 136.824 130.368C136.482 130.164 136.125 129.989 135.755 129.841C135.385 129.694 135.033 129.512 134.699 129.295C134.581 129.218 134.455 129.118 134.321 128.994C134.183 128.876 134.065 128.744 133.965 128.595C133.873 128.451 133.812 128.3 133.784 128.142C133.761 127.978 133.798 127.82 133.896 127.67C133.989 127.526 134.131 127.422 134.321 127.359C134.511 127.296 134.714 127.256 134.931 127.238C135.154 127.224 135.373 127.223 135.59 127.233C135.811 127.237 135.999 127.228 136.152 127.207C136.18 127.15 136.208 127.099 136.238 127.053C136.268 127.007 136.298 126.961 136.328 126.916C136.391 126.817 136.455 126.719 136.519 126.621C136.589 126.527 136.673 126.441 136.77 126.364C136.821 126.314 136.898 126.266 137.002 126.222C137.116 126.175 137.192 126.122 137.231 126.063C137.26 126.017 137.278 125.968 137.284 125.916C137.297 125.868 137.311 125.817 137.328 125.763C137.371 125.539 137.42 125.348 137.477 125.189C137.54 125.034 137.635 124.859 137.763 124.662C137.84 124.544 137.906 124.442 137.961 124.357C138.027 124.27 138.089 124.189 138.147 124.115C138.215 124.038 138.287 123.963 138.362 123.891C138.447 123.816 138.546 123.736 138.658 123.65C138.661 123.587 138.677 123.499 138.703 123.386C138.73 123.273 138.761 123.191 138.795 123.138L139.839 121.832C139.845 121.808 139.863 121.773 139.893 121.727C139.931 121.668 139.979 121.616 140.037 121.569C140.095 121.523 140.145 121.467 140.188 121.402C140.286 121.251 140.355 121.087 140.396 120.908C140.442 120.724 140.513 120.556 140.611 120.405C140.645 120.353 140.699 120.299 140.772 120.244C140.845 120.189 140.922 120.127 141.004 120.059C141.092 119.995 141.181 119.923 141.271 119.842C141.365 119.754 141.451 119.651 141.527 119.533C141.587 119.441 141.615 119.348 141.612 119.252C141.615 119.161 141.644 119.073 141.699 118.988C141.75 118.909 141.821 118.844 141.911 118.79C142.002 118.737 142.077 118.665 142.136 118.573C142.221 118.442 142.276 118.301 142.3 118.149C142.335 117.994 142.363 117.845 142.383 117.699C142.41 117.484 142.433 117.313 142.451 117.185C142.48 117.054 142.484 116.941 142.463 116.843C142.447 116.739 142.395 116.64 142.307 116.546C142.23 116.45 142.101 116.333 141.919 116.197C141.832 116.13 141.76 116.047 141.705 115.946C141.66 115.842 141.631 115.73 141.616 115.609C141.608 115.492 141.615 115.375 141.635 115.257C141.655 115.14 141.693 115.039 141.748 114.954C141.825 114.836 141.941 114.771 142.097 114.761C142.257 114.744 142.434 114.766 142.628 114.826C142.825 114.88 143.034 114.96 143.255 115.066C143.479 115.165 143.69 115.269 143.889 115.38C144.098 115.488 144.284 115.589 144.445 115.685C144.613 115.785 144.744 115.856 144.838 115.898C144.982 115.964 145.118 116.033 145.247 116.108C145.375 116.182 145.505 116.262 145.636 116.347C145.892 116.513 146.141 116.689 146.384 116.874C146.637 117.057 146.892 117.232 147.147 117.398C147.423 117.577 147.708 117.725 148.004 117.843C148.307 117.965 148.596 118.115 148.871 118.294C149.12 118.456 149.347 118.645 149.551 118.861C149.759 119.071 149.981 119.252 150.217 119.406C150.447 119.554 150.69 119.675 150.946 119.767C151.208 119.853 151.453 119.97 151.682 120.119C151.78 120.183 151.872 120.257 151.958 120.34C152 120.591 152.046 120.807 152.096 120.989C152.152 121.174 152.187 121.35 152.199 121.517C152.223 121.682 152.214 121.853 152.173 122.031C152.138 122.214 152.054 122.429 151.921 122.678C151.872 122.767 151.807 122.874 151.726 122.999C151.65 123.117 151.577 123.237 151.507 123.359C151.441 123.474 151.391 123.587 151.358 123.695C151.331 123.808 151.344 123.896 151.397 123.958C151.337 124.05 151.262 124.066 151.17 124.006C151.117 124.102 151.075 124.21 151.044 124.33C151.017 124.443 150.988 124.559 150.957 124.679C150.93 124.792 150.898 124.906 150.86 125.021C150.827 125.13 150.783 125.227 150.727 125.312ZM140.646 122.202C140.607 122.177 140.566 122.16 140.525 122.152C140.484 122.144 140.442 122.158 140.399 122.196C140.554 122.501 140.661 122.767 140.72 122.991C140.79 123.214 140.839 123.39 140.867 123.519C140.901 123.653 140.933 123.74 140.964 123.778C140.999 123.81 141.066 123.793 141.165 123.727C141.294 123.643 141.356 123.525 141.352 123.374C141.355 123.226 141.317 123.076 141.24 122.923C141.169 122.775 141.074 122.634 140.955 122.501C140.847 122.366 140.744 122.266 140.646 122.202ZM148.03 116.448C148.077 116.376 148.177 116.315 148.33 116.266C148.49 116.22 148.663 116.184 148.849 116.155C149.035 116.127 149.214 116.109 149.388 116.1C149.567 116.096 149.701 116.098 149.787 116.108C150.122 116.139 150.369 116.16 150.529 116.171C150.696 116.186 150.847 116.191 150.981 116.185C151.12 116.172 151.273 116.151 151.442 116.121C151.617 116.095 151.88 116.056 152.231 116.004C152.363 115.987 152.488 115.938 152.606 115.857C152.735 115.773 152.852 115.728 152.958 115.722C153.082 115.719 153.221 115.748 153.376 115.812C153.541 115.872 153.67 115.933 153.761 115.992C153.86 116.056 153.927 116.132 153.962 116.22C154.009 116.307 154.034 116.397 154.037 116.493C154.04 116.588 154.024 116.685 153.989 116.783C153.96 116.885 153.917 116.978 153.862 117.064C153.811 117.142 153.746 117.221 153.667 117.3C153.594 117.383 153.508 117.458 153.409 117.524C153.321 117.588 153.225 117.642 153.122 117.687C153.025 117.736 152.929 117.762 152.834 117.765C152.725 117.76 152.619 117.737 152.514 117.697C152.41 117.657 152.304 117.612 152.197 117.561C152.095 117.504 151.991 117.456 151.887 117.416C151.787 117.369 151.684 117.34 151.58 117.328C151.326 117.303 151.137 117.287 151.011 117.28C150.896 117.27 150.787 117.265 150.686 117.264C150.594 117.261 150.489 117.258 150.37 117.255C150.262 117.25 150.087 117.239 149.846 117.222C149.788 117.212 149.723 117.226 149.652 117.264C149.581 117.301 149.506 117.323 149.428 117.328C149.35 117.334 149.269 117.323 149.184 117.295C149.106 117.273 149.028 117.264 148.95 117.269C148.803 117.295 148.666 117.327 148.538 117.365C148.417 117.408 148.291 117.386 148.16 117.301C148.101 117.263 148.053 117.208 148.015 117.137C147.988 117.064 147.969 116.986 147.957 116.904C147.945 116.822 147.942 116.74 147.948 116.66C147.964 116.578 147.992 116.507 148.03 116.448Z" fill="#C1272D"/>
</svg>
