<svg width="201" height="200" viewBox="0 0 201 200" fill="none" xmlns="http://www.w3.org/2000/svg">
<rect x="96.9803" y="1.80392" width="139" height="139" rx="69.5" transform="rotate(43 96.9803 1.80392)" stroke="#C1272D" stroke-width="2"/>
<circle cx="100.41" cy="100.032" r="62" transform="rotate(43 100.41 100.032)" stroke="#C1272D" stroke-linecap="round" stroke-dasharray="4 4"/>
<path d="M60.6422 79.763C60.5954 79.8351 60.5289 79.8944 60.4428 79.9409C60.3609 79.9809 60.2714 80.0113 60.1741 80.0319C60.0811 80.0461 59.9858 80.0494 59.8882 80.0419C59.7948 80.0278 59.7154 79.9995 59.6499 79.957C59.604 79.9272 59.5603 79.8941 59.5187 79.8578C59.477 79.8215 59.4333 79.7884 59.3874 79.7586C59.3285 79.7203 59.2764 79.7144 59.2312 79.741C59.1903 79.761 59.1472 79.7843 59.102 79.8108C59.0634 79.8416 59.0171 79.8628 58.963 79.8742C58.9047 79.8923 58.833 79.8736 58.7478 79.8183C58.6954 79.7843 58.644 79.7416 58.5935 79.6902C58.5431 79.6388 58.4883 79.5939 58.4294 79.5556C58.3049 79.4748 58.1688 79.419 58.0211 79.3883C57.8756 79.3684 57.7374 79.3158 57.6063 79.2307C57.495 79.1584 57.3406 79.0303 57.1434 78.8463C56.9419 78.6688 56.752 78.4663 56.5738 78.2388C56.3978 78.0221 56.2587 77.806 56.1564 77.5905C56.0584 77.3685 56.0562 77.1854 56.1498 77.0412C56.2221 76.9299 56.3567 76.8589 56.5535 76.8284C56.7612 76.7955 56.9883 76.7614 57.2349 76.7259C57.4857 76.6839 57.7309 76.6148 57.9702 76.5188C58.2162 76.4269 58.4157 76.2631 58.5689 76.0272C58.6583 75.8896 58.716 75.7362 58.7421 75.5668C58.7748 75.4017 58.7847 75.2359 58.7719 75.0692C58.7633 74.8959 58.7352 74.724 58.6877 74.5534C58.6467 74.387 58.6047 74.2293 58.5617 74.0803C58.5374 74.0459 58.4926 74.0075 58.427 73.9649C58.2501 73.85 58.0605 73.7548 57.858 73.6792C57.6598 73.5971 57.4723 73.4986 57.2954 73.3837C57.2037 73.3241 57.1172 73.2493 57.0359 73.1593C56.9612 73.0735 56.9415 72.9676 56.9768 72.8415C56.7511 72.816 56.5276 72.7873 56.3062 72.7553C56.089 72.7167 55.8729 72.6695 55.6576 72.6136C55.5207 72.5806 55.4197 72.5569 55.3545 72.5425C55.2959 72.5323 55.2449 72.5319 55.2017 72.5411C55.165 72.5545 55.1231 72.5832 55.076 72.6271C55.0354 72.6753 54.9635 72.7357 54.8604 72.8085C54.7916 72.857 54.7402 72.9074 54.7062 72.9598C54.6722 73.0123 54.6339 73.0712 54.5913 73.1367C54.536 73.2219 54.4749 73.2801 54.4081 73.3112C54.3456 73.3358 54.2798 73.3583 54.2107 73.3786C54.1524 73.3966 54.092 73.418 54.0294 73.4426C53.9669 73.4671 53.9122 73.5155 53.8654 73.5875C53.8271 73.6465 53.8029 73.7053 53.7928 73.7639L53.751 73.8067C53.6872 73.905 53.6623 74.0006 53.6765 74.0936C53.6948 74.1801 53.7294 74.2631 53.7802 74.3427C53.8418 74.4199 53.9067 74.4993 53.9749 74.5809C54.043 74.6624 54.0971 74.7441 54.1371 74.8259C54.1771 74.9078 54.1968 75.0137 54.1962 75.1438C54.2064 75.2715 54.2004 75.4027 54.1782 75.5373C54.1668 75.6696 54.1434 75.7988 54.1081 75.9249C54.077 76.0445 54.0381 76.1403 53.9913 76.2124L53.9594 76.2615L53.8316 76.1785C53.5695 76.0083 53.2989 75.8513 53.0198 75.7073C52.7515 75.561 52.4811 75.418 52.2085 75.2782C51.9317 75.145 51.6559 75.0032 51.381 74.8526C51.1085 74.7129 50.8412 74.5579 50.5791 74.3877C50.4874 74.3282 50.3552 74.2377 50.1825 74.1162C50.0164 73.999 49.8588 73.8688 49.7097 73.7254C49.5564 73.5885 49.4355 73.4448 49.347 73.2942C49.2693 73.1413 49.273 72.9993 49.3581 72.8682C49.4475 72.7306 49.5514 72.6351 49.67 72.5817C49.7951 72.5325 49.9259 72.5103 50.0625 72.5152C50.2099 72.5178 50.3586 72.5398 50.5086 72.5813C50.6694 72.6206 50.8248 72.661 50.9748 72.7025C51.1314 72.7483 51.2782 72.7877 51.4151 72.8207C51.5585 72.858 51.6909 72.8694 51.812 72.8549C51.9332 72.8405 52.0668 72.7782 52.2128 72.6681C52.3631 72.5514 52.51 72.4185 52.6534 72.2695C52.7967 72.1204 52.9347 71.9725 53.0673 71.8257C53.2042 71.6723 53.3143 71.5529 53.3978 71.4674C53.4256 71.4389 53.4544 71.4017 53.4842 71.3558C53.5248 71.3077 53.5621 71.2574 53.5962 71.205C53.6368 71.1568 53.6719 71.1098 53.7017 71.0639C53.7381 71.0223 53.7692 70.9959 53.795 70.9848C53.9329 70.916 54.0246 70.8824 54.0701 70.884C54.1222 70.8898 54.159 70.8905 54.1806 70.8859C54.2088 70.8856 54.2399 70.8592 54.274 70.8068C54.3188 70.752 54.3987 70.6362 54.5136 70.4593C54.5646 70.3807 54.6193 70.3324 54.6776 70.3143C54.7401 70.2897 54.7984 70.2717 54.8525 70.2602C54.913 70.253 54.9682 70.2469 55.018 70.242C55.072 70.2305 55.1161 70.1985 55.1501 70.1461C55.2097 70.0544 55.2367 69.9555 55.2311 69.8494C55.2297 69.7367 55.2588 69.6345 55.3184 69.5428C55.3524 69.4903 55.3953 69.453 55.447 69.4307C55.4988 69.4084 55.5517 69.3915 55.6057 69.38C55.6663 69.3728 55.7203 69.3613 55.7678 69.3456C55.8195 69.3233 55.8624 69.2859 55.8965 69.2335C55.9433 69.1614 55.9737 69.0787 55.9877 68.9854C56.0083 68.8963 56.042 68.8157 56.0889 68.7436C56.1229 68.6912 56.1627 68.6658 56.2082 68.6674C56.2645 68.6667 56.3166 68.6726 56.3644 68.685C56.4188 68.7017 56.4645 68.7174 56.5015 68.7322C56.5493 68.7446 56.5796 68.741 56.5924 68.7213C56.5983 68.6692 56.575 68.6262 56.5226 68.5921C56.444 68.5411 56.377 68.5581 56.3217 68.6433C56.2971 68.5808 56.2812 68.5192 56.2739 68.4586C56.271 68.3915 56.2865 68.3317 56.3205 68.2793C56.3631 68.2138 56.4178 68.1654 56.4846 68.1343C56.5556 68.0966 56.6342 68.0545 56.7203 68.0079C56.813 67.9656 56.9055 67.9093 56.9978 67.8388C57.0902 67.7684 57.1789 67.6676 57.264 67.5366C57.3533 67.399 57.4188 67.2552 57.4603 67.1051C57.5061 66.9486 57.5715 66.8048 57.6566 66.6737C57.6992 66.6082 57.7548 66.5512 57.8236 66.5027C57.8989 66.4584 57.9754 66.4196 58.053 66.3862C58.1414 66.3504 58.2244 66.3158 58.302 66.2824C58.3904 66.2467 58.4679 66.1991 58.5343 66.1398C58.6545 66.0409 58.7592 65.9226 58.8486 65.785C58.9445 65.6517 59.0371 65.5162 59.1265 65.3786C59.2224 65.2453 59.3194 65.1173 59.4176 64.9948C59.5267 64.87 59.6522 64.7699 59.7943 64.6945C59.9214 64.6279 60.0226 64.5725 60.0979 64.5283C60.1732 64.484 60.2431 64.4409 60.3076 64.399C60.3763 64.3505 60.444 64.2966 60.5104 64.2373C60.5811 64.1714 60.6667 64.0826 60.7672 63.9709C60.9234 63.8022 61.0917 63.6506 61.2721 63.5163C61.459 63.3862 61.6273 63.2346 61.7769 63.0616C61.8836 62.926 61.9689 62.809 62.0327 62.7107C62.1074 62.6102 62.1833 62.5291 62.2606 62.4675C62.3444 62.4101 62.4415 62.3754 62.5519 62.3632C62.6688 62.3553 62.825 62.3729 63.0206 62.4161C63.2292 62.4677 63.4251 62.539 63.6082 62.63C63.7956 62.7144 63.9745 62.812 64.1448 62.9226C64.3414 63.0502 64.5381 63.192 64.735 63.3478C64.6823 63.4719 64.659 63.6011 64.6649 63.7354C64.6751 63.8632 64.6886 63.993 64.7054 64.125C64.7287 64.2612 64.7433 64.3965 64.7493 64.5308C64.766 64.6628 64.7513 64.7929 64.7052 64.9214C64.6401 65.0933 64.5662 65.2502 64.4834 65.3921C64.4114 65.5316 64.382 65.6988 64.3951 65.8937C64.3942 65.9956 64.3618 66.0956 64.298 66.1939C64.2001 66.3446 64.0869 66.476 63.9582 66.5881C63.8295 66.7001 63.7184 66.8282 63.6248 66.9724C63.5695 67.0576 63.5042 67.2155 63.4289 67.4461C63.3537 67.6767 63.2777 67.93 63.2008 68.2062C63.1282 68.4757 63.0545 68.7399 62.9796 68.9987C62.9089 69.2509 62.8517 69.4466 62.8079 69.5858C62.7052 69.8731 62.5687 70.1478 62.3985 70.4099C62.2349 70.6762 62.1115 70.9594 62.0284 71.2594C61.9369 71.5726 61.8355 71.8793 61.7242 72.1797C61.6173 72.4735 61.4842 72.7644 61.3252 73.0524C61.1723 73.3164 61.0434 73.5867 60.9384 73.8632C60.8376 74.1331 60.738 74.4084 60.6396 74.6891C60.5453 74.9633 60.4425 75.2365 60.3309 75.5087C60.2259 75.7852 60.0883 76.0544 59.9181 76.3165C59.8542 76.4148 59.7785 76.51 59.6907 76.602C59.6095 76.6984 59.5074 76.7624 59.3842 76.7943C59.4155 77.0474 59.4546 77.3243 59.5015 77.625C59.555 77.9299 59.6308 78.1933 59.7288 78.4153C59.7688 78.4972 59.8512 78.5926 59.976 78.7016C60.1009 78.8106 60.2214 78.9262 60.3378 79.0483C60.4649 79.1681 60.5617 79.2916 60.6283 79.4186C60.7056 79.5434 60.7102 79.6582 60.6422 79.763ZM59.9643 71.7914C60.0026 71.7324 60.0286 71.6421 60.0423 71.5206C60.0603 71.3926 60.0781 71.2504 60.0957 71.0942C60.1199 70.9422 60.1537 70.7825 60.1972 70.6151C60.2407 70.4478 60.3114 70.2887 60.4092 70.138C60.5241 69.9611 60.6107 69.7705 60.6689 69.5661C60.7313 69.3551 60.8102 69.1548 60.9054 68.9651C60.9859 68.8125 61.0717 68.6446 61.1626 68.4615C61.2644 68.2761 61.338 68.091 61.3835 67.9063C61.4332 67.715 61.4342 67.534 61.3867 67.3634C61.3499 67.1905 61.23 67.0381 61.0269 66.9062C60.9797 66.9501 60.9313 66.9745 60.8815 66.9794C60.836 66.9778 60.7839 66.9719 60.7253 66.9618C60.6774 66.9494 60.6263 66.9348 60.572 66.9181C60.5176 66.9015 60.4667 66.901 60.4192 66.9167C60.413 66.9406 60.3971 66.9723 60.3716 67.0116C60.295 67.1295 60.1964 67.2239 60.0759 67.2947C59.9662 67.3632 59.8577 67.4371 59.7503 67.5164C59.6321 67.598 59.5228 67.6946 59.4223 67.8064C59.3326 67.9158 59.2494 68.0295 59.1728 68.1474C59.1048 68.2522 59.0421 68.3559 58.9848 68.4585C58.9275 68.561 58.867 68.6614 58.8032 68.7597C58.7053 68.9104 58.6071 69.0329 58.5085 69.1273C58.4143 69.2151 58.3209 69.2942 58.2286 69.3647C58.1363 69.4351 58.0494 69.5044 57.9678 69.5726C57.8906 69.6342 57.8221 69.7109 57.7626 69.8026C57.6349 69.9992 57.5308 70.1738 57.4503 70.3264C57.3698 70.4791 57.3206 70.6195 57.3026 70.7475C57.2889 70.869 57.3077 70.9837 57.3588 71.0914C57.4142 71.1926 57.5172 71.2921 57.6679 71.39C57.7728 71.458 57.932 71.5428 58.1456 71.6442C58.3657 71.7499 58.5932 71.8371 58.828 71.9058C59.0737 71.9722 59.3005 72.003 59.5085 71.9984C59.723 71.998 59.875 71.929 59.9643 71.7914ZM69.3311 68.4704C69.2836 68.4861 69.235 68.4964 69.1852 68.5014C69.1419 68.5106 69.1007 68.5024 69.0614 68.4769C69.0155 68.4471 68.989 68.4019 68.9817 68.3413C68.981 68.285 68.9956 68.2339 69.0254 68.188C69.0296 68.1815 69.0393 68.1738 69.0544 68.1649C69.0694 68.1561 69.0812 68.1451 69.0897 68.132L69.1614 68.1506C69.2139 68.1847 69.2524 68.2329 69.277 68.2955C69.3015 68.358 69.3196 68.4163 69.3311 68.4704ZM67.5814 77.2969L67.5622 77.3263C67.5685 77.3024 67.5758 77.2839 67.5843 77.2708C67.5971 77.2512 67.6077 77.2348 67.6162 77.2217L67.5878 77.287L67.5814 77.2969ZM77.3739 77.2147C77.3101 77.3129 77.2345 77.4222 77.1471 77.5424C77.0597 77.6627 76.9636 77.7819 76.8589 77.9002C76.7607 78.0227 76.6581 78.1377 76.551 78.2452C76.4548 78.3504 76.3605 78.4382 76.2681 78.5087C76.0317 78.6719 75.7786 78.7963 75.5088 78.8818C75.2455 78.9717 74.9968 79.1036 74.7627 79.2776C74.7047 79.3238 74.6065 79.3532 74.468 79.3657C74.3294 79.3782 74.1811 79.3843 74.0229 79.3841C73.8647 79.3838 73.7086 79.3803 73.5547 79.3734C73.4116 79.3643 73.2977 79.3603 73.2132 79.3613C72.6909 79.3481 72.2046 79.2792 71.7546 79.1546C71.3045 79.03 70.8633 78.8273 70.4308 78.5465L70.3718 78.5082C70.3053 78.3811 70.2424 78.2844 70.1831 78.2179C70.1303 78.1557 70.0417 78.0842 69.9172 78.0033C69.7927 77.9225 69.6694 77.847 69.5472 77.777C69.425 77.707 69.3007 77.6402 69.1742 77.5767C69.1241 77.5535 69.0153 77.5201 68.848 77.4766C68.6914 77.4308 68.5219 77.3906 68.3394 77.356C68.1613 77.3148 67.9941 77.2854 67.8378 77.2678C67.6924 77.2478 67.609 77.2543 67.5878 77.287L67.5622 77.3263C67.5456 77.3807 67.547 77.4143 67.5667 77.4271C67.5995 77.4483 67.6396 77.4511 67.6871 77.4354C67.7454 77.4173 67.7942 77.4211 67.8335 77.4466C67.8662 77.4679 67.8818 77.5013 67.8802 77.5468C67.8786 77.5923 67.8661 77.6401 67.8429 77.6903C67.8305 77.7381 67.8094 77.7849 67.7796 77.8308C67.7606 77.8744 67.7447 77.906 67.732 77.9256C67.6086 78.1156 67.4655 78.2929 67.3028 78.4574C67.1444 78.6153 67.0034 78.7893 66.8801 78.9793C66.7567 79.1693 66.63 79.3572 66.5 79.5429C66.3809 79.7264 66.2596 79.9131 66.1362 80.1031C65.9107 80.4504 65.7569 80.7231 65.6748 80.9213C65.5992 81.1237 65.5841 81.3049 65.6293 81.4647C65.6788 81.6179 65.7804 81.7771 65.9341 81.9421C66.092 82.1005 66.2929 82.3148 66.5367 82.5849C66.4787 82.6311 66.4327 82.6804 66.3987 82.7328C66.3476 82.8115 66.3323 82.8853 66.3526 82.9544C66.3837 83.0212 66.4128 83.0913 66.4396 83.1646C66.4773 83.2357 66.5042 83.309 66.5203 83.3847C66.5429 83.4646 66.5223 83.5537 66.4585 83.652C66.4032 83.7372 66.3215 83.7912 66.2134 83.8142C66.0838 83.8418 65.9888 83.8732 65.9285 83.9086C65.8748 83.9483 65.8275 83.9781 65.7866 83.9981C65.7499 84.0116 65.699 84.0111 65.6338 83.9967C65.5729 83.9758 65.4715 83.9239 65.3296 83.8411C65.0024 83.6565 64.6848 83.4642 64.3768 83.2642C64.2589 83.1877 64.1431 83.1078 64.0294 83.0246C63.9115 82.9481 63.7902 82.8693 63.6658 82.7885C63.3512 82.5843 63.0369 82.3941 62.7228 82.218C62.5308 82.112 62.3315 82.0245 62.1248 81.9554C61.9246 81.8907 61.7295 81.7966 61.5395 81.6732C61.3233 81.5328 61.2163 81.3748 61.2185 81.1993C61.2208 81.0237 61.2857 80.8376 61.4133 80.6411C61.5367 80.4511 61.6814 80.3215 61.8475 80.2523C62.0177 80.1766 62.1907 80.1398 62.3662 80.142C62.5526 80.142 62.7348 80.1625 62.913 80.2037C63.0978 80.2492 63.2673 80.2894 63.4215 80.3244C63.5866 80.357 63.7288 80.3748 63.848 80.3777C63.9672 80.3806 64.0545 80.3395 64.1098 80.2543C64.1609 80.1757 64.1934 80.0897 64.2074 79.9963C64.228 79.9073 64.2639 79.8234 64.3149 79.7448C64.3447 79.6989 64.4251 79.6253 64.5561 79.5241C64.687 79.4228 64.8099 79.2837 64.9248 79.1068C64.9716 79.0348 65.0163 78.966 65.0589 78.9005C65.1057 78.8284 65.1492 78.7542 65.1894 78.6778C65.1629 78.6327 65.1589 78.5742 65.1776 78.5025C65.1962 78.4307 65.2203 78.3579 65.2497 78.2838C65.29 78.2075 65.3314 78.1366 65.3739 78.071C65.4207 77.999 65.4569 77.9433 65.4824 77.904C65.6441 77.655 65.82 77.4199 66.0102 77.1988C66.2047 76.9711 66.3828 76.7327 66.5445 76.4837C66.6466 76.3265 66.7367 76.1661 66.8149 76.0027C66.8932 75.8392 66.9833 75.6788 67.0854 75.5216C67.1152 75.4757 67.1496 75.4515 67.1886 75.4488C67.1594 75.3647 67.1725 75.28 67.2278 75.1948C67.2873 75.1031 67.3558 75.0264 67.433 74.9648C67.5169 74.9075 67.5864 74.8362 67.6417 74.751C67.7268 74.62 67.7988 74.4804 67.8577 74.3324C67.9166 74.1843 67.9701 74.0374 68.0182 73.8916C68.0771 73.7436 68.1338 73.5988 68.1885 73.4573C68.2539 73.3135 68.3292 73.1761 68.4143 73.045C68.4654 72.9664 68.5241 72.8974 68.5906 72.8381C68.6636 72.7831 68.7333 72.7259 68.7998 72.6666C68.8771 72.605 68.9489 72.5445 69.0154 72.4852C69.0926 72.4236 69.1589 72.3502 69.2143 72.265C69.3589 72.0423 69.4764 71.8111 69.5667 71.5717C69.6678 71.3299 69.7907 71.0977 69.9354 70.8749C70.0205 70.7439 70.1116 70.668 70.2089 70.6473C70.317 70.6244 70.4198 70.6166 70.5174 70.6241C70.615 70.6316 70.7039 70.6381 70.7842 70.6437C70.8752 70.6469 70.9442 70.6125 70.991 70.5404C71.0208 70.4945 71.0234 70.4403 70.9988 70.3778C70.9807 70.3195 70.9521 70.2776 70.9127 70.2521C70.821 70.1925 70.7232 70.1709 70.6194 70.1873C70.5156 70.2037 70.4211 70.1843 70.3359 70.129C70.2835 70.0949 70.2556 70.0303 70.2523 69.935C70.2598 69.8374 70.2629 69.7322 70.2615 69.6196C70.2667 69.5112 70.2578 69.4029 70.2349 69.2948C70.2227 69.1845 70.174 69.1016 70.0889 69.0463C70.0168 68.9995 69.9383 68.9625 69.8535 68.9354C69.7687 68.9082 69.6902 68.8713 69.6181 68.8245C69.5198 68.7606 69.4725 68.6973 69.4761 68.6344C69.4796 68.5715 69.5048 68.504 69.5516 68.432C69.5729 68.3992 69.5942 68.3664 69.6155 68.3337C69.6433 68.3052 69.6678 68.2745 69.6891 68.2418C69.7232 68.1894 69.7495 68.1273 69.7681 68.0555C69.7868 67.9838 69.7601 67.9245 69.688 67.8777C69.6487 67.8522 69.6051 67.8332 69.5573 67.8208C69.7256 67.7624 69.9043 67.7527 70.0932 67.7916C70.2865 67.8239 70.4757 67.8769 70.6607 67.9505C70.8524 68.0284 71.0376 68.1161 71.2165 68.2136C71.4062 68.3089 71.5804 68.3848 71.7393 68.4414C71.8002 68.4623 71.8525 68.4822 71.896 68.5012C71.9462 68.5245 71.9974 68.5531 72.0498 68.5871C72.1678 68.6637 72.2739 68.7513 72.3683 68.8498C72.4735 68.9461 72.5817 69.0304 72.6931 69.1027C72.8176 69.1836 72.9329 69.2212 73.039 69.2156C73.156 69.2076 73.2668 69.2377 73.3717 69.3058C73.4071 69.3661 73.4546 69.4435 73.5142 69.5381C73.5781 69.6262 73.6363 69.6873 73.6887 69.7213C73.9115 69.866 74.1395 69.9954 74.3727 70.1096C74.606 70.2238 74.8307 70.3511 75.0469 70.4915C75.2828 70.6447 75.4876 70.8243 75.6612 71.0302C75.8457 71.2339 76.0205 71.4452 76.1857 71.6642C76.3574 71.8875 76.5258 72.1087 76.691 72.3277C76.8562 72.5468 77.0406 72.7504 77.2444 72.9387C77.3145 73.0028 77.3708 73.0812 77.413 73.1739C77.4619 73.2708 77.5011 73.3755 77.5306 73.4878C77.5644 73.5936 77.5927 73.7005 77.6157 73.8086C77.6452 73.9209 77.6746 74.0191 77.7038 74.1033C77.7487 74.2349 77.7676 74.3636 77.7604 74.4894C77.7598 74.6194 77.7538 74.7506 77.7424 74.8829C77.7418 75.0129 77.7412 75.143 77.7406 75.273C77.7508 75.4007 77.7838 75.5293 77.8395 75.6586C77.893 75.7771 77.9097 75.9091 77.8898 76.0545C77.8741 76.1934 77.8357 76.3315 77.7745 76.4687C77.7199 76.6103 77.6554 76.7454 77.5811 76.8741C77.5068 77.0029 77.4378 77.1164 77.3739 77.2147ZM75.363 76.7611C75.6353 76.3417 75.8166 75.9192 75.9068 75.4934C76.0078 75.0652 76.0158 74.6513 75.9308 74.2514C75.8566 73.8492 75.6939 73.4687 75.4425 73.1099C75.1912 72.751 74.8558 72.4354 74.4365 72.1631C74.371 72.1206 74.2727 72.0567 74.1416 71.9716C74.0106 71.8865 73.8643 71.7962 73.7028 71.7006C73.5413 71.6051 73.3711 71.5085 73.1922 71.411C73.0134 71.3135 72.8434 71.231 72.6822 71.1636C72.5253 71.0897 72.3784 71.0362 72.2415 71.0032C72.1154 70.9678 72.0189 70.9657 71.9521 70.9969C71.8594 71.0392 71.7365 71.0851 71.5832 71.1346C71.4408 71.1818 71.344 71.2447 71.2929 71.3234C71.2461 71.3954 71.2169 71.4836 71.2051 71.5877C71.1976 71.6853 71.1891 71.7916 71.1797 71.9066C71.1768 72.0258 71.1652 72.144 71.145 72.2613C71.1355 72.3762 71.101 72.4796 71.0414 72.5713C70.9848 72.5438 70.925 72.5283 70.8621 72.5247C70.8035 72.5146 70.755 72.539 70.7167 72.598C70.6529 72.6963 70.6122 72.8235 70.5945 72.9797C70.5835 73.1402 70.5375 73.2827 70.4567 73.4072C70.3971 73.4989 70.3306 73.5583 70.2573 73.5851C70.1882 73.6055 70.1201 73.6171 70.0529 73.6201C69.9858 73.6231 69.9219 73.6282 69.8613 73.6354C69.8008 73.6426 69.7534 73.6725 69.7194 73.7249C69.6811 73.7839 69.6599 73.9098 69.6557 74.1027C69.6515 74.2956 69.6508 74.5047 69.6535 74.7301C69.6605 74.9488 69.664 75.1514 69.6641 75.3378C69.6684 75.5176 69.6621 75.6206 69.645 75.6468C69.7895 75.7686 69.9371 75.8784 70.0878 75.9762C70.1861 76.0401 70.3488 76.141 70.5758 76.2792C70.8136 76.415 71.0613 76.5572 71.3188 76.7058C71.5805 76.8478 71.8259 76.9792 72.0549 77.1C72.2838 77.2207 72.444 77.2968 72.5354 77.3282C72.6334 77.3639 72.7115 77.3727 72.7698 77.3546C72.8281 77.3366 72.8864 77.3186 72.9446 77.3005C73.0029 77.2825 73.0635 77.2753 73.1264 77.2788C73.2001 77.2801 73.2926 77.3169 73.404 77.3892C73.6071 77.5212 73.8009 77.5957 73.9853 77.613C74.1762 77.6346 74.3526 77.614 74.5144 77.5514C74.6804 77.4822 74.8308 77.3796 74.9657 77.2437C75.1114 77.1054 75.2438 76.9445 75.363 76.7611ZM80.4762 75.7081C80.4287 75.7238 80.3801 75.7342 80.3303 75.7391C80.2871 75.7483 80.2458 75.7401 80.2065 75.7146C80.1606 75.6848 80.1341 75.6396 80.1269 75.579C80.1262 75.5227 80.1407 75.4716 80.1705 75.4257C80.1748 75.4192 80.1844 75.4115 80.1995 75.4026C80.2146 75.3938 80.2263 75.3828 80.2349 75.3697L80.3066 75.3884C80.359 75.4224 80.3975 75.4707 80.4221 75.5332C80.4467 75.5958 80.4647 75.6541 80.4762 75.7081ZM78.7265 84.5346L78.7074 84.5641C78.7136 84.5402 78.721 84.5217 78.7295 84.5086C78.7422 84.4889 78.7529 84.4725 78.7614 84.4594L78.7329 84.5248L78.7265 84.5346ZM88.5191 84.4524C88.4553 84.5507 88.3797 84.6599 88.2923 84.7802C88.2049 84.9004 88.1088 85.0197 88.004 85.138C87.9058 85.2605 87.8032 85.3755 87.6961 85.483C87.5999 85.5881 87.5056 85.6759 87.4133 85.7464C87.1769 85.9096 86.9238 86.034 86.6539 86.1196C86.3906 86.2094 86.1419 86.3414 85.9078 86.5154C85.8499 86.5616 85.7516 86.5909 85.6131 86.6034C85.4746 86.6159 85.3262 86.6221 85.168 86.6218C85.0098 86.6215 84.8538 86.618 84.6998 86.6112C84.5567 86.6021 84.4429 86.598 84.3584 86.5991C83.836 86.5858 83.3498 86.5169 82.8997 86.3923C82.4496 86.2677 82.0084 86.065 81.576 85.7842L81.517 85.7459C81.4505 85.6189 81.3875 85.5221 81.3282 85.4556C81.2755 85.3934 81.1868 85.3219 81.0624 85.2411C80.9379 85.1602 80.8145 85.0848 80.6923 85.0147C80.5701 84.9447 80.4458 84.8779 80.3194 84.8145C80.2692 84.7912 80.1605 84.7579 79.9931 84.7144C79.8365 84.6686 79.667 84.6284 79.4846 84.5937C79.3064 84.5525 79.1392 84.5231 78.983 84.5055C78.8375 84.4856 78.7542 84.492 78.7329 84.5248L78.7074 84.5641C78.6907 84.6185 78.6922 84.652 78.7118 84.6648C78.7446 84.6861 78.7847 84.6888 78.8322 84.6731C78.8905 84.6551 78.9393 84.6588 78.9786 84.6843C79.0114 84.7056 79.0269 84.739 79.0253 84.7845C79.0237 84.8301 79.0113 84.8779 78.9881 84.928C78.9756 84.9758 78.9545 85.0227 78.9247 85.0685C78.9058 85.1121 78.8899 85.1437 78.8771 85.1634C78.7537 85.3534 78.6107 85.5306 78.448 85.6951C78.2895 85.853 78.1486 86.027 78.0252 86.217C77.9018 86.407 77.7751 86.5949 77.6452 86.7807C77.526 86.9641 77.4048 87.1509 77.2814 87.3409C77.0559 87.6881 76.9021 87.9609 76.8199 88.159C76.7444 88.3615 76.7292 88.5426 76.7745 88.7024C76.824 88.8557 76.9256 89.0148 77.0793 89.1798C77.2372 89.3383 77.438 89.5525 77.6818 89.8226C77.6239 89.8688 77.5779 89.9181 77.5438 89.9706C77.4928 90.0492 77.4774 90.1231 77.4978 90.1922C77.5289 90.259 77.5579 90.329 77.5848 90.4024C77.6225 90.4734 77.6494 90.5468 77.6655 90.6224C77.6881 90.7023 77.6675 90.7914 77.6037 90.8897C77.5484 90.9749 77.4667 91.029 77.3586 91.0519C77.2289 91.0795 77.1339 91.111 77.0737 91.1464C77.02 91.186 76.9727 91.2159 76.9317 91.2359C76.8951 91.2493 76.8441 91.2488 76.779 91.2344C76.718 91.2135 76.6166 91.1616 76.4748 91.0788C76.1475 90.8943 75.8299 90.702 75.522 90.502C75.404 90.4254 75.2882 90.3455 75.1745 90.2624C75.0566 90.1858 74.9354 90.1071 74.8109 90.0262C74.4964 89.822 74.1821 89.6318 73.8679 89.4558C73.6759 89.3497 73.4766 89.2622 73.2699 89.1932C73.0698 89.1284 72.8747 89.0343 72.6847 88.9109C72.4685 88.7705 72.3615 88.6125 72.3637 88.437C72.3659 88.2614 72.4308 88.0754 72.5585 87.8788C72.6819 87.6888 72.8266 87.5592 72.9926 87.49C73.1629 87.4143 73.3358 87.3776 73.5114 87.3798C73.6977 87.3797 73.88 87.4003 74.0582 87.4415C74.2429 87.4869 74.4124 87.5271 74.5667 87.5621C74.7318 87.5948 74.8739 87.6126 74.9931 87.6155C75.1124 87.6184 75.1996 87.5772 75.2549 87.4921C75.306 87.4134 75.3385 87.3274 75.3526 87.2341C75.3732 87.145 75.409 87.0611 75.4601 86.9825C75.4899 86.9366 75.5702 86.8631 75.7012 86.7618C75.8322 86.6606 75.9551 86.5215 76.07 86.3446C76.1168 86.2725 76.1615 86.2037 76.204 86.1382C76.2508 86.0661 76.2943 85.9919 76.3346 85.9156C76.308 85.8704 76.3041 85.8119 76.3227 85.7402C76.3414 85.6685 76.3654 85.5956 76.3949 85.5216C76.4351 85.4452 76.4765 85.3743 76.5191 85.3088C76.5659 85.2367 76.602 85.181 76.6276 85.1417C76.7893 84.8927 76.9652 84.6577 77.1554 84.4365C77.3498 84.2088 77.5279 83.9705 77.6896 83.7215C77.7917 83.5642 77.8819 83.4039 77.9601 83.2404C78.0383 83.0769 78.1285 82.9166 78.2306 82.7593C78.2604 82.7135 78.2948 82.6892 78.3337 82.6866C78.3045 82.6024 78.3176 82.5178 78.3729 82.4326C78.4325 82.3408 78.5009 82.2642 78.5782 82.2026C78.662 82.1452 78.7316 82.074 78.7869 81.9888C78.872 81.8577 78.944 81.7182 79.0029 81.5701C79.0618 81.4221 79.1152 81.2752 79.1633 81.1294C79.2222 80.9813 79.279 80.8365 79.3336 80.695C79.3991 80.5512 79.4743 80.4138 79.5594 80.2828C79.6105 80.2041 79.6693 80.1352 79.7357 80.0759C79.8087 80.0208 79.8785 79.9636 79.9449 79.9043C80.0222 79.8427 80.0941 79.7822 80.1605 79.7229C80.2378 79.6613 80.3041 79.5879 80.3594 79.5028C80.5041 79.28 80.6216 79.0489 80.7118 78.8094C80.8129 78.5677 80.9358 78.3354 81.0805 78.1126C81.1656 77.9816 81.2568 77.9057 81.3541 77.8851C81.4621 77.8621 81.565 77.8544 81.6626 77.8619C81.7602 77.8693 81.8491 77.8759 81.9293 77.8814C82.0204 77.8846 82.0893 77.8502 82.1361 77.7781C82.1659 77.7323 82.1685 77.6781 82.1439 77.6155C82.1259 77.5572 82.0972 77.5153 82.0579 77.4898C81.9662 77.4302 81.8684 77.4086 81.7646 77.4251C81.6607 77.4415 81.5663 77.422 81.4811 77.3667C81.4287 77.3327 81.4008 77.268 81.3975 77.1727C81.405 77.0751 81.408 76.97 81.4067 76.8573C81.4119 76.7489 81.403 76.6407 81.38 76.5326C81.3679 76.4222 81.3192 76.3394 81.234 76.2841C81.1619 76.2373 81.0835 76.2003 80.9986 76.1731C80.9138 76.146 80.8353 76.109 80.7633 76.0622C80.665 75.9984 80.6176 75.935 80.6212 75.8721C80.6248 75.8092 80.65 75.7418 80.6968 75.6697C80.7181 75.6369 80.7393 75.6042 80.7606 75.5714C80.7884 75.5429 80.813 75.5123 80.8343 75.4795C80.8683 75.4271 80.8946 75.365 80.9133 75.2933C80.9319 75.2216 80.9052 75.1623 80.8331 75.1155C80.7938 75.0899 80.7502 75.071 80.7024 75.0585C80.8707 75.0002 81.0494 74.9904 81.2384 75.0293C81.4316 75.0617 81.6208 75.1147 81.8059 75.1883C81.9975 75.2661 82.1828 75.3538 82.3616 75.4514C82.5513 75.5466 82.7256 75.6225 82.8844 75.6791C82.9454 75.7 82.9976 75.72 83.0412 75.739C83.0913 75.7622 83.1426 75.7908 83.195 75.8249C83.3129 75.9015 83.4191 75.989 83.5134 76.0876C83.6186 76.1838 83.7269 76.2681 83.8383 76.3404C83.9628 76.4213 84.0781 76.4589 84.1842 76.4533C84.3011 76.4454 84.412 76.4755 84.5168 76.5436C84.5522 76.6038 84.5997 76.6812 84.6594 76.7759C84.7233 76.8639 84.7814 76.925 84.8339 76.959C85.0566 77.1037 85.2846 77.2331 85.5179 77.3474C85.7511 77.4616 85.9758 77.5889 86.1921 77.7293C86.4279 77.8825 86.6327 78.062 86.8064 78.268C86.9909 78.4716 87.1657 78.6829 87.3308 78.902C87.5026 79.1253 87.671 79.3464 87.8361 79.5655C88.0013 79.7845 88.1858 79.9882 88.3896 80.1764C88.4597 80.2406 88.5159 80.319 88.5582 80.4116C88.607 80.5086 88.6462 80.6132 88.6757 80.7255C88.7095 80.8313 88.7379 80.9382 88.7609 81.0463C88.7904 81.1586 88.8197 81.2569 88.8489 81.341C88.8938 81.4727 88.9127 81.6014 88.9056 81.7271C88.905 81.8572 88.899 81.9883 88.8876 82.1207C88.887 82.2507 88.8864 82.3807 88.8858 82.5107C88.896 82.6385 88.9289 82.767 88.9847 82.8963C89.0381 83.0149 89.0549 83.1469 89.0349 83.2923C89.0193 83.4312 88.9809 83.5692 88.9197 83.7065C88.865 83.848 88.8006 83.9831 88.7263 84.1119C88.652 84.2406 88.5829 84.3541 88.5191 84.4524ZM86.5081 83.9988C86.7804 83.5795 86.9617 83.1569 87.0519 82.7311C87.1529 82.303 87.161 81.889 87.076 81.4891C87.0018 81.087 86.839 80.7065 86.5877 80.3476C86.3363 79.9888 86.001 79.6732 85.5816 79.4009C85.5161 79.3583 85.4178 79.2945 85.2868 79.2094C85.1557 79.1243 85.0095 79.034 84.848 78.9384C84.6864 78.8428 84.5163 78.7463 84.3374 78.6487C84.1585 78.5512 83.9885 78.4688 83.8273 78.4014C83.6704 78.3274 83.5235 78.2739 83.3866 78.2409C83.2605 78.2056 83.164 78.2035 83.0972 78.2346C83.0046 78.2769 82.8816 78.3228 82.7284 78.3723C82.5859 78.4196 82.4891 78.4825 82.4381 78.5611C82.3913 78.6332 82.362 78.7213 82.3503 78.8255C82.3428 78.9231 82.3343 79.0293 82.3248 79.1443C82.3219 79.2635 82.3104 79.3818 82.2901 79.499C82.2807 79.614 82.2462 79.7173 82.1866 79.8091C82.1299 79.7816 82.0701 79.766 82.0072 79.7625C81.9486 79.7523 81.9002 79.7767 81.8619 79.8357C81.798 79.934 81.7573 80.0613 81.7397 80.2175C81.7286 80.378 81.6827 80.5205 81.6018 80.645C81.5423 80.7367 81.4758 80.796 81.4024 80.8229C81.3333 80.8432 81.2652 80.8549 81.1981 80.8578C81.1309 80.8608 81.0671 80.8659 81.0065 80.8732C80.9459 80.8804 80.8986 80.9102 80.8645 80.9626C80.8263 81.0216 80.805 81.1475 80.8008 81.3404C80.7967 81.5334 80.7959 81.7425 80.7986 81.9678C80.8056 82.1866 80.8091 82.3892 80.8092 82.5755C80.8135 82.7553 80.8072 82.8583 80.7902 82.8845C80.9347 83.0063 81.0823 83.1161 81.233 83.214C81.3312 83.2778 81.4939 83.3788 81.7209 83.5169C81.9588 83.6527 82.2064 83.7949 82.4639 83.9435C82.7257 84.0855 82.971 84.2169 83.2 84.3377C83.429 84.4585 83.5892 84.5345 83.6806 84.5659C83.7785 84.6016 83.8566 84.6104 83.9149 84.5924C83.9732 84.5743 84.0315 84.5563 84.0898 84.5383C84.1481 84.5202 84.2087 84.513 84.2716 84.5166C84.3452 84.5178 84.4378 84.5547 84.5492 84.627C84.7523 84.7589 84.946 84.8335 85.1304 84.8508C85.3214 84.8723 85.4978 84.8518 85.6595 84.7891C85.8255 84.72 85.976 84.6174 86.1109 84.4814C86.2566 84.3431 86.389 84.1823 86.5081 83.9988ZM96.0383 101.534C96 101.593 95.9457 101.669 95.8753 101.763C95.8049 101.857 95.7296 101.902 95.6494 101.896C95.5626 101.886 95.4838 101.914 95.4131 101.98C95.3489 102.05 95.2913 102.125 95.2403 102.203C95.1892 102.282 95.1391 102.352 95.09 102.413C95.0452 102.468 94.9998 102.48 94.954 102.451C94.9212 102.429 94.8992 102.406 94.8881 102.38C94.8812 102.347 94.8614 102.321 94.8286 102.299C94.7959 102.278 94.7525 102.273 94.6984 102.285C94.6444 102.296 94.6067 102.318 94.5855 102.351C94.5642 102.384 94.557 102.416 94.5639 102.449C94.5816 102.479 94.5798 102.51 94.5585 102.543C94.5415 102.569 94.4711 102.57 94.3473 102.546C94.2277 102.515 94.095 102.475 93.9493 102.427C93.7993 102.385 93.6589 102.336 93.5282 102.279C93.3932 102.229 93.3061 102.191 93.2668 102.165C93.0309 102.012 92.8227 101.816 92.6421 101.578C92.4616 101.34 92.2833 101.112 92.1073 100.895C91.8983 100.629 91.7963 100.349 91.8014 100.054C91.8131 99.7634 91.8745 99.468 91.9858 99.1676C92.097 98.8672 92.2256 98.5688 92.3715 98.2724C92.524 97.9801 92.6312 97.7004 92.693 97.4331C92.724 97.3136 92.7608 97.221 92.8034 97.1555C92.8459 97.09 92.8865 97.0418 92.9252 97.011C92.9746 96.9779 93.0177 96.9546 93.0543 96.9412C93.1018 96.9255 93.1385 96.912 93.1644 96.9009C93.2011 96.8874 93.2279 96.8676 93.2449 96.8414C93.296 96.7628 93.3241 96.6692 93.3293 96.5608C93.3345 96.4524 93.3796 96.3327 93.4647 96.2017C93.5116 96.1296 93.5562 96.0608 93.5988 95.9953C93.6521 95.9274 93.7022 95.8575 93.749 95.7854C93.9065 95.543 94.0133 95.3283 94.0696 95.1412C94.1324 94.9585 94.167 94.776 94.1735 94.5939C94.1865 94.4161 94.1832 94.2276 94.1634 94.0285C94.1502 93.8336 94.141 93.604 94.1356 93.3397C94.0681 93.3145 94.0016 93.2806 93.9361 93.2381C93.8772 93.1998 93.8149 93.1594 93.7494 93.1168C93.6183 93.0317 93.4916 92.9401 93.369 92.8419C93.253 92.7479 93.1295 92.6584 92.9985 92.5733C92.8609 92.4839 92.7115 92.4056 92.5503 92.3382C92.3957 92.275 92.2464 92.1966 92.1022 92.103C92.0105 92.0435 91.9273 91.9708 91.8525 91.885C91.7821 91.7927 91.701 91.7167 91.6093 91.6572C91.4979 91.5848 91.3716 91.5354 91.2304 91.5089C91.0935 91.4759 90.9537 91.4689 90.8109 91.488C90.6723 91.5005 90.5396 91.54 90.4125 91.6066C90.2963 91.6708 90.1998 91.7619 90.1233 91.8798L89.919 92.1943C89.5488 92.7644 89.1359 93.2927 88.6802 93.7792C88.6118 93.8559 88.5433 93.9325 88.4749 94.0092C88.4108 94.0793 88.3489 94.1602 88.2893 94.252C88.1149 94.5206 88.0269 94.7709 88.0253 95.0028C88.0303 95.2389 88.0774 95.4604 88.1666 95.6674C88.26 95.8678 88.3805 96.0625 88.5279 96.2514C88.6754 96.4403 88.8044 96.6218 88.9148 96.796C89.0295 96.9637 89.1074 97.1307 89.1484 97.297C89.1959 97.4677 89.1644 97.6381 89.0538 97.8085C89.0112 97.874 88.9577 97.9278 88.8932 97.9697C88.8395 98.0094 88.7792 98.0447 88.7124 98.0759C88.5379 98.1582 88.3879 98.2098 88.2625 98.2308C88.1479 98.2495 88.0319 98.2488 87.9147 98.2285C87.804 98.2125 87.6898 98.1803 87.5722 98.1319C87.4546 98.0835 87.3131 98.0288 87.1477 97.968C87.0193 97.9218 86.8907 97.8616 86.762 97.7873C86.6355 97.7239 86.5133 97.6538 86.3954 97.5772C86.2119 97.4581 86.0466 97.3181 85.8995 97.1574C85.7481 97.0032 85.5807 96.8665 85.3972 96.7474C85.2597 96.658 85.1103 96.5797 84.9491 96.5123C84.7987 96.4426 84.6463 96.3761 84.4916 96.313C84.3328 96.2564 84.1782 96.1932 84.0278 96.1235C83.8732 96.0604 83.7271 95.9842 83.5895 95.8948C83.4978 95.8352 83.4026 95.7594 83.304 95.6675C83.2119 95.5797 83.137 95.4799 83.0793 95.3679C83.0174 95.2624 82.9792 95.1491 82.9647 95.028C82.9568 94.911 82.989 94.7969 83.0614 94.6855C83.1209 94.5938 83.197 94.5268 83.2897 94.4845C83.3824 94.4422 83.4818 94.4182 83.5879 94.4126C83.7006 94.4113 83.8101 94.4219 83.9166 94.4444C84.023 94.467 84.1177 94.5005 84.2006 94.545C84.2769 94.5853 84.338 94.6203 84.3839 94.6501C84.4363 94.6841 84.4831 94.7052 84.5244 94.7134C84.5722 94.7258 84.6243 94.7317 84.6806 94.731C84.737 94.7303 84.8083 94.7208 84.8948 94.7024C84.9488 94.6909 84.9953 94.6839 85.0343 94.6812C85.0798 94.6829 85.1255 94.6986 85.1714 94.7283C85.2042 94.7496 85.2348 94.7742 85.2633 94.802C85.2918 94.8298 85.3224 94.8544 85.3552 94.8756C85.4076 94.9097 85.4707 94.9273 85.5444 94.9286C85.733 94.9394 85.8973 94.9016 86.0371 94.8154C86.1769 94.7292 86.3034 94.6204 86.4167 94.4891C86.5342 94.3511 86.644 94.2035 86.7461 94.0463C86.8548 93.8933 86.9681 93.7619 87.0859 93.6521C87.2123 93.5293 87.3159 93.4056 87.3968 93.2811C87.5457 93.0518 87.663 92.8066 87.7487 92.5455C87.841 92.2887 87.9615 92.0456 88.1105 91.8163C88.2892 91.5411 88.4875 91.2787 88.7056 91.029C88.9236 90.7794 89.122 90.517 89.3007 90.2418C89.3475 90.1697 89.3889 90.0988 89.4249 90.029C89.4674 89.9635 89.5121 89.8947 89.5589 89.8226C89.8653 89.3508 90.1969 88.9048 90.5537 88.4844C90.9105 88.0641 91.2421 87.618 91.5484 87.1463C91.6335 87.0152 91.7132 86.8853 91.7875 86.7566C91.8618 86.6279 91.935 86.4937 92.007 86.3542C92.0619 86.2408 92.1318 86.1045 92.2166 85.9453C92.3056 85.7796 92.3902 85.6063 92.4703 85.4255C92.5505 85.2446 92.6208 85.0574 92.6814 84.8638C92.7484 84.6745 92.7831 84.4921 92.7853 84.3165C92.7983 84.1387 92.7747 83.9743 92.7143 83.8233C92.6648 83.67 92.5647 83.5445 92.414 83.4466C92.3812 83.4253 92.3431 83.4052 92.2995 83.3862C92.2625 83.3715 92.2276 83.3535 92.1948 83.3322C92.1228 83.2854 92.0766 83.2275 92.0562 83.1584C92.0402 83.0827 92.0382 83.0069 92.0502 82.9309C92.0666 82.8484 92.0916 82.7668 92.1253 82.6862C92.1656 82.6099 92.2027 82.5455 92.2367 82.4931C92.3814 82.2704 92.5435 82.1427 92.7229 82.1102C92.909 82.082 93.0966 82.1014 93.286 82.1684C93.4819 82.2398 93.6727 82.3404 93.8584 82.4703C94.055 82.598 94.2329 82.7042 94.3921 82.789C94.571 82.8865 94.7572 82.9655 94.9508 83.026C95.1509 83.0908 95.3394 83.1806 95.5163 83.2955C95.7719 83.4614 96.0029 83.658 96.2093 83.8852C96.4157 84.1124 96.6467 84.309 96.9022 84.475C97.1119 84.6111 97.3257 84.7266 97.5435 84.8215C97.7656 84.9099 97.9962 84.9851 98.2353 85.0472C98.3549 85.0783 98.4539 85.1194 98.5326 85.1704C98.7881 85.3364 99.0191 85.5329 99.2255 85.7601C99.4319 85.9874 99.6554 86.1884 99.8959 86.3632C100.058 86.4869 100.213 86.6345 100.363 86.8061C100.516 86.9711 100.642 87.1505 100.74 87.3444C100.848 87.5359 100.917 87.7388 100.945 87.953C100.974 88.1672 100.945 88.3766 100.859 88.5814C100.806 88.7055 100.782 88.8434 100.786 88.995C100.794 89.1401 100.81 89.2808 100.833 89.417C100.867 89.551 100.89 89.6731 100.902 89.7835C100.925 89.8916 100.922 89.9685 100.892 90.0144C100.862 90.0603 100.816 90.0814 100.753 90.0778C100.701 90.0719 100.658 90.0952 100.624 90.1476C100.603 90.1804 100.599 90.2292 100.613 90.294C100.633 90.3631 100.652 90.4409 100.671 90.5274C100.689 90.6138 100.697 90.7026 100.694 90.7936C100.701 90.8824 100.682 90.9628 100.635 91.0349C100.571 91.1332 100.481 91.2003 100.364 91.2364C100.258 91.2702 100.174 91.3362 100.11 91.4345L100.11 91.4767L100.273 91.5268L100.28 91.5592C100.238 91.6811 100.176 91.7988 100.093 91.9125C100.02 92.0239 99.9544 92.1255 99.8949 92.2172C99.814 92.3417 99.7214 92.4771 99.617 92.6236C99.5126 92.77 99.4004 92.9068 99.2806 93.0339C99.1608 93.1611 99.0343 93.2699 98.901 93.3603C98.7677 93.4508 98.6286 93.5001 98.4835 93.5084C98.3947 93.5159 98.3091 93.5115 98.2265 93.4952C98.1548 93.4766 98.0788 93.4645 97.9986 93.4589C97.9226 93.4469 97.8468 93.4489 97.7711 93.4649C97.6955 93.481 97.619 93.5199 97.5417 93.5815C97.4366 93.6716 97.3129 93.7402 97.1704 93.7875C97.028 93.8347 96.8822 93.8798 96.7332 93.9227C96.595 93.9634 96.4613 94.0116 96.3319 94.0673C96.2091 94.1273 96.1094 94.2163 96.0328 94.3342C95.9095 94.5242 95.8372 94.7288 95.816 94.9479C95.8013 95.1713 95.7747 95.3916 95.7362 95.6087C95.6933 95.8324 95.6288 96.0467 95.5424 96.2514C95.4602 96.4496 95.3662 96.6447 95.2601 96.8366C95.1606 97.0328 95.0546 97.2248 94.942 97.4125C94.836 97.6045 94.7365 97.8007 94.6436 98.0012C94.6056 98.0883 94.55 98.2385 94.4767 98.4518C94.4143 98.6627 94.3595 98.8833 94.3124 99.1136C94.2654 99.3439 94.243 99.5576 94.2454 99.7547C94.2478 99.9519 94.2981 100.082 94.3964 100.146C94.4816 100.202 94.5801 100.2 94.6921 100.143C94.8041 100.085 94.9213 100.012 95.0438 99.9239C95.1728 99.84 95.3029 99.7615 95.4343 99.6884C95.5721 99.6196 95.7062 99.5995 95.8366 99.6283C96.0269 99.7799 96.1685 99.9277 96.2612 100.072C96.3605 100.22 96.4122 100.37 96.4162 100.522C96.4244 100.667 96.3927 100.823 96.3211 100.991C96.2602 101.156 96.166 101.337 96.0383 101.534ZM98.9716 90.5836C99.0311 90.4919 99.0796 90.3743 99.1168 90.2308C99.1584 90.0808 99.1901 89.9244 99.212 89.7616C99.2338 89.5988 99.2449 89.4383 99.2452 89.2801C99.252 89.1262 99.246 88.9919 99.2273 88.8773C99.0897 88.7879 99.0044 88.7185 98.9713 88.6691C98.9382 88.6197 98.9236 88.5776 98.9275 88.5429C98.9357 88.5016 98.9427 88.4549 98.9486 88.4028C98.961 88.355 98.9406 88.2859 98.8876 88.1955C98.7306 87.9352 98.5795 87.716 98.4343 87.5379C98.2892 87.3598 98.0888 87.1878 97.8333 87.0218C97.7612 86.975 97.6764 86.9479 97.5788 86.9404C97.4877 86.9371 97.416 86.9185 97.3636 86.8845C97.2129 86.7866 97.0761 86.6745 96.9532 86.5481C96.8346 86.4152 96.6999 86.2998 96.5492 86.2019C96.333 86.0615 96.0932 85.9431 95.8299 85.8465C95.6536 85.788 95.4795 85.7262 95.3076 85.6611C95.1356 85.596 94.9693 85.5579 94.8089 85.5468C94.6484 85.5357 94.4926 85.5604 94.3417 85.6207C94.1973 85.6853 94.0613 85.8158 93.9336 86.0124C93.8017 86.2155 93.6916 86.4281 93.6032 86.6502C93.5215 86.8766 93.4146 87.0913 93.2827 87.2944C93.2189 87.3927 93.1408 87.4771 93.0485 87.5475C92.9627 87.6222 92.8736 87.6948 92.7813 87.7653C92.6932 87.8292 92.603 87.8963 92.5107 87.9668C92.4249 88.0415 92.3501 88.128 92.2863 88.2263C92.2097 88.3442 92.1408 88.4718 92.0796 88.6091C92.0292 88.744 92.0016 88.8798 91.9968 89.0164C91.9962 89.1464 92.0226 89.2707 92.076 89.3892C92.136 89.512 92.2381 89.6202 92.3822 89.7138C92.5198 89.8032 92.6679 89.8621 92.8264 89.8905C92.9892 89.9124 93.1394 89.968 93.277 90.0574C93.3491 90.1042 93.4051 90.1685 93.4451 90.2504C93.4893 90.3257 93.5314 90.4043 93.5714 90.4861C93.6114 90.568 93.6547 90.652 93.7012 90.7381C93.752 90.8177 93.82 90.8851 93.9052 90.9404C93.9707 90.983 94.0372 91.0168 94.1047 91.042C94.1764 91.0607 94.247 91.0739 94.3165 91.0817C94.6378 91.132 94.9637 91.2039 95.2942 91.2975C95.6355 91.3887 95.9437 91.5237 96.2189 91.7024C96.291 91.7492 96.4017 91.7652 96.5511 91.7504C96.7046 91.729 96.8743 91.6902 97.06 91.6338C97.2499 91.5708 97.4462 91.498 97.6489 91.4154C97.8559 91.3262 98.0476 91.2318 98.2241 91.1322C98.4114 91.0302 98.5684 90.9319 98.6951 90.8372C98.8326 90.7402 98.9248 90.6557 98.9716 90.5836ZM111.129 104.138C111.04 104.275 110.939 104.401 110.828 104.515C110.721 104.623 110.608 104.731 110.491 104.841C110.377 104.944 110.264 105.053 110.153 105.167C110.042 105.281 109.944 105.403 109.859 105.534C109.825 105.587 109.794 105.641 109.766 105.698C109.75 105.752 109.724 105.806 109.69 105.858C109.605 105.989 109.501 106.099 109.379 106.187C109.263 106.279 109.139 106.362 109.008 106.435C108.892 106.5 108.793 106.58 108.712 106.676C108.637 106.777 108.563 106.877 108.488 106.978C108.42 107.083 108.342 107.181 108.254 107.273C108.167 107.365 108.063 107.438 107.945 107.492C107.889 107.549 107.806 107.634 107.694 107.748C107.594 107.86 107.51 107.931 107.443 107.962C107.428 107.971 107.402 107.968 107.365 107.954C107.328 107.939 107.288 107.922 107.244 107.903C107.201 107.884 107.15 107.869 107.091 107.859C107.033 107.849 106.974 107.853 106.916 107.871C106.862 107.883 106.806 107.912 106.748 107.958C106.69 108.004 106.629 108.048 106.564 108.09C106.5 108.132 106.433 108.163 106.364 108.183C106.305 108.201 106.247 108.191 106.188 108.153C106.129 108.115 106.083 108.071 106.05 108.021C106.021 107.965 105.99 107.913 105.957 107.863C105.928 107.807 105.895 107.758 105.858 107.715C105.82 107.672 105.762 107.639 105.684 107.616C105.695 107.642 105.681 107.679 105.64 107.727C105.604 107.769 105.572 107.818 105.544 107.875C105.523 107.936 105.521 108.004 105.537 108.08C105.553 108.155 105.62 108.231 105.738 108.308C105.797 108.346 105.855 108.379 105.911 108.407C105.975 108.438 106.04 108.467 106.107 108.492C105.961 108.602 105.825 108.676 105.697 108.715C105.574 108.747 105.445 108.765 105.311 108.771C105.188 108.775 105.056 108.778 104.915 108.779C104.785 108.779 104.642 108.798 104.486 108.837C104.303 108.876 104.15 108.874 104.028 108.832C103.913 108.795 103.773 108.751 103.61 108.701C103.423 108.645 103.276 108.628 103.168 108.651C103.06 108.674 102.947 108.689 102.83 108.697C102.713 108.705 102.573 108.684 102.41 108.634C102.249 108.595 102.025 108.482 101.736 108.294C101.474 108.124 101.219 107.944 100.969 107.754C100.727 107.569 100.488 107.377 100.254 107.178C100.144 107.088 100.061 107.001 100.004 106.918C99.9486 106.845 99.9011 106.767 99.8611 106.685C99.8169 106.61 99.7747 106.531 99.7347 106.45C99.6948 106.368 99.6384 106.275 99.5656 106.172C99.526 106.118 99.4808 106.052 99.43 105.972C99.3749 105.899 99.3187 105.821 99.2614 105.737C99.204 105.653 99.1532 105.573 99.109 105.498C99.069 105.416 99.04 105.346 99.0219 105.288C99.0016 105.219 98.9965 105.155 99.0066 105.096C99.0275 105.035 99.0485 104.974 99.0694 104.914C99.0946 104.846 99.1123 104.783 99.1224 104.724C99.1433 104.663 99.1415 104.602 99.1169 104.539C99.0271 104.462 98.9428 104.384 98.8638 104.305C98.7891 104.219 98.7165 104.13 98.6461 104.038C98.6667 103.949 98.6851 103.863 98.7015 103.78C98.7286 103.696 98.7525 103.609 98.7731 103.519C98.7475 103.372 98.7145 103.244 98.6742 103.134C98.6381 103.017 98.6119 102.907 98.5954 102.803C98.579 102.699 98.5755 102.59 98.585 102.475C98.6052 102.358 98.6556 102.223 98.7361 102.07C98.8271 101.887 98.8942 101.698 98.9373 101.502C98.9847 101.3 99.0267 101.099 99.0633 100.899C99.1065 100.704 99.155 100.507 99.209 100.309C99.2695 100.116 99.3551 99.9337 99.4657 99.7634C99.5806 99.5865 99.7336 99.4297 99.9248 99.293C99.9093 98.901 99.9807 98.5328 100.139 98.1885C100.302 97.8377 100.487 97.5018 100.696 97.1807C100.764 97.0759 100.83 96.9743 100.894 96.876C100.968 96.7755 101.037 96.676 101.101 96.5777C101.174 96.4664 101.203 96.3642 101.189 96.2712C101.185 96.1758 101.213 96.0823 101.273 95.9906C101.367 95.8465 101.478 95.7183 101.606 95.6063C101.742 95.4985 101.863 95.3767 101.969 95.2411C101.893 95.1727 101.858 95.1038 101.866 95.0343L101.911 95.0078C102.008 94.9589 102.091 94.9103 102.16 94.8618C102.235 94.8175 102.298 94.7702 102.35 94.7197C102.401 94.6693 102.455 94.6155 102.51 94.5585C102.566 94.5015 102.631 94.4368 102.706 94.3644C102.933 94.1298 103.169 93.9102 103.414 93.7058C103.665 93.5055 103.915 93.2999 104.163 93.0889C104.444 92.8428 104.722 92.6455 104.995 92.4971C105.268 92.3486 105.6 92.2612 105.99 92.2348C106.161 92.2154 106.326 92.1831 106.486 92.1378C106.646 92.0925 106.792 92.0106 106.925 91.892C106.975 91.8871 107.021 91.8941 107.065 91.9131C107.108 91.932 107.15 91.9543 107.189 91.9798L107.268 92.0309C107.314 92.0607 107.358 92.085 107.402 92.104C107.456 92.1207 107.514 92.1254 107.574 92.1182C107.732 92.0903 107.86 92.0801 107.958 92.0876C108.062 92.0993 108.179 92.1477 108.31 92.2328C108.402 92.2924 108.484 92.3597 108.557 92.4347C108.633 92.5031 108.711 92.5769 108.79 92.6561C108.844 92.6446 108.918 92.6318 109.011 92.6177C109.114 92.6013 109.196 92.5981 109.254 92.6083L109.235 92.6378C109.218 92.664 109.204 92.6923 109.194 92.7228C109.194 92.7509 109.211 92.7757 109.244 92.7969C109.329 92.8522 109.423 92.8858 109.528 92.8975C109.632 92.9093 109.731 92.9363 109.824 92.9785C110.036 93.0691 110.258 93.1434 110.49 93.2012C110.727 93.2525 110.944 93.342 111.14 93.4697C111.35 93.6058 111.564 93.7636 111.783 93.943C112.008 94.1266 112.212 94.329 112.395 94.55C112.577 94.771 112.724 95.0108 112.836 95.2695C112.952 95.5216 113.002 95.7876 112.988 96.0673C112.981 96.193 112.987 96.2992 113.005 96.3856C113.028 96.4655 113.053 96.5421 113.08 96.6155C113.111 96.6823 113.14 96.7524 113.167 96.8257C113.198 96.8925 113.222 96.9778 113.238 97.0816C113.269 97.3066 113.265 97.5277 113.226 97.7449C113.199 97.9597 113.211 98.1774 113.264 98.3978C113.332 98.6656 113.333 98.9365 113.267 99.2103C113.207 99.4884 113.103 99.7421 112.954 99.9714C112.907 100.044 112.851 100.109 112.784 100.169C112.718 100.228 112.659 100.297 112.608 100.375C112.566 100.441 112.534 100.518 112.513 100.607C112.499 100.701 112.486 100.799 112.475 100.904C112.463 101.008 112.446 101.113 112.423 101.22C112.401 101.326 112.37 101.423 112.332 101.51C112.237 101.7 112.154 101.892 112.083 102.088C112.016 102.278 111.944 102.473 111.869 102.676C111.776 102.933 111.669 103.184 111.546 103.431C111.423 103.677 111.284 103.913 111.129 104.138ZM109.572 103.029C109.81 102.662 110.013 102.277 110.182 101.874C110.357 101.475 110.532 101.077 110.707 100.678C110.766 100.53 110.804 100.378 110.822 100.221C110.846 100.069 110.879 99.9184 110.92 99.7684C110.995 99.4815 111.073 99.1967 111.154 98.914C111.235 98.6313 111.316 98.3486 111.397 98.0659C111.445 97.892 111.434 97.708 111.364 97.5138C111.299 97.313 111.198 97.1171 111.062 96.9258C110.929 96.7281 110.77 96.5361 110.583 96.3498C110.408 96.1612 110.23 95.99 110.051 95.8361C109.875 95.6757 109.705 95.5369 109.538 95.4197C109.383 95.3003 109.263 95.2129 109.178 95.1575L109.312 95.2307L109.197 95.1703C109.053 95.0767 108.913 94.9765 108.778 94.8698C108.649 94.7674 108.512 94.6693 108.368 94.5757C108.25 94.4991 108.126 94.4324 107.995 94.3754C107.875 94.3162 107.746 94.2928 107.607 94.3053C107.28 94.3353 106.973 94.3639 106.685 94.3912C106.402 94.412 106.115 94.5097 105.824 94.6844C105.729 94.744 105.646 94.7786 105.575 94.7881C105.508 94.7911 105.439 94.7974 105.367 94.8069C105.307 94.8141 105.245 94.83 105.183 94.8546C105.12 94.8792 105.048 94.9397 104.967 95.036C104.811 95.2047 104.648 95.3692 104.479 95.5294C104.32 95.6874 104.179 95.8613 104.056 96.0513C103.924 96.2545 103.773 96.4448 103.601 96.6224C103.441 96.7977 103.26 96.9548 103.058 97.0937C103.004 97.1334 102.953 97.1698 102.903 97.2029C102.86 97.2402 102.822 97.2851 102.788 97.3375C102.724 97.4358 102.691 97.5359 102.691 97.6377C102.694 97.7331 102.678 97.8069 102.644 97.8593C102.627 97.8855 102.607 97.8955 102.583 97.8893C102.57 97.8808 102.549 97.8767 102.521 97.8771C102.504 97.8751 102.475 97.8841 102.434 97.9041C102.399 97.9284 102.354 97.9831 102.299 98.0683C102.176 98.2583 102.05 98.4516 101.923 98.6481C101.801 98.8489 101.696 99.055 101.605 99.2663C101.552 99.3904 101.515 99.5198 101.493 99.6544C101.481 99.7868 101.439 99.9086 101.367 100.02C101.32 100.092 101.257 100.154 101.177 100.204C101.098 100.255 101.033 100.32 100.982 100.398C100.922 100.49 100.899 100.583 100.913 100.676C100.932 100.762 100.944 100.858 100.949 100.964C100.955 101.042 100.943 101.132 100.914 101.235C100.895 101.335 100.876 101.429 100.855 101.518C100.841 101.611 100.83 101.693 100.822 101.762C100.815 101.832 100.827 101.877 100.86 101.898C100.886 101.915 100.911 101.927 100.935 101.933C100.963 101.933 100.99 101.941 101.017 101.958C101.148 102.043 101.208 102.166 101.197 102.327C101.196 102.485 101.16 102.62 101.088 102.731C101.028 102.823 101.003 102.918 101.013 103.018C101.027 103.111 101.053 103.207 101.091 103.306C101.129 103.405 101.167 103.505 101.205 103.604C101.254 103.701 101.286 103.796 101.3 103.889C101.321 104.042 101.344 104.15 101.369 104.213C101.4 104.28 101.431 104.333 101.462 104.371C101.497 104.403 101.529 104.433 101.557 104.461C101.592 104.493 101.626 104.548 101.66 104.626C101.698 104.725 101.732 104.831 101.761 104.943C101.801 105.053 101.841 105.158 101.879 105.257C101.988 105.533 102.157 105.768 102.384 105.963C102.623 106.155 102.863 106.329 103.106 106.487C103.204 106.551 103.311 106.587 103.426 106.597C103.541 106.606 103.658 106.612 103.777 106.615C103.901 106.612 104.02 106.615 104.135 106.624C104.256 106.638 104.369 106.679 104.474 106.747C104.559 106.802 104.635 106.879 104.701 106.978C105.001 106.847 105.264 106.757 105.491 106.708C105.718 106.66 105.93 106.607 106.126 106.548C106.323 106.489 106.516 106.4 106.705 106.281C106.894 106.162 107.101 105.965 107.325 105.692C107.419 105.576 107.526 105.482 107.647 105.412C107.778 105.338 107.889 105.247 107.978 105.138C108.181 104.897 108.368 104.646 108.538 104.383C108.715 104.126 108.908 103.878 109.117 103.642C109.199 103.546 109.277 103.447 109.351 103.347C109.426 103.246 109.499 103.14 109.572 103.029ZM128.959 105.642C128.806 105.878 128.646 106.04 128.478 106.126C128.321 106.21 128.152 106.255 127.972 106.259C127.803 106.261 127.623 106.237 127.432 106.187C127.245 106.131 127.05 106.079 126.848 106.032C126.657 105.982 126.453 105.952 126.236 105.942C126.023 105.925 125.804 105.955 125.577 106.031C125.372 106.103 125.183 106.208 125.009 106.347C124.839 106.479 124.672 106.622 124.507 106.775C124.342 106.929 124.17 107.078 123.992 107.223C123.825 107.366 123.631 107.478 123.411 107.559C123.349 107.583 123.289 107.61 123.233 107.639C123.188 107.665 123.147 107.708 123.108 107.767C123.057 107.846 123.016 107.931 122.985 108.022C122.957 108.107 122.92 108.186 122.874 108.258C122.831 108.323 122.743 108.429 122.611 108.576C122.489 108.721 122.343 108.882 122.171 109.059C122.004 109.23 121.821 109.405 121.622 109.583C121.429 109.765 121.24 109.926 121.056 110.067C120.878 110.212 120.712 110.324 120.559 110.402C120.413 110.483 120.3 110.513 120.222 110.49C120.135 110.853 119.979 111.208 119.754 111.555C119.618 111.765 119.514 111.903 119.444 111.969C119.384 112.032 119.329 112.066 119.279 112.071C119.236 112.081 119.186 112.086 119.13 112.086C119.08 112.091 119.005 112.135 118.904 112.219C118.663 112.417 118.412 112.603 118.15 112.777C117.894 112.956 117.681 113.176 117.511 113.438C117.468 113.504 117.388 113.592 117.27 113.701C117.163 113.809 117.041 113.911 116.904 114.008C116.766 114.105 116.633 114.181 116.503 114.237C116.374 114.293 116.27 114.295 116.191 114.244C116.155 114.314 116.131 114.387 116.119 114.463C116.114 114.543 116.108 114.623 116.103 114.703C116.108 114.781 116.102 114.862 116.086 114.944C116.08 115.024 116.056 115.097 116.014 115.163C116.001 115.183 115.943 115.229 115.84 115.301C115.743 115.378 115.627 115.457 115.492 115.536C115.356 115.616 115.216 115.688 115.072 115.753C114.927 115.817 114.801 115.847 114.693 115.842C114.619 115.841 114.532 115.831 114.432 115.813C114.335 115.805 114.238 115.789 114.142 115.764C114.042 115.746 113.944 115.719 113.846 115.683C113.754 115.652 113.676 115.615 113.61 115.572C113.577 115.551 113.521 115.487 113.442 115.379C113.365 115.283 113.285 115.17 113.201 115.041C113.119 114.923 113.041 114.806 112.966 114.693C112.902 114.576 112.866 114.502 112.859 114.47C112.841 114.383 112.853 114.242 112.896 114.047C112.95 113.849 113.009 113.636 113.074 113.407C113.149 113.177 113.221 112.958 113.29 112.751C113.363 112.538 113.414 112.375 113.44 112.262C113.504 111.977 113.569 111.698 113.635 111.424C113.705 111.144 113.782 110.868 113.866 110.596C113.901 110.47 113.937 110.349 113.975 110.234C114.017 110.112 114.045 109.99 114.058 109.869L114.097 109.81C114.16 109.711 114.236 109.63 114.324 109.566C114.423 109.5 114.505 109.418 114.569 109.32C114.611 109.254 114.642 109.172 114.66 109.072C114.743 108.772 114.832 108.476 114.929 108.184C115.025 107.893 115.118 107.599 115.207 107.303C115.251 107.164 115.284 107.013 115.306 106.85C115.334 106.692 115.363 106.533 115.391 106.375C115.424 106.21 115.461 106.052 115.503 105.902C115.555 105.75 115.619 105.615 115.696 105.497C115.819 105.307 115.981 105.165 116.182 105.072C116.225 104.876 116.262 104.682 116.295 104.488C116.338 104.293 116.39 104.098 116.45 103.905C116.542 103.62 116.653 103.356 116.782 103.114C116.911 102.872 117.032 102.629 117.144 102.385C117.262 102.145 117.359 101.896 117.434 101.637C117.52 101.376 117.559 101.085 117.553 100.764C117.546 100.546 117.522 100.376 117.479 100.255C117.441 100.128 117.384 100.021 117.309 99.9352C117.239 99.8429 117.15 99.7573 117.043 99.6784C116.936 99.5995 116.812 99.4959 116.672 99.3676C116.481 99.1879 116.342 98.9718 116.255 98.7193C116.167 98.4668 116.202 98.2194 116.359 97.9769C116.44 97.8524 116.546 97.7764 116.675 97.7488C116.811 97.7255 116.96 97.7335 117.121 97.7727C117.282 97.812 117.45 97.8749 117.627 97.9617C117.808 98.0418 117.981 98.1264 118.147 98.2154C118.317 98.2979 118.475 98.3773 118.621 98.4535C118.767 98.5298 118.89 98.577 118.99 98.5953C119.11 98.6264 119.224 98.6586 119.332 98.692C119.448 98.7296 119.561 98.7846 119.672 98.8569C119.81 98.9462 119.938 99.0433 120.056 99.1481C120.175 99.2528 120.298 99.3564 120.427 99.4589C120.576 99.5741 120.718 99.6851 120.854 99.7918C120.996 99.9028 121.115 100.022 121.209 100.148C121.31 100.279 121.378 100.426 121.413 100.588C121.451 100.743 121.44 100.927 121.377 101.138C121.346 101.257 121.303 101.36 121.248 101.445C121.158 101.582 121.042 101.675 120.9 101.722C120.768 101.767 120.623 101.789 120.465 101.789C120.318 101.786 120.163 101.774 120 101.752C119.841 101.724 119.696 101.704 119.564 101.693L119.516 101.787C119.439 101.905 119.345 102.007 119.234 102.093C119.122 102.179 118.989 102.218 118.835 102.212C118.9 102.356 118.907 102.496 118.857 102.631C118.81 102.759 118.745 102.889 118.66 103.02C118.581 103.155 118.504 103.296 118.428 103.442C118.356 103.582 118.328 103.731 118.345 103.892C118.367 104.101 118.342 104.29 118.271 104.458C118.206 104.63 118.12 104.798 118.014 104.962L117.777 105.325C117.705 105.437 117.636 105.55 117.57 105.666C117.515 105.779 117.473 105.901 117.445 106.031C117.426 106.103 117.411 106.177 117.398 106.253C117.391 106.322 117.365 106.39 117.323 106.455C117.285 106.514 117.236 106.553 117.178 106.571C117.12 106.589 117.056 106.594 116.986 106.586C116.948 106.803 116.903 107.03 116.852 107.267C116.805 107.497 116.823 107.719 116.908 107.933C116.881 107.961 116.854 107.995 116.828 108.035C116.803 108.074 116.779 108.11 116.758 108.143C116.699 108.234 116.641 108.337 116.586 108.45C116.531 108.564 116.48 108.679 116.431 108.797C116.389 108.919 116.353 109.039 116.322 109.159C116.291 109.278 116.273 109.392 116.267 109.501L116.281 109.523L116.249 109.573C116.193 109.658 116.116 109.719 116.017 109.757C115.929 109.793 115.857 109.854 115.801 109.939C115.759 110.004 115.73 110.092 115.714 110.203C115.708 110.311 115.708 110.427 115.711 110.551C115.719 110.668 115.73 110.787 115.745 110.908C115.764 111.023 115.778 111.116 115.787 111.187L115.846 111.225C115.99 111.319 116.131 111.368 116.267 111.373C116.408 111.371 116.54 111.341 116.663 111.281C116.792 111.225 116.913 111.145 117.027 111.042C117.147 110.943 117.264 110.842 117.378 110.739C117.44 110.686 117.549 110.575 117.705 110.407C117.861 110.238 118.032 110.069 118.216 109.9C118.4 109.731 118.576 109.589 118.744 109.474C118.922 109.357 119.051 109.324 119.13 109.375L119.149 109.388C119.174 109.321 119.188 109.25 119.189 109.176C119.19 109.103 119.188 109.027 119.183 108.949C119.188 108.869 119.195 108.794 119.203 108.724C119.211 108.655 119.234 108.591 119.272 108.532C119.306 108.479 119.345 108.434 119.388 108.397C119.441 108.357 119.496 108.323 119.552 108.294C119.741 108.175 119.897 108.071 120.02 107.983C120.153 107.893 120.269 107.8 120.367 107.706C120.477 107.609 120.582 107.505 120.682 107.393C120.787 107.275 120.909 107.131 121.047 106.96C121.088 106.912 121.181 106.833 121.327 106.723C121.478 106.606 121.637 106.49 121.804 106.375C121.983 106.258 122.149 106.152 122.304 106.057C122.463 105.956 122.574 105.893 122.637 105.868L122.63 105.878C122.658 105.849 122.679 105.825 122.691 105.806C122.715 105.784 122.737 105.756 122.759 105.724C122.784 105.684 122.8 105.639 122.806 105.587C122.818 105.539 122.837 105.495 122.863 105.456C122.922 105.364 123.003 105.305 123.104 105.277C123.21 105.244 123.293 105.181 123.352 105.089C123.412 104.997 123.443 104.892 123.446 104.773C123.453 104.647 123.446 104.521 123.425 104.396C123.404 104.271 123.374 104.144 123.336 104.017C123.304 103.894 123.278 103.783 123.257 103.686L122.972 103.501C122.956 103.369 122.959 103.241 122.984 103.117C123.019 102.991 123.029 102.862 123.012 102.73C122.998 102.665 122.986 102.597 122.977 102.526C122.967 102.454 122.982 102.389 123.02 102.33C123.067 102.258 123.136 102.187 123.229 102.116C123.328 102.05 123.41 101.988 123.477 101.928C123.575 101.834 123.649 101.77 123.699 101.737C123.759 101.702 123.812 101.685 123.857 101.686C123.914 101.686 123.97 101.699 124.027 101.727C124.094 101.752 124.188 101.78 124.307 101.811C124.438 101.84 124.555 101.888 124.66 101.956C124.719 101.995 124.773 102.034 124.821 102.075C124.876 102.119 124.929 102.159 124.982 102.193C125.054 102.24 125.151 102.284 125.272 102.326C125.399 102.361 125.531 102.401 125.67 102.445C125.82 102.486 125.973 102.539 126.127 102.602C126.286 102.658 126.435 102.731 126.572 102.821C126.729 102.923 126.863 103.047 126.973 103.193C127.083 103.339 127.217 103.463 127.374 103.565C127.427 103.599 127.481 103.63 127.538 103.657C127.601 103.689 127.659 103.722 127.711 103.756C127.803 103.816 127.88 103.884 127.941 103.961C128.009 104.043 128.07 104.129 128.123 104.219C128.192 104.329 128.268 104.434 128.351 104.535C128.439 104.629 128.525 104.727 128.608 104.828C128.703 104.926 128.79 105.029 128.869 105.136C128.948 105.244 129.014 105.357 129.068 105.475L128.959 105.642ZM138.206 117.181C138.189 117.207 138.139 117.249 138.055 117.306C137.971 117.363 137.876 117.423 137.771 117.485C137.672 117.551 137.574 117.609 137.477 117.657C137.38 117.706 137.31 117.735 137.267 117.745L137.28 117.767C137.267 117.759 137.252 117.753 137.235 117.751L137.185 117.719C137.155 117.709 137.123 117.693 137.091 117.672C137.064 117.655 137.035 117.636 137.002 117.614L137.048 117.63C136.901 117.526 136.781 117.41 136.686 117.283C136.602 117.154 136.566 116.996 136.576 116.807C136.58 116.772 136.59 116.714 136.607 116.631C136.627 116.542 136.65 116.45 136.675 116.354C136.7 116.258 136.724 116.171 136.747 116.093C136.78 116.012 136.808 115.956 136.829 115.923C136.863 115.871 136.903 115.817 136.947 115.762C136.999 115.712 137.041 115.66 137.076 115.608C137.207 115.405 137.318 115.192 137.406 114.97C137.494 114.748 137.604 114.536 137.736 114.332C137.821 114.201 137.921 114.084 138.034 113.981C138.148 113.878 138.281 113.801 138.435 113.752L138.385 113.72C138.307 113.669 138.259 113.606 138.243 113.53C138.232 113.448 138.173 113.373 138.068 113.305C137.819 113.143 137.558 113.015 137.284 112.921C137.01 112.826 136.741 112.694 136.479 112.524C136.374 112.456 136.27 112.388 136.165 112.32C136.064 112.245 135.958 112.172 135.847 112.099C135.644 111.967 135.429 111.861 135.203 111.779C134.976 111.697 134.771 111.597 134.588 111.477C134.568 111.465 134.561 111.455 134.565 111.448C134.573 111.435 134.607 111.434 134.666 111.444C134.728 111.448 134.764 111.443 134.773 111.43C134.79 111.404 134.775 111.376 134.729 111.346C134.69 111.32 134.664 111.303 134.651 111.295C134.598 111.261 134.535 111.257 134.462 111.284C134.395 111.315 134.319 111.317 134.235 111.29C134.119 111.252 134.006 111.197 133.895 111.125C133.783 111.053 133.675 110.982 133.57 110.914C133.505 110.872 133.412 110.807 133.292 110.719C133.171 110.632 133.055 110.538 132.944 110.438C132.836 110.331 132.745 110.22 132.67 110.106C132.606 109.99 132.597 109.882 132.643 109.781C132.558 109.754 132.486 109.758 132.426 109.794C132.376 109.827 132.325 109.863 132.271 109.903C132.224 109.947 132.169 109.981 132.106 110.006C132.048 110.024 131.968 110.004 131.865 109.947C131.673 109.841 131.517 109.823 131.396 109.894C131.276 109.965 131.173 110.066 131.088 110.197C131.041 110.269 130.998 110.343 130.957 110.419C130.917 110.496 130.874 110.57 130.827 110.642C130.657 110.904 130.48 111.162 130.297 111.415C130.124 111.667 129.953 111.923 129.783 112.185C129.71 112.297 129.612 112.447 129.489 112.638C129.376 112.825 129.27 113.017 129.171 113.213C129.082 113.407 129.014 113.591 128.966 113.765C128.923 113.933 128.937 114.054 129.01 114.129C129.054 114.176 129.103 114.222 129.158 114.267C129.217 114.305 129.275 114.343 129.334 114.382C129.564 114.531 129.804 114.649 130.054 114.737C130.311 114.829 130.554 114.95 130.783 115.099C130.875 115.158 130.951 115.227 131.013 115.304C131.081 115.386 131.158 115.454 131.243 115.509C131.368 115.59 131.501 115.593 131.643 115.517C131.796 115.44 131.936 115.331 132.065 115.191C132.204 115.048 132.33 114.897 132.443 114.737C132.556 114.578 132.638 114.459 132.689 114.38C132.795 114.216 132.893 114.052 132.982 113.886C133.082 113.718 133.185 113.552 133.291 113.388L133.35 113.426C133.514 113.533 133.651 113.659 133.761 113.805C133.871 113.951 134.005 114.075 134.162 114.177C134.228 114.22 134.279 114.248 134.316 114.263C134.231 114.394 134.169 114.54 134.129 114.701C134.09 114.862 134.026 115.011 133.937 115.149C133.826 115.319 133.664 115.367 133.451 115.294C133.444 115.42 133.427 115.539 133.4 115.652C133.373 115.765 133.328 115.871 133.264 115.969C133.217 116.041 133.164 116.109 133.104 116.173C133.048 116.23 132.997 116.294 132.95 116.366C132.908 116.432 132.893 116.497 132.907 116.562C132.932 116.624 132.929 116.679 132.899 116.724C132.848 116.803 132.752 116.88 132.609 116.956C132.474 117.035 132.366 117.137 132.285 117.262C132.191 117.406 132.106 117.565 132.031 117.739C131.955 117.914 131.878 118.097 131.8 118.288C131.722 118.48 131.639 118.673 131.55 118.867C131.466 119.054 131.366 119.236 131.251 119.413C131.183 119.518 131.106 119.622 131.021 119.725C130.942 119.832 130.849 119.925 130.741 120.004C130.645 120.081 130.536 120.141 130.415 120.184C130.301 120.23 130.176 120.252 130.039 120.247C129.923 120.153 129.842 120.049 129.795 119.934C129.752 119.813 129.729 119.691 129.725 119.568C129.732 119.442 129.754 119.316 129.789 119.19C129.835 119.062 129.888 118.937 129.947 118.818C130.031 118.63 130.12 118.464 130.214 118.32C130.308 118.176 130.354 118.034 130.352 117.893C130.361 117.75 130.296 117.591 130.158 117.417C130.026 117.248 129.776 117.044 129.409 116.806C129.304 116.737 129.147 116.649 128.938 116.541C128.735 116.438 128.522 116.35 128.298 116.279C128.078 116.202 127.866 116.162 127.662 116.16C127.465 116.163 127.322 116.233 127.233 116.37C127.182 116.449 127.137 116.532 127.099 116.619C127.072 116.704 127.033 116.785 126.982 116.864C126.939 116.93 126.893 116.993 126.844 117.054C126.795 117.115 126.747 117.182 126.7 117.254C126.586 117.431 126.481 117.614 126.385 117.804C126.294 117.987 126.191 118.167 126.076 118.344C125.953 118.534 125.806 118.704 125.634 118.853C125.469 119.007 125.325 119.179 125.201 119.369C125.065 119.578 125.006 119.777 125.023 119.966C125.052 120.152 125.123 120.329 125.238 120.496C125.357 120.657 125.502 120.807 125.672 120.946C125.843 121.085 126.007 121.205 126.164 121.307C126.479 121.512 126.806 121.696 127.146 121.861C127.486 122.026 127.813 122.211 128.128 122.415C128.324 122.543 128.515 122.68 128.698 122.827C128.882 122.975 129.072 123.112 129.269 123.24C129.42 123.338 129.589 123.443 129.776 123.555C129.968 123.662 130.163 123.742 130.361 123.795C130.566 123.854 130.759 123.872 130.94 123.85C131.133 123.826 131.307 123.73 131.464 123.561C131.504 123.513 131.544 123.488 131.583 123.485C131.633 123.48 131.678 123.482 131.719 123.49C131.772 123.496 131.817 123.497 131.856 123.495C131.895 123.492 131.929 123.468 131.959 123.422C131.993 123.37 132.012 123.298 132.015 123.207C132.023 123.109 132.039 123.027 132.064 122.959C132.119 122.818 132.183 122.682 132.258 122.554C132.343 122.423 132.426 122.295 132.506 122.17C132.634 121.974 132.774 121.823 132.927 121.717C133.09 121.609 133.229 121.466 133.344 121.289C133.378 121.237 133.407 121.186 133.43 121.135C133.46 121.09 133.492 121.04 133.526 120.988C133.551 120.949 133.606 120.929 133.691 120.928C133.775 120.926 133.865 120.938 133.961 120.963C134.061 120.982 134.157 121.006 134.248 121.038C134.339 121.069 134.405 121.098 134.444 121.123C134.608 121.23 134.704 121.376 134.732 121.562C134.765 121.741 134.754 121.93 134.7 122.128C134.653 122.33 134.581 122.526 134.486 122.715C134.391 122.905 134.303 123.062 134.222 123.187C134.09 123.39 133.925 123.608 133.726 123.843C133.527 124.077 133.311 124.309 133.078 124.54C132.851 124.774 132.618 124.996 132.38 125.205C132.147 125.407 131.932 125.579 131.737 125.723C131.638 125.789 131.554 125.832 131.485 125.852C131.422 125.877 131.357 125.891 131.29 125.894C131.234 125.895 131.169 125.894 131.095 125.893C131.032 125.889 130.95 125.901 130.848 125.928C130.758 125.953 130.631 125.927 130.467 125.848C130.31 125.775 130.15 125.684 129.986 125.578C129.862 125.497 129.746 125.417 129.639 125.338C129.532 125.26 129.449 125.201 129.39 125.163C129.173 125.022 128.979 124.934 128.808 124.897C128.643 124.864 128.501 124.809 128.383 124.733C128.298 124.677 128.253 124.625 128.248 124.575C128.247 124.519 128.221 124.474 128.168 124.439C128.123 124.41 128.067 124.402 128.002 124.415C127.938 124.429 127.866 124.411 127.787 124.36C127.709 124.308 127.627 124.255 127.541 124.2C127.467 124.142 127.387 124.086 127.302 124.031C126.811 123.711 126.314 123.408 125.812 123.119C125.306 122.837 124.803 122.543 124.303 122.237C123.96 122.033 123.604 121.857 123.234 121.71C122.864 121.563 122.512 121.381 122.177 121.164C122.059 121.087 121.934 120.987 121.8 120.863C121.662 120.745 121.543 120.612 121.444 120.464C121.351 120.32 121.291 120.169 121.263 120.011C121.24 119.847 121.277 119.689 121.375 119.538C121.468 119.394 121.61 119.291 121.8 119.228C121.99 119.165 122.193 119.124 122.409 119.107C122.632 119.093 122.852 119.092 123.069 119.102C123.29 119.106 123.478 119.097 123.631 119.076C123.659 119.019 123.687 118.968 123.717 118.922C123.747 118.876 123.777 118.83 123.806 118.784C123.87 118.686 123.934 118.588 123.998 118.489C124.068 118.395 124.152 118.31 124.248 118.233C124.3 118.182 124.377 118.135 124.481 118.09C124.595 118.043 124.671 117.99 124.71 117.932C124.739 117.886 124.757 117.837 124.763 117.785C124.776 117.737 124.79 117.686 124.807 117.631C124.85 117.408 124.899 117.216 124.956 117.057C125.019 116.903 125.114 116.727 125.242 116.531C125.319 116.413 125.385 116.311 125.44 116.226C125.506 116.139 125.568 116.058 125.626 115.983C125.694 115.907 125.766 115.832 125.841 115.76C125.926 115.685 126.025 115.605 126.137 115.519C126.14 115.456 126.155 115.368 126.182 115.255C126.209 115.142 126.24 115.059 126.274 115.007L127.317 113.701C127.324 113.677 127.342 113.642 127.371 113.596C127.41 113.537 127.458 113.484 127.516 113.438C127.574 113.392 127.624 113.336 127.667 113.271C127.764 113.12 127.834 112.955 127.875 112.777C127.921 112.592 127.992 112.425 128.09 112.274C128.124 112.222 128.178 112.168 128.251 112.113C128.324 112.058 128.401 111.996 128.483 111.928C128.571 111.864 128.66 111.792 128.75 111.71C128.844 111.622 128.929 111.52 129.006 111.402C129.066 111.31 129.094 111.216 129.09 111.121C129.094 111.03 129.123 110.942 129.178 110.857C129.229 110.778 129.3 110.712 129.39 110.659C129.481 110.606 129.556 110.534 129.615 110.442C129.7 110.311 129.755 110.169 129.779 110.017C129.814 109.863 129.842 109.713 129.862 109.568C129.889 109.353 129.912 109.182 129.93 109.053C129.959 108.923 129.963 108.809 129.942 108.712C129.926 108.608 129.874 108.509 129.786 108.415C129.709 108.318 129.58 108.202 129.398 108.065C129.311 107.999 129.239 107.915 129.184 107.814C129.139 107.711 129.11 107.598 129.095 107.477C129.087 107.36 129.094 107.243 129.114 107.126C129.134 107.009 129.172 106.908 129.227 106.822C129.304 106.704 129.42 106.64 129.576 106.63C129.736 106.613 129.913 106.634 130.106 106.695C130.304 106.749 130.513 106.829 130.733 106.934C130.958 107.033 131.169 107.138 131.368 107.248C131.577 107.356 131.763 107.458 131.924 107.554C132.092 107.654 132.223 107.725 132.317 107.767C132.461 107.832 132.597 107.902 132.726 107.976C132.854 108.051 132.984 108.13 133.115 108.215C133.371 108.381 133.62 108.557 133.863 108.743C134.116 108.926 134.371 109.101 134.626 109.267C134.902 109.445 135.187 109.594 135.483 109.711C135.786 109.833 136.075 109.984 136.35 110.163C136.599 110.324 136.826 110.513 137.03 110.73C137.238 110.94 137.46 111.121 137.696 111.274C137.925 111.423 138.169 111.544 138.425 111.636C138.686 111.722 138.932 111.839 139.161 111.988C139.259 112.052 139.351 112.125 139.437 112.209C139.479 112.46 139.525 112.676 139.574 112.857C139.631 113.043 139.666 113.219 139.678 113.386C139.702 113.55 139.693 113.722 139.652 113.9C139.617 114.082 139.533 114.298 139.4 114.546C139.351 114.636 139.286 114.743 139.205 114.867C139.129 114.985 139.055 115.105 138.985 115.227C138.92 115.343 138.87 115.455 138.837 115.564C138.81 115.677 138.823 115.765 138.876 115.827C138.816 115.919 138.74 115.935 138.649 115.875C138.596 115.971 138.554 116.079 138.523 116.198C138.496 116.311 138.467 116.428 138.436 116.547C138.409 116.66 138.377 116.774 138.339 116.89C138.306 116.998 138.261 117.095 138.206 117.181ZM128.125 114.071C128.085 114.046 128.045 114.029 128.004 114.021C127.963 114.012 127.921 114.027 127.878 114.064C128.033 114.37 128.14 114.635 128.199 114.86C128.269 115.082 128.318 115.258 128.345 115.388C128.38 115.522 128.412 115.608 128.443 115.647C128.478 115.679 128.545 115.662 128.644 115.596C128.773 115.512 128.835 115.394 128.831 115.243C128.834 115.095 128.796 114.945 128.719 114.792C128.647 114.643 128.553 114.503 128.434 114.37C128.326 114.234 128.223 114.135 128.125 114.071ZM148.628 128.909C148.501 129.106 148.332 129.323 148.123 129.559C147.917 129.789 147.685 130.025 147.426 130.266C147.177 130.506 146.909 130.746 146.622 130.988C146.341 131.234 146.06 131.466 145.779 131.684C145.502 131.895 145.232 132.088 144.97 132.262C144.718 132.434 144.494 132.573 144.296 132.677C144.214 132.717 144.107 132.745 143.975 132.762C143.854 132.776 143.725 132.795 143.589 132.819C143.457 132.835 143.335 132.859 143.222 132.888C143.11 132.918 143.032 132.965 142.99 133.031C142.933 133.003 142.841 132.966 142.712 132.92C142.588 132.868 142.451 132.82 142.301 132.779C142.162 132.735 142.025 132.702 141.89 132.68C141.766 132.655 141.682 132.656 141.637 132.683C141.475 132.774 141.37 132.836 141.32 132.869C141.278 132.906 141.242 132.925 141.214 132.925C141.19 132.919 141.149 132.897 141.09 132.858C141.041 132.818 140.928 132.763 140.75 132.694C140.682 132.668 140.594 132.639 140.485 132.606C140.383 132.577 140.274 132.543 140.159 132.506C140.05 132.472 139.949 132.435 139.855 132.392C139.757 132.357 139.682 132.322 139.63 132.288C139.486 132.194 139.36 132.08 139.252 131.944C139.151 131.814 139.028 131.701 138.884 131.608C138.792 131.548 138.702 131.508 138.612 131.487C138.31 131.422 138.035 131.336 137.787 131.231C137.545 131.13 137.293 130.994 137.031 130.824L135.767 129.737C135.645 129.695 135.529 129.644 135.42 129.582C135.307 129.527 135.198 129.466 135.093 129.397C134.962 129.312 134.835 129.221 134.713 129.123C134.597 129.029 134.48 128.929 134.361 128.824C134.405 128.713 134.432 128.6 134.442 128.485C134.462 128.368 134.482 128.251 134.503 128.134C134.523 128.016 134.546 127.901 134.573 127.788C134.604 127.669 134.652 127.56 134.715 127.462C134.826 127.291 134.947 127.198 135.079 127.181C135.216 127.158 135.358 127.175 135.506 127.234C135.658 127.287 135.811 127.353 135.963 127.434C136.127 127.512 136.293 127.564 136.462 127.59C136.632 127.616 136.799 127.595 136.966 127.525C137.132 127.456 137.295 127.297 137.457 127.048C137.555 126.898 137.64 126.738 137.711 126.571C137.79 126.407 137.861 126.239 137.926 126.067C138.002 125.893 138.076 125.722 138.148 125.554C138.226 125.391 138.314 125.234 138.412 125.083C138.484 124.972 138.564 124.87 138.652 124.778C138.744 124.679 138.826 124.574 138.898 124.463C139.03 124.26 139.144 124.049 139.239 123.832C139.344 123.611 139.463 123.4 139.595 123.197C139.748 122.961 139.912 122.737 140.087 122.524C140.267 122.306 140.433 122.078 140.586 121.842C140.731 121.62 140.848 121.388 140.939 121.149C141.04 120.907 141.165 120.672 141.314 120.442C141.395 120.318 141.479 120.196 141.566 120.075C141.654 119.955 141.738 119.833 141.819 119.708C141.912 119.564 141.995 119.422 142.067 119.283C142.143 119.137 142.206 118.982 142.256 118.819C142.317 118.625 142.395 118.448 142.49 118.286C142.586 118.125 142.658 117.971 142.706 117.825C142.758 117.673 142.768 117.521 142.736 117.37C142.708 117.212 142.601 117.04 142.415 116.854C142.351 116.794 142.308 116.738 142.286 116.686C142.274 116.632 142.261 116.581 142.245 116.534C142.234 116.48 142.21 116.423 142.175 116.362C142.146 116.306 142.087 116.24 141.997 116.163C141.734 115.937 141.694 115.682 141.877 115.401C141.979 115.243 142.098 115.125 142.234 115.045C142.373 114.959 142.521 114.897 142.677 114.858C142.832 114.819 142.991 114.797 143.154 114.79C143.327 114.782 143.497 114.771 143.664 114.758C143.919 114.738 144.131 114.764 144.298 114.835C144.47 114.9 144.642 114.988 144.812 115.099L145.235 115.373C145.425 115.497 145.616 115.611 145.807 115.717C146.01 115.821 146.207 115.935 146.397 116.058C146.508 116.13 146.615 116.209 146.718 116.295C146.827 116.384 146.927 116.482 147.017 116.587C147.064 116.645 147.104 116.704 147.14 116.764C147.186 116.822 147.239 116.87 147.298 116.909C147.389 116.968 147.485 116.993 147.584 116.983C147.688 116.967 147.766 116.976 147.819 117.01C147.832 117.018 147.834 117.029 147.826 117.042C147.817 117.055 147.803 117.069 147.784 117.085C147.775 117.098 147.767 117.111 147.758 117.124C147.733 117.163 147.746 117.2 147.799 117.234C147.832 117.255 147.867 117.251 147.906 117.22C147.951 117.193 148.007 117.193 148.075 117.218C148.108 117.267 148.129 117.314 148.138 117.357C148.152 117.393 148.162 117.428 148.169 117.46C148.182 117.497 148.201 117.533 148.225 117.567C148.256 117.606 148.301 117.644 148.36 117.682C148.498 117.772 148.642 117.851 148.792 117.921C148.947 117.984 149.093 118.06 149.23 118.15C149.407 118.265 149.552 118.4 149.664 118.557C149.777 118.714 149.869 118.881 149.94 119.058C150.022 119.232 150.09 119.416 150.142 119.608C150.194 119.8 150.248 119.989 150.305 120.175C150.345 120.313 150.396 120.435 150.458 120.54C150.531 120.643 150.595 120.746 150.651 120.847C150.71 120.941 150.758 121.047 150.794 121.164C150.835 121.274 150.844 121.41 150.822 121.573C150.798 121.753 150.786 121.936 150.786 122.123C150.797 122.307 150.805 122.489 150.809 122.668C150.824 122.846 150.832 123.028 150.832 123.214C150.836 123.394 150.824 123.577 150.796 123.764C150.718 124.244 150.577 124.711 150.374 125.167C150.183 125.62 149.993 126.069 149.806 126.516C149.728 126.708 149.651 126.905 149.575 127.107C149.504 127.303 149.413 127.486 149.302 127.656C149.243 127.748 149.169 127.826 149.081 127.89C148.993 127.954 148.919 128.032 148.86 128.123C148.821 128.182 148.797 128.241 148.787 128.3C148.777 128.358 148.77 128.419 148.766 128.482C148.763 128.545 148.752 128.612 148.733 128.684C148.714 128.756 148.68 128.831 148.628 128.909ZM147.415 127.185C147.581 126.93 147.706 126.657 147.792 126.368C147.877 126.079 147.913 125.78 147.898 125.473C148.017 125.447 148.118 125.392 148.202 125.307C148.285 125.221 148.357 125.132 148.416 125.041C148.48 124.942 148.537 124.84 148.588 124.733C148.645 124.631 148.704 124.533 148.763 124.442C148.797 124.389 148.807 124.331 148.794 124.266C148.786 124.205 148.77 124.144 148.746 124.081C148.732 124.016 148.713 123.953 148.688 123.89C148.668 123.821 148.665 123.754 148.679 123.689C148.696 123.606 148.712 123.538 148.729 123.483C148.756 123.427 148.782 123.373 148.805 123.323C148.828 123.273 148.847 123.215 148.861 123.15C148.876 123.085 148.883 123.001 148.884 122.9C148.886 122.826 148.891 122.76 148.902 122.701C148.916 122.636 148.946 122.567 148.993 122.495C149.036 122.43 149.09 122.367 149.157 122.308C149.165 122.238 149.15 122.168 149.112 122.097C149.079 122.02 149.032 121.948 148.973 121.881C148.911 121.804 148.836 121.727 148.746 121.65C148.648 121.586 148.562 121.488 148.489 121.357C148.422 121.23 148.353 121.092 148.282 120.944C148.211 120.795 148.132 120.651 148.046 120.511C147.967 120.375 147.865 120.267 147.74 120.186C147.55 120.063 147.353 119.958 147.148 119.872C146.943 119.785 146.737 119.693 146.53 119.596C146.373 119.522 146.208 119.433 146.033 119.329C145.863 119.219 145.691 119.131 145.52 119.066C145.354 119.005 145.192 118.988 145.035 119.016C144.881 119.037 144.743 119.143 144.619 119.333C144.47 119.563 144.332 119.804 144.205 120.057C144.085 120.314 143.944 120.567 143.782 120.816C143.446 121.333 143.087 121.836 142.705 122.324C142.334 122.809 141.978 123.314 141.637 123.838C141.48 124.081 141.336 124.332 141.204 124.591C141.078 124.844 140.933 125.095 140.772 125.344C140.563 125.665 140.33 125.966 140.074 126.246C139.824 126.531 139.594 126.834 139.386 127.155C139.301 127.286 139.209 127.427 139.111 127.578C139.014 127.728 138.933 127.881 138.87 128.036C138.807 128.19 138.775 128.347 138.775 128.505C138.775 128.663 138.829 128.815 138.94 128.961C139.096 129.165 139.249 129.367 139.399 129.567C139.559 129.764 139.751 129.935 139.974 130.08C140.105 130.165 140.252 130.218 140.414 130.24C140.581 130.256 140.743 130.286 140.9 130.332C141.002 130.361 141.112 130.4 141.23 130.448C141.358 130.494 141.483 130.538 141.605 130.58C141.731 130.616 141.855 130.64 141.976 130.654C142.109 130.665 142.231 130.656 142.343 130.627C142.514 130.579 142.673 130.542 142.82 130.517C142.967 130.491 143.133 130.515 143.318 130.589C143.405 130.627 143.471 130.633 143.516 130.606C143.572 130.577 143.621 130.539 143.661 130.49C143.713 130.44 143.767 130.392 143.825 130.345C143.888 130.293 143.966 130.265 144.062 130.261C144.218 130.251 144.356 130.21 144.476 130.139C144.603 130.073 144.718 129.989 144.821 129.888C144.924 129.787 145.02 129.682 145.11 129.573C145.21 129.461 145.315 129.357 145.425 129.26C145.667 129.045 145.921 128.833 146.187 128.624C146.46 128.419 146.686 128.179 146.864 127.904C146.911 127.831 146.935 127.759 146.937 127.685C146.942 127.605 146.968 127.528 147.015 127.456C147.041 127.417 147.062 127.398 147.079 127.4C147.108 127.4 147.136 127.4 147.164 127.399C147.196 127.392 147.23 127.377 147.264 127.353C147.305 127.333 147.355 127.277 147.415 127.185Z" fill="#C1272D"/>
</svg>
