<?xml version="1.0" encoding="UTF-8"?>
<svg id="a" data-name="Calque 1" xmlns="http://www.w3.org/2000/svg" viewBox="0 0 762.85 1111.81">
  <defs>
    <style>
      .b {
        fill: #d6d4ce;
      }

      .c {
        fill: #e0a446;
      }

      .d {
        fill: #efc36c;
      }

      .e {
        opacity: .65;
      }

      .f {
        fill: #e7b851;
      }

      .g {
        fill: #e1a429;
      }

      .h {
        fill: #e4b253;
      }
    </style>
  </defs>
  <path class="e" d="M748.39,127.19l-37.38-88.18c-6.87-16.15-22.72-26.67-40.28-26.67H77.66c-17.56,0-33.43,10.52-40.28,26.67L0,127.19v982.8h.77l-.77,1.81h748.39l-.77-1.81h.77V127.19ZM374.9,75.67s0,.03,0,.05c1.16-8.73,8.65-15.47,17.71-15.47,9.09,0,16.58,6.74,17.74,15.47-1.19,8.76-8.66,15.5-17.75,15.5s-16.55-6.74-17.72-15.5c0-.02,0-.03,0-.05Z"/>
  <g>
    <polygon class="f" points="762.85 114.85 762.85 1097.66 14.46 1097.66 14.46 114.85 388.64 159.95 762.85 114.85"/>
    <polygon class="c" points="762.85 114.85 388.64 159.95 14.46 114.85 762.85 114.85"/>
    <path class="h" d="M725.47,26.67c-6.87-16.15-22.72-26.67-40.28-26.67H92.12c-17.56,0-33.43,10.52-40.28,26.67L14.46,114.85h748.39l-37.38-88.18ZM406.39,63.38c-1.19,8.76-8.66,15.5-17.75,15.5s-16.55-6.74-17.72-15.5c1.16-8.74,8.66-15.47,17.72-15.47s16.58,6.74,17.75,15.47Z"/>
    <path class="g" d="M353.56,30.54v60.86h70.19V30.54h-70.19ZM388.64,78.88c-9.06,0-16.55-6.74-17.72-15.5,1.16-8.74,8.66-15.47,17.72-15.47s16.58,6.74,17.75,15.47c-1.19,8.76-8.66,15.5-17.75,15.5Z"/>
    <path class="b" d="M406.56,60.97c0,.81-.05,1.62-.16,2.41-1.16-8.74-8.66-15.47-17.75-15.47s-16.55,6.74-17.72,15.47c-.11-.78-.19-1.6-.19-2.41,0-9.9,8.03-17.91,17.91-17.91s17.91,8.01,17.91,17.91Z"/>
    <g>
      <rect class="g" x="125.59" width="205.58" height="70.22"/>
      <rect class="g" x="446.13" width="205.58" height="70.22"/>
    </g>
    <path class="d" d="M725.47,1011.29c-6.87-16.15-22.72-26.67-40.28-26.67H92.12c-17.56,0-33.43,10.52-40.28,26.67l-37.38,88.18h748.39l-37.38-88.18Z"/>
  </g>
</svg>