<?xml version="1.0" encoding="UTF-8"?>
<svg id="Calque_1" xmlns="http://www.w3.org/2000/svg" version="1.1" viewBox="0 0 800 800">
  <!-- Generator: Adobe Illustrator 29.5.1, SVG Export Plug-In . SVG Version: 2.1.0 Build 141)  -->
  <defs>
    <style>
      .st0 {
        fill: #2a2118;
      }
    </style>
  </defs>
  <path class="st0" d="M0,0v800h800V0H0ZM435.4,624c0,77.9-45.6,113.3-112.2,113.3s-95-31.1-112.8-68.7h0s61.2-37,61.2-37c11.8,20.9,22.6,38.7,48.3,38.7s40.3-9.7,40.3-47.2v-255.6h75.2v256.7ZM613.1,737.3c-69.8,0-114.9-33.3-136.9-76.8h0s61.2-35.4,61.2-35.4c16.1,26.3,37.1,45.6,74.1,45.6s51-15.6,51-37.1-20.4-34.9-54.8-49.9l-18.8-8.1c-54.2-23.1-90.2-52.1-90.2-113.3s43-99.4,110.1-99.4,82.2,16.7,106.9,60.1l-58.5,37.6c-12.9-23.1-26.8-32.2-48.3-32.2s-36,14-36,32.2,14,31.7,46.2,45.6l18.8,8.1c63.9,27.4,99.9,55.3,99.9,118.1s-53.2,104.7-124.6,104.7Z"/>
</svg>