<svg width="78" height="162" viewBox="0 0 78 162" fill="none" xmlns="http://www.w3.org/2000/svg">
<g filter="url(#filter0_d_230_400)">
<path d="M31.5 112C31.5 113.989 32.2902 115.897 33.6967 117.303C35.1032 118.71 37.0109 119.5 39 119.5C40.9891 119.5 42.8968 118.71 44.3033 117.303C45.7098 115.897 46.5 113.989 46.5 112L39 112L31.5 112Z" fill="#7C7C7C"/>
</g>
<path d="M39 0L39 76" stroke="#2A2118" stroke-width="4"/>
<path d="M39 76C49.3434 76 59.2632 79.7927 66.5771 86.5439C73.8911 93.2953 78 102.452 78 112H0C1.56182e-06 102.452 4.10893 93.2953 11.4229 86.5439C18.7368 79.7927 28.6566 76 39 76Z" fill="#F8F3E6"/>
<rect x="22" y="136" width="34" height="25" stroke="#2A2118"/>
<path d="M31 153.641C30.0729 153.641 29.25 153.443 28.5312 153.047C27.8229 152.651 27.2656 152.104 26.8594 151.406C26.4531 150.698 26.25 149.891 26.25 148.984C26.25 148.057 26.4531 147.234 26.8594 146.516C27.276 145.797 27.8438 145.229 28.5625 144.812C29.2812 144.396 30.1042 144.188 31.0312 144.188C31.9271 144.188 32.7135 144.385 33.3906 144.781C34.0677 145.167 34.599 145.708 34.9844 146.406C35.3698 147.104 35.5625 147.911 35.5625 148.828C35.5625 149.568 35.4323 150.234 35.1719 150.828C34.9219 151.411 34.5781 151.917 34.1406 152.344C33.7135 152.76 33.224 153.083 32.6719 153.312C32.1302 153.531 31.5729 153.641 31 153.641ZM31.1406 152.688C31.6719 152.688 32.1302 152.552 32.5156 152.281C32.901 152 33.1927 151.599 33.3906 151.078C33.599 150.547 33.7031 149.927 33.7031 149.219C33.7031 148.375 33.5833 147.646 33.3438 147.031C33.1042 146.406 32.7708 145.922 32.3438 145.578C31.9167 145.224 31.4167 145.047 30.8438 145.047C30.0104 145.047 29.3542 145.37 28.875 146.016C28.3958 146.651 28.1562 147.526 28.1562 148.641C28.1562 149.432 28.2812 150.135 28.5312 150.75C28.7917 151.354 29.1458 151.828 29.5938 152.172C30.0417 152.516 30.5573 152.688 31.1406 152.688ZM37.0938 153.5L37.0469 152.844L37.9531 152.625C37.9635 152.583 37.974 152.469 37.9844 152.281C37.9948 152.094 38 151.839 38 151.516C38.0104 151.182 38.0156 150.792 38.0156 150.344L38.0312 147.359C38.0312 146.932 38.026 146.568 38.0156 146.266C38.0156 145.953 38.0104 145.708 38 145.531C37.9896 145.354 37.9792 145.25 37.9688 145.219L37 144.984L37.0312 144.328H41.8906C42.0677 144.328 42.2552 144.328 42.4531 144.328C42.6615 144.318 42.875 144.307 43.0938 144.297C43.3125 144.286 43.5208 144.271 43.7188 144.25L44.0625 146.406L43.2969 146.516L42.7344 145.188C42.651 145.167 42.5573 145.151 42.4531 145.141C42.349 145.13 42.2396 145.125 42.125 145.125H40.5625C40.3958 145.125 40.2188 145.13 40.0312 145.141C39.8542 145.151 39.7083 145.167 39.5938 145.188C39.5938 145.229 39.5885 145.302 39.5781 145.406C39.5781 145.51 39.5781 145.641 39.5781 145.797C39.5781 145.953 39.5781 146.146 39.5781 146.375C39.5781 146.594 39.5781 146.849 39.5781 147.141L39.5938 150.594C39.5938 150.99 39.599 151.333 39.6094 151.625C39.6198 151.917 39.6302 152.146 39.6406 152.312C39.651 152.479 39.6615 152.583 39.6719 152.625L40.9375 152.812L40.8906 153.5H37.0938ZM42.1719 150.469L42 149.344C41.9062 149.323 41.7917 149.307 41.6562 149.297C41.5208 149.286 41.3646 149.281 41.1875 149.281H40.0156C39.8802 149.281 39.7448 149.286 39.6094 149.297C39.474 149.297 39.3281 149.302 39.1719 149.312V148.391C39.2969 148.401 39.4323 148.411 39.5781 148.422C39.724 148.422 39.8698 148.422 40.0156 148.422H41.1875C41.3958 148.422 41.5677 148.417 41.7031 148.406C41.8385 148.396 41.9375 148.385 42 148.375L42.1719 147.312H42.9219V150.469H42.1719ZM45.125 153.5L45.0781 152.844L45.9844 152.625C45.9948 152.583 46.0052 152.469 46.0156 152.281C46.026 152.094 46.0312 151.839 46.0312 151.516C46.0417 151.182 46.0469 150.792 46.0469 150.344L46.0625 147.359C46.0625 146.932 46.0573 146.568 46.0469 146.266C46.0469 145.953 46.0417 145.708 46.0312 145.531C46.0208 145.354 46.0104 145.25 46 145.219L45.0312 144.984L45.0625 144.328H49.9219C50.099 144.328 50.2865 144.328 50.4844 144.328C50.6927 144.318 50.9062 144.307 51.125 144.297C51.3438 144.286 51.5521 144.271 51.75 144.25L52.0938 146.406L51.3281 146.516L50.7656 145.188C50.6823 145.167 50.5885 145.151 50.4844 145.141C50.3802 145.13 50.2708 145.125 50.1562 145.125H48.5938C48.4271 145.125 48.25 145.13 48.0625 145.141C47.8854 145.151 47.7396 145.167 47.625 145.188C47.625 145.229 47.6198 145.302 47.6094 145.406C47.6094 145.51 47.6094 145.641 47.6094 145.797C47.6094 145.953 47.6094 146.146 47.6094 146.375C47.6094 146.594 47.6094 146.849 47.6094 147.141L47.625 150.594C47.625 150.99 47.6302 151.333 47.6406 151.625C47.651 151.917 47.6615 152.146 47.6719 152.312C47.6823 152.479 47.6927 152.583 47.7031 152.625L48.9688 152.812L48.9219 153.5H45.125ZM50.2031 150.469L50.0312 149.344C49.9375 149.323 49.8229 149.307 49.6875 149.297C49.5521 149.286 49.3958 149.281 49.2188 149.281H48.0469C47.9115 149.281 47.776 149.286 47.6406 149.297C47.5052 149.297 47.3594 149.302 47.2031 149.312V148.391C47.3281 148.401 47.4635 148.411 47.6094 148.422C47.7552 148.422 47.901 148.422 48.0469 148.422H49.2188C49.4271 148.422 49.599 148.417 49.7344 148.406C49.8698 148.396 49.9688 148.385 50.0312 148.375L50.2031 147.312H50.9531V150.469H50.2031Z" fill="#2A2118"/>
<defs>
<filter id="filter0_d_230_400" x="23.5" y="108" width="31" height="23.5" filterUnits="userSpaceOnUse" color-interpolation-filters="sRGB">
<feFlood flood-opacity="0" result="BackgroundImageFix"/>
<feColorMatrix in="SourceAlpha" type="matrix" values="0 0 0 0 0 0 0 0 0 0 0 0 0 0 0 0 0 0 127 0" result="hardAlpha"/>
<feOffset dy="4"/>
<feGaussianBlur stdDeviation="4"/>
<feComposite in2="hardAlpha" operator="out"/>
<feColorMatrix type="matrix" values="0 0 0 0 0 0 0 0 0 0 0 0 0 0 0 0 0 0 0.2 0"/>
<feBlend mode="normal" in2="BackgroundImageFix" result="effect1_dropShadow_230_400"/>
<feBlend mode="normal" in="SourceGraphic" in2="effect1_dropShadow_230_400" result="shape"/>
</filter>
</defs>
</svg>
