<svg width="78" height="140" viewBox="0 0 78 140" fill="none" xmlns="http://www.w3.org/2000/svg">
    <g filter="url(#filter0_d_226_766)">
        <path d="M31.5 112C31.5 113.989 32.2902 115.897 33.6967 117.303C35.1032 118.71 37.0109 119.5 39 119.5C40.9891 119.5 42.8968 118.71 44.3033 117.303C45.7098 115.897 46.5 113.989 46.5 112L39 112L31.5 112Z" fill="#C6C63E"/>
    </g>
    <path d="M39 0L39 76" stroke="#2A2118" stroke-width="4"/>
    <path d="M39 76C49.3434 76 59.2632 79.7927 66.5771 86.5439C73.8911 93.2953 78 102.452 78 112H0C1.56182e-06 102.452 4.10893 93.2953 11.4229 86.5439C18.7368 79.7927 28.6566 76 39 76Z" fill="#F8F3E6"/>
    <defs>
        <filter id="filter0_d_226_766" x="11.5" y="92" width="55" height="47.5" filterUnits="userSpaceOnUse" color-interpolation-filters="sRGB">
            <feFlood flood-opacity="0" result="BackgroundImageFix"/>
            <feColorMatrix in="SourceAlpha" type="matrix" values="0 0 0 0 0 0 0 0 0 0 0 0 0 0 0 0 0 0 127 0" result="hardAlpha"/>
            <feOffset/>
            <feGaussianBlur stdDeviation="10"/>
            <feComposite in2="hardAlpha" operator="out"/>
            <feColorMatrix type="matrix" values="0 0 0 0 1 0 0 0 0 1 0 0 0 0 0.0240385 0 0 0 1 0"/>
            <feBlend mode="normal" in2="BackgroundImageFix" result="effect1_dropShadow_226_766"/>
            <feBlend mode="normal" in="SourceGraphic" in2="effect1_dropShadow_226_766" result="shape"/>
        </filter>
    </defs>
</svg>
