<svg width="78" height="162" viewBox="0 0 78 162" fill="none" xmlns="http://www.w3.org/2000/svg">
<g filter="url(#filter0_d_230_400)">
<path d="M31.5 112C31.5 113.989 32.2902 115.897 33.6967 117.303C35.1032 118.71 37.0109 119.5 39 119.5C40.9891 119.5 42.8968 118.71 44.3033 117.303C45.7098 115.897 46.5 113.989 46.5 112L39 112L31.5 112Z" fill="#7C7C7C"/>
</g>
<path d="M39 0L39 76" stroke="#2A2118" stroke-width="4"/>
<path d="M39 76C49.3434 76 59.2632 79.7927 66.5771 86.5439C73.8911 93.2953 78 102.452 78 112H0C1.56182e-06 102.452 4.10893 93.2953 11.4229 86.5439C18.7368 79.7927 28.6566 76 39 76Z" fill="#F8F3E6"/>
<rect x="24.5" y="136" width="29" height="25" stroke="#2A2118"/>
<path d="M33.5 153.641C32.5729 153.641 31.75 153.443 31.0312 153.047C30.3229 152.651 29.7656 152.104 29.3594 151.406C28.9531 150.698 28.75 149.891 28.75 148.984C28.75 148.057 28.9531 147.234 29.3594 146.516C29.776 145.797 30.3438 145.229 31.0625 144.812C31.7812 144.396 32.6042 144.188 33.5312 144.188C34.4271 144.188 35.2135 144.385 35.8906 144.781C36.5677 145.167 37.099 145.708 37.4844 146.406C37.8698 147.104 38.0625 147.911 38.0625 148.828C38.0625 149.568 37.9323 150.234 37.6719 150.828C37.4219 151.411 37.0781 151.917 36.6406 152.344C36.2135 152.76 35.724 153.083 35.1719 153.312C34.6302 153.531 34.0729 153.641 33.5 153.641ZM33.6406 152.688C34.1719 152.688 34.6302 152.552 35.0156 152.281C35.401 152 35.6927 151.599 35.8906 151.078C36.099 150.547 36.2031 149.927 36.2031 149.219C36.2031 148.375 36.0833 147.646 35.8438 147.031C35.6042 146.406 35.2708 145.922 34.8438 145.578C34.4167 145.224 33.9167 145.047 33.3438 145.047C32.5104 145.047 31.8542 145.37 31.375 146.016C30.8958 146.651 30.6562 147.526 30.6562 148.641C30.6562 149.432 30.7812 150.135 31.0312 150.75C31.2917 151.354 31.6458 151.828 32.0938 152.172C32.5417 152.516 33.0573 152.688 33.6406 152.688ZM46.7656 151.047V147.906C46.7656 147.333 46.7604 146.854 46.75 146.469C46.75 146.083 46.7396 145.786 46.7188 145.578C46.7083 145.37 46.6927 145.245 46.6719 145.203L45.6094 144.984L45.6562 144.328H48.7344L48.7812 144.984L47.8125 145.203C47.8021 145.245 47.7865 145.37 47.7656 145.578C47.7552 145.786 47.7448 146.083 47.7344 146.469C47.724 146.854 47.7188 147.333 47.7188 147.906V151.391C47.7188 151.766 47.7188 152.135 47.7188 152.5C47.7292 152.854 47.7344 153.214 47.7344 153.578H46.9531L41.0312 146L41.5312 145.984V149.828C41.5312 150.432 41.5365 150.932 41.5469 151.328C41.5573 151.724 41.5677 152.026 41.5781 152.234C41.599 152.443 41.6146 152.573 41.625 152.625L42.7031 152.844L42.6562 153.5H39.5312L39.4844 152.844L40.4531 152.625C40.474 152.573 40.4896 152.443 40.5 152.234C40.5104 152.016 40.5208 151.708 40.5312 151.312C40.5417 150.906 40.5469 150.411 40.5469 149.828V147.344C40.5469 146.927 40.5417 146.568 40.5312 146.266C40.5208 145.964 40.5104 145.724 40.5 145.547C40.4896 145.37 40.474 145.255 40.4531 145.203L39.4844 144.984L39.5312 144.328H41.7812L47.1562 151.047H46.7656Z" fill="#2A2118"/>
<defs>
<filter id="filter0_d_230_400" x="11.5" y="92" width="55" height="47.5" filterUnits="userSpaceOnUse" color-interpolation-filters="sRGB">
<feFlood flood-opacity="0" result="BackgroundImageFix"/>
<feColorMatrix in="SourceAlpha" type="matrix" values="0 0 0 0 0 0 0 0 0 0 0 0 0 0 0 0 0 0 127 0" result="hardAlpha"/>
<feOffset/>
<feGaussianBlur stdDeviation="10"/>
<feComposite in2="hardAlpha" operator="out"/>
<feColorMatrix type="matrix" values="0 0 0 0 1 0 0 0 0 1 0 0 0 0 0.0240385 0 0 0 1 0"/>
<feBlend mode="normal" in2="BackgroundImageFix" result="effect1_dropShadow_230_400"/>
<feBlend mode="normal" in="SourceGraphic" in2="effect1_dropShadow_230_400" result="shape"/>
</filter>
</defs>
</svg>
