<svg width="118" height="149" viewBox="0 0 118 149" fill="none" xmlns="http://www.w3.org/2000/svg">
<g filter="url(#filter0_d_226_734)">
<path d="M51.5 112C51.5 113.989 52.2902 115.897 53.6967 117.303C55.1032 118.71 57.0109 119.5 59 119.5C60.9891 119.5 62.8968 118.71 64.3033 117.303C65.7098 115.897 66.5 113.989 66.5 112L59 112L51.5 112Z" fill="#C6C63E"/>
</g>
<path d="M59 0L59 76" stroke="#2A2118" stroke-width="4"/>
<g filter="url(#filter1_d_226_734)">
<path d="M59 76C69.3434 76 79.2632 79.7927 86.5771 86.5439C93.8911 93.2953 98 102.452 98 112H20C20 102.452 24.1089 93.2953 31.4229 86.5439C38.7368 79.7927 48.6566 76 59 76Z" fill="#F8F3E6"/>
</g>
<defs>
<filter id="filter0_d_226_734" x="36.5" y="97" width="45" height="37.5" filterUnits="userSpaceOnUse" color-interpolation-filters="sRGB">
<feFlood flood-opacity="0" result="BackgroundImageFix"/>
<feColorMatrix in="SourceAlpha" type="matrix" values="0 0 0 0 0 0 0 0 0 0 0 0 0 0 0 0 0 0 127 0" result="hardAlpha"/>
<feOffset/>
<feGaussianBlur stdDeviation="7.5"/>
<feComposite in2="hardAlpha" operator="out"/>
<feColorMatrix type="matrix" values="0 0 0 0 1 0 0 0 0 1 0 0 0 0 0.0240385 0 0 0 1 0"/>
<feBlend mode="normal" in2="BackgroundImageFix" result="effect1_dropShadow_226_734"/>
<feBlend mode="normal" in="SourceGraphic" in2="effect1_dropShadow_226_734" result="shape"/>
</filter>
<filter id="filter1_d_226_734" x="0" y="73" width="118" height="76" filterUnits="userSpaceOnUse" color-interpolation-filters="sRGB">
<feFlood flood-opacity="0" result="BackgroundImageFix"/>
<feColorMatrix in="SourceAlpha" type="matrix" values="0 0 0 0 0 0 0 0 0 0 0 0 0 0 0 0 0 0 127 0" result="hardAlpha"/>
<feOffset dy="17"/>
<feGaussianBlur stdDeviation="10"/>
<feComposite in2="hardAlpha" operator="out"/>
<feColorMatrix type="matrix" values="0 0 0 0 1 0 0 0 0 1 0 0 0 0 0.0240385 0 0 0 0.1 0"/>
<feBlend mode="normal" in2="BackgroundImageFix" result="effect1_dropShadow_226_734"/>
<feBlend mode="normal" in="SourceGraphic" in2="effect1_dropShadow_226_734" result="shape"/>
</filter>
</defs>
</svg>
