<?xml version="1.0" encoding="UTF-8"?>
<svg id="Calque_1" data-name="Calque 1" xmlns="http://www.w3.org/2000/svg" viewBox="0 0 435.41 404.91">
  <defs>
    <style>
      .cls-1 {
        fill: #2a2118;
      }

      .cls-2 {
        fill: #c1272d;
      }
    </style>
  </defs>
  <g>
    <path class="cls-1" d="M124.55,167.19c0-49.4,40.05-89.45,89.45-89.45V0C121.66,0,46.81,74.85,46.81,167.19s74.85,167.19,167.19,167.19v-77.73c-49.4,0-89.45-40.05-89.45-89.45Z"/>
    <polygon class="cls-2" points="385 334.38 385 241.11 385 163.38 307.27 163.38 214 163.38 214 241.11 307.27 241.11 307.27 334.38 385 334.38"/>
  </g>
  <g>
    <path class="cls-1" d="M2.2,364.13h9.89l9.8,20.77h-1.36l8.81-20.77h9.89l.09,2.34-2.95.7c-.03.44-.03,1.14,0,2.11s.06,2.22.09,3.75l.28,8.25c.06,1.31.12,2.49.16,3.54s.11,1.89.19,2.53.12,1.04.12,1.2l3,.75-.14,2.34h-12.75l-.14-2.34,3-.75c.03-.12.05-.49.07-1.1s.02-1.43.02-2.46-.02-2.25-.05-3.66l-.14-15.84h2.16l-11.16,26.3h-2.95l-12.52-26.3h2.95v16.12c0,2.41.02,4.12.07,5.13s.09,1.62.12,1.8l3.23.75-.14,2.34H1.59l-.14-2.34,3.23-.75c.03-.22.06-.66.09-1.31s.06-1.45.09-2.39.05-1.91.05-2.91l.14-8.77c.03-1.66.04-2.97.02-3.94s-.02-1.64-.02-2.02l-2.95-.75.09-2.34Z"/>
    <path class="cls-1" d="M58.64,392.06c-2.84,0-5.39-.59-7.64-1.78s-4.02-2.82-5.3-4.9-1.92-4.48-1.92-7.2.64-5.26,1.92-7.43,3.04-3.89,5.27-5.16,4.79-1.9,7.66-1.9,5.33.58,7.45,1.73,3.79,2.77,4.99,4.85,1.8,4.48,1.8,7.2c0,2.44-.44,4.56-1.31,6.38s-2.03,3.34-3.47,4.57-2.98,2.15-4.64,2.74-3.27.89-4.83.89ZM58.97,388.55c1.44,0,2.65-.38,3.63-1.12s1.72-1.86,2.2-3.33.73-3.25.73-5.34c0-2.47-.31-4.59-.94-6.35s-1.48-3.14-2.58-4.12-2.41-1.48-3.94-1.48c-2.12,0-3.8.89-5.02,2.67s-1.83,4.25-1.83,7.41c0,2.28.34,4.3,1.01,6.07s1.59,3.14,2.74,4.12,2.48,1.48,3.98,1.48Z"/>
    <path class="cls-1" d="M76.69,391.64l-.09-2.34,2.95-.75c.09-.12.16-.52.19-1.2s.06-1.54.09-2.6.05-2.22.05-3.47v-6.8c0-1.31-.02-2.49-.05-3.54s-.06-1.91-.09-2.58-.09-1.07-.19-1.2l-2.95-.7.09-2.34h12.61l.09,2.34-2.86.7c-.06.16-.12.58-.16,1.27s-.09,1.55-.12,2.58-.05,2.19-.05,3.47v6.8c0,1.25.02,2.38.05,3.4s.07,1.87.12,2.55.1,1.12.16,1.31l2.86.75-.09,2.34h-12.61ZM85.12,379.41v-3.61c.78.09,1.66.16,2.62.19s2.19.05,3.66.05,2.72-.02,3.66-.05,1.8-.09,2.58-.19v3.61c-.66-.06-1.47-.11-2.44-.14s-2.23-.05-3.8-.05-2.84.02-3.82.05-1.8.08-2.46.14ZM93.52,391.64l-.09-2.34,2.86-.75c.06-.19.12-.62.16-1.31s.09-1.54.12-2.55.05-2.15.05-3.4v-6.8c0-1.28-.02-2.44-.05-3.47s-.07-1.89-.12-2.58-.1-1.11-.16-1.27l-2.86-.7.09-2.34h12.61l.14,2.34-2.95.7c-.06.16-.12.59-.19,1.31s-.1,1.61-.12,2.67-.02,2.17-.02,3.33v6.8c0,1.09,0,2.17.02,3.23s.05,1.95.12,2.67.12,1.17.19,1.36l2.95.75-.14,2.34h-12.61Z"/>
    <path class="cls-1" d="M107.86,391.64l-.09-2.34,2.39-.75,9.56-23.06,3.89-2.2,10.78,25.27,2.44.75-.19,2.34h-12.52l-.14-2.34,3-.75-2.53-6.05-.52-1.64-4.69-11.02,1.36.38-3.89,10.5-.42,1.41-2.25,6.42,3,.75-.09,2.34h-9.09ZM115.17,383.67v-3.19c.59.03,1.3.08,2.11.14s1.86.09,3.14.09,2.29-.03,3.12-.09,1.54-.11,2.13-.14v3.14c-.56,0-1.27-.02-2.11-.05s-1.89-.05-3.14-.05-2.33.02-3.14.05-1.52.06-2.11.09Z"/>
    <path class="cls-1" d="M138.66,364.13h9.89l9.8,20.77h-1.36l8.81-20.77h9.89l.09,2.34-2.95.7c-.03.44-.03,1.14,0,2.11s.06,2.22.09,3.75l.28,8.25c.06,1.31.12,2.49.16,3.54s.11,1.89.19,2.53.12,1.04.12,1.2l3,.75-.14,2.34h-12.75l-.14-2.34,3-.75c.03-.12.05-.49.07-1.1s.02-1.43.02-2.46-.02-2.25-.05-3.66l-.14-15.84h2.16l-11.16,26.3h-2.95l-12.52-26.3h2.95v16.12c0,2.41.02,4.12.07,5.13s.09,1.62.12,1.8l3.23.75-.14,2.34h-10.27l-.14-2.34,3.23-.75c.03-.22.06-.66.09-1.31s.06-1.45.09-2.39.05-1.91.05-2.91l.14-8.77c.03-1.66.04-2.97.02-3.94s-.02-1.64-.02-2.02l-2.95-.75.09-2.34Z"/>
    <path class="cls-1" d="M202.59,391.97c-.88-.12-1.93-.21-3.16-.26s-2.34-.07-3.3-.07h-16.17l-.14-2.34,2.95-.75c.09-.12.16-.52.21-1.2s.09-1.53.12-2.58.05-2.21.05-3.49v-6.8c0-1.31-.02-2.49-.05-3.54s-.07-1.91-.12-2.58-.12-1.05-.21-1.15l-2.95-.75.14-2.34h14.39c.66,0,1.43,0,2.32-.02s1.77-.05,2.65-.09,1.61-.1,2.2-.16l1.22,6.98-2.72.38-1.73-4.12c-.41-.09-.77-.15-1.1-.16s-.68-.02-1.05-.02h-3.56c-.59,0-1.16,0-1.69.02s-.97.05-1.31.12c-.03.22-.05.58-.07,1.08s-.03,1.14-.05,1.92-.02,1.7-.02,2.77v9.84c0,1,0,1.88.02,2.65s.03,1.41.05,1.95.04.94.07,1.22c.53.09,1.11.16,1.73.19s1.41.05,2.34.05h2.53c.78,0,1.37,0,1.76-.02s.69-.04.89-.07.43-.06.68-.09l2.58-4.69,2.62.52-2.11,7.64ZM196.64,382.27l-.47-3.09c-.22-.06-.57-.1-1.05-.12s-1.02-.02-1.62-.02h-2.48c-.53,0-1.04.02-1.52.05s-.85.06-1.1.09v-3.33c.25.03.62.06,1.1.09s.99.05,1.52.05h2.48c.59,0,1.13,0,1.62-.02s.84-.02,1.05-.02l.47-3.14h2.58v9.47h-2.58Z"/>
    <path class="cls-1" d="M207.33,364.13h12.94c5.06,0,9,1.18,11.81,3.54s4.22,5.63,4.22,9.82c0,2.75-.66,5.19-1.99,7.31s-3.16,3.8-5.51,5.02-5.05,1.83-8.11,1.83h-13.36l-.19-2.34,3-.75c.09-.19.17-.97.23-2.34s.09-3.02.09-4.92v-6.8c0-1.97-.03-3.63-.09-4.99s-.14-2.13-.23-2.32l-3-.7.19-2.34ZM216.89,367.22c0,.22,0,.63-.02,1.24s-.03,1.41-.05,2.41-.02,2.2-.02,3.61v6.8c0,.81,0,1.66.02,2.55s.05,1.72.12,2.48.11,1.37.14,1.8c.66.12,1.35.23,2.09.3s1.41.12,2.04.12c2.62,0,4.62-.77,5.98-2.3s2.04-3.94,2.04-7.22c0-2.22-.25-4.09-.75-5.62s-1.19-2.77-2.06-3.7-1.88-1.62-3-2.06-2.31-.66-3.56-.66c-.47,0-.95.02-1.45.05s-1,.09-1.5.19Z"/>
    <path class="cls-1" d="M265.41,392.06c-3.06,0-5.75-.53-8.06-1.59s-4.12-2.62-5.41-4.69-1.95-4.55-1.95-7.45c0-2.25.41-4.29,1.22-6.12s1.96-3.37,3.45-4.62,3.23-2.21,5.23-2.88,4.19-1.01,6.56-1.01c1.44,0,2.88.15,4.31.45s2.64.68,3.61,1.15l.33,7.17-2.86.19-1.69-4.92c-.59-.31-1.24-.55-1.95-.7s-1.43-.23-2.18-.23c-1.81,0-3.34.42-4.59,1.27s-2.2,2.05-2.86,3.61-.98,3.41-.98,5.53c0,2.41.4,4.48,1.2,6.21s1.88,3.07,3.23,4.01,2.87,1.41,4.52,1.41c.81,0,1.63-.12,2.46-.38s1.54-.59,2.13-1.03l1.69-4.31,3.14.33-1.36,6.23c-.97.62-2.29,1.18-3.96,1.66s-3.41.73-5.23.73Z"/>
    <path class="cls-1" d="M276.75,391.64l-.09-2.34,2.39-.75,9.56-23.06,3.89-2.2,10.78,25.27,2.44.75-.19,2.34h-12.52l-.14-2.34,3-.75-2.53-6.05-.52-1.64-4.69-11.02,1.36.38-3.89,10.5-.42,1.41-2.25,6.42,3,.75-.09,2.34h-9.09ZM284.06,383.67v-3.19c.59.03,1.3.08,2.11.14s1.86.09,3.14.09,2.29-.03,3.12-.09,1.54-.11,2.13-.14v3.14c-.56,0-1.27-.02-2.11-.05s-1.89-.05-3.14-.05-2.33.02-3.14.05-1.52.06-2.11.09Z"/>
    <path class="cls-1" d="M307.55,364.13h9.89l9.8,20.77h-1.36l8.81-20.77h9.89l.09,2.34-2.95.7c-.03.44-.03,1.14,0,2.11s.06,2.22.09,3.75l.28,8.25c.06,1.31.12,2.49.16,3.54s.11,1.89.19,2.53.12,1.04.12,1.2l3,.75-.14,2.34h-12.75l-.14-2.34,3-.75c.03-.12.05-.49.07-1.1s.02-1.43.02-2.46-.02-2.25-.05-3.66l-.14-15.84h2.16l-11.16,26.3h-2.95l-12.52-26.3h2.95v16.12c0,2.41.02,4.12.07,5.13s.09,1.62.12,1.8l3.23.75-.14,2.34h-10.27l-.14-2.34,3.23-.75c.03-.22.06-.66.09-1.31s.06-1.45.09-2.39.05-1.91.05-2.91l.14-8.77c.03-1.66.04-2.97.02-3.94s-.02-1.64-.02-2.02l-2.95-.75.09-2.34Z"/>
    <path class="cls-1" d="M347.06,391.64l-.09-2.34,2.39-.75,9.56-23.06,3.89-2.2,10.78,25.27,2.44.75-.19,2.34h-12.52l-.14-2.34,3-.75-2.53-6.05-.52-1.64-4.69-11.02,1.36.38-3.89,10.5-.42,1.41-2.25,6.42,3,.75-.09,2.34h-9.09ZM354.38,383.67v-3.19c.59.03,1.3.08,2.11.14s1.86.09,3.14.09,2.29-.03,3.12-.09,1.54-.11,2.13-.14v3.14c-.56,0-1.27-.02-2.11-.05s-1.89-.05-3.14-.05-2.33.02-3.14.05-1.52.06-2.11.09Z"/>
    <path class="cls-1" d="M377.62,391.64l-.14-2.34,3-.8c0-.16,0-.51.02-1.05s.03-1.18.05-1.9.03-1.45.05-2.2.02-1.44.02-2.06v-6.8c0-1.31-.02-2.49-.05-3.54s-.07-1.91-.12-2.58-.12-1.05-.21-1.15l-2.95-.75.14-2.34h12.14c3.59,0,6.25.57,7.97,1.71s2.58,2.95,2.58,5.41c0,1.53-.47,2.9-1.41,4.1s-2.22,2.15-3.84,2.84-3.52,1.03-5.67,1.03h-3.05v-2.67h2.16c1.53,0,2.77-.48,3.73-1.45s1.43-2.25,1.43-3.84c0-1.44-.4-2.55-1.2-3.33s-1.95-1.17-3.45-1.17h-1.83c0,.09,0,.35-.02.77s-.03.98-.05,1.66-.02,1.45-.02,2.3v9.8c0,.84,0,1.75.02,2.72s.05,1.87.09,2.7.07,1.43.07,1.8l2.62.8-.14,2.34h-11.95ZM402.14,392.16c-1.75,0-3.31-.28-4.69-.84s-2.6-1.42-3.68-2.58-2.04-2.66-2.88-4.5l-2.62-5.77,5.16-1.22,5.53,7.78c.69.88,1.35,1.63,1.99,2.27s1.3,1.16,1.99,1.55,1.41.7,2.16.91l-.05,2.16c-.5.12-.98.2-1.45.21s-.95.02-1.45.02Z"/>
    <path class="cls-1" d="M406.44,391.64l-.09-2.34,2.39-.75,9.56-23.06,3.89-2.2,10.78,25.27,2.44.75-.19,2.34h-12.52l-.14-2.34,3-.75-2.53-6.05-.52-1.64-4.69-11.02,1.36.38-3.89,10.5-.42,1.41-2.25,6.42,3,.75-.09,2.34h-9.09ZM413.76,383.67v-3.19c.59.03,1.3.08,2.11.14s1.86.09,3.14.09,2.29-.03,3.12-.09,1.54-.11,2.13-.14v3.14c-.56,0-1.27-.02-2.11-.05s-1.89-.05-3.14-.05-2.33.02-3.14.05-1.52.06-2.11.09Z"/>
  </g>
</svg>