<?xml version="1.0" encoding="UTF-8"?>
<svg id="Calque_1" xmlns="http://www.w3.org/2000/svg" version="1.1" viewBox="0 0 2500 2500">
  <!-- Generator: Adobe Illustrator 29.5.1, SVG Export Plug-In . SVG Version: 2.1.0 Build 141)  -->
  <defs>
    <style>
      .st0 {
        fill: #2a2118;
        fill-rule: evenodd;
      }
    </style>
  </defs>
  <path class="st0" d="M110.3,1663.1h75.8v-298.6l116.9,260.4c13.9,31.2,32.4,42.2,69.4,42.2s55.6-11,69.4-42.2l116.9-260.4v298.6h75.2v-298c0-28.9-11.6-42.8-35.3-50.4-57.3-17.9-96.1-2.3-113.4,36.5l-114.6,256.4-111.1-256.4c-16.8-38.8-56.1-54.4-113.4-36.5-24.3,7.5-35.9,21.4-35.9,50.4v298h0ZM697.1,1420h75.2v164.4c-.6,9.2,2.9,30.1,44.6,30.7,20.8.6,162.6,0,163.8,0v-195.6h75.8c.6,0,0,266.8,0,267.9.6,66-81.6,79.8-119.2,81h-238.4v-50.9s237.8.6,238.4,0c48.6-4.6,42.8-28.9,42.8-37v-19.7h-160.3c-74.7-1.1-122.1-33.6-122.7-71.2,0-3.5,1.7-167.8,0-169.5h0ZM2322.6,1230.8c-46.3-1.2-81.6,2.9-112.3,16.2-8.7,3.5-22,3.5-23.7,14.5,4.6,4.6,5.8,12.1,9.2,18.5,7.5,11.6,19.7,27.2,30.7,35.3,11.6,9.3,23.7,18.5,36.5,26.6,23.2,13.9,48.6,21.4,70,35.3,13.3,8.1,26,18.5,38.8,27.8,5.8,4.6,10.4,11.6,17.9,14.5v-1.1c-4-5.2-5.2-12.7-8.7-18.5l-17.4-17.4c-16.8-22-38.2-41.7-60.8-57.9-17.9-12.7-58.4-30.7-66-51.5-.6-.6-1.2-.6-1.2-1.2,12.7-1.8,27.8-6.4,39.4-9.3,19.7-5.2,37.6-4,57.9-9.2,9.3-2.9,18.5-5.2,27.8-8.1v-5.2c-10.4-10.4-17.4-24.9-28.9-34.1-29.5-25.5-61.9-50.3-94.9-71.2-18.5-12.2-41.1-19.7-60.8-29.5-6.4-2.9-18-4.6-22.6-10.4-10.4-12.7-15.6-29.5-23.7-44.6-17-33-32.8-66.6-47.4-100.7-9.8-22.6-16.8-45.1-28.9-66-60.2-98.4-124.4-158-224.5-216.4-21.4-12.2-46.9-17.4-74.1-23.7-14.5-1.2-28.9-1.7-43.4-2.9-8.7-3.5-17.9-14.5-26.6-19.7-33-20.8-118.1-66.5-142.4-6.4-15.6,37.6,23.2,74.7,37,93.8,9.9,13.3,22,28.4,28.9,43.4,4.6,9.8,5.2,19.7,9.2,30.1,9.8,26,17.9,54.4,30.1,78.1,6.4,12.2,13.3,24.9,21.4,35.9,4.6,6.4,13.3,9.3,14.5,19.7-8.1,11.6-8.7,28.9-13.3,43.4-20.3,65.4-12.7,145.8,17.4,194.4,9.3,14.5,30.7,46.3,60.8,34.1,26-11,20.2-43.4,27.8-72.9,1.8-6.4.6-11,4-15.6v1.2c7.5,16.2,15.6,31.8,23.7,47.4,17.4,28.4,48.6,58.5,75.2,78.1,13.3,10.4,24.3,28.4,42.2,34.1v-1.2h-1.7c-3.5-5.2-8.7-7.5-12.7-11.6-10.4-10.4-22-23.2-30.7-34.7-23.7-32.4-45.1-68.3-64.8-105.3-9.3-17.9-17.4-37.6-24.9-55.5-2.9-6.9-2.9-17.4-9.3-21.4-8.7,13.3-20.8,24.3-27.8,39.9-10.4,24.9-12.1,55.5-15.6,86.8-2.3,1.2-1.8.6-2.9,1.7-18.5-4.6-24.9-23.7-31.8-39.9-16.8-41.1-20.3-107.1-5.2-154.5,4-12.2,22-50.3,14.5-61.9-3.5-11-14.5-17.9-20.8-26.6-8.1-10.4-15.6-24.3-21.4-36.5-13.9-32.4-20.3-68.3-35.3-100.7-7.5-15.6-19.1-31.3-28.9-44.6-11-15.6-23.2-26.6-31.8-45.1-2.9-6.4-6.9-16.8-2.9-23.7,1.7-4.6,3.5-6.4,8.1-8.1,7.5-5.8,28.9,2.3,37,5.2,20.8,9.3,38.8,17.4,56.7,29.5,8.7,5.8,17.4,16.8,27.8,19.7h11.6c18.5,4,39.3,1.2,56.7,6.4,30.7,9.2,58.4,23.7,83.3,39.9,76.4,48,138.3,116.3,181.1,197.9,6.9,13.3,9.8,25.5,15.6,39.4,12.2,28.4,27.8,57.3,39.9,84.5,11.6,27.8,23.7,55.6,40.5,78.1,9.3,12.2,44,18.5,59.6,24.9,11,4.6,28.9,9.8,39.4,16.2,20.2,11.6,39.3,26,58.4,39.4,9.2,6.4,38.2,20.9,39.3,33h.2Z"/>
  <path class="st0" d="M1732.3,727.9c-8,0-16,1-23.7,2.9v1.2h1.7c4.6,9.3,12.7,15.6,18.5,23.7,4,9.3,8.7,18.5,12.7,27.8l1.7-1.7c8.1-5.2,11.6-14.5,11.6-28.9-2.9-3.5-3.5-7.5-6.4-11.6-4.1-5.8-11-8.7-16.2-13.3h.1Z"/>
  <path class="st0" d="M1114.9,1663.1h217c25.5,0,50.3-5.2,70-14.5,32.4-15,48.6-35.3,48.6-61.9v-55.5c0-21.4-18.5-42.2-53.8-55.5-19.1-7.5-42.3-11-64.8-11h-91.4c-30.7,0-45.1-9.3-48.6-29.5-.6-2.3-.6-4.6-.6-6.9v-34.1c0-2.3,0-4,.6-6.4,3.5-15.6,11.6-20.3,38.2-22.6,2.3,0,5.2-.6,7.5-.6h215.8v-50.3h-212.4c-30.7,0-46.3,2.3-60.8,6.4-45.1,14.5-64.8,36.5-64.8,75.2v44c0,34.1,38.8,63.1,103,70,7.5,0,14.5.6,22,.6h78.1c2.9,0,5.8,0,8.1.6,24.3,2.3,34.1,6.4,41.7,15,4,4.6,5.8,8.7,5.8,13.9v44c0,5.2-3.5,12.2-11,17.9-6.4,5.8-17.4,9.3-31.8,10.4-2.9,0-5.2.6-8.1.6h-208.3v50.3h0ZM1921.5,1575.1c0,52.1,38.2,81,116.3,86.8,6.9.6,14.5,1.2,21.4,1.2h196.8v-50.4h-197.9c-44.6,0-61.3-11-61.3-37.6v-261h-75.2v261h-.1ZM1498.5,1578v-179.4c0-45.7,31.8-73.5,95.5-82.2,6.4-1.2,13.9-1.2,20.3-1.2h143.5c6.9,0,13.3,0,20.8,1.2,63.1,8.7,95.5,36.5,95.5,82.2v179.4c0,37.1-13.9,56.7-45.1,69.5l74.7,67.1h-87.9l-60.2-53.8-60.8,3.5h-80.4c-13.9,0-28.4-1.7-44.6-6.4-48-12.7-71.2-38.2-71.2-79.9h-.1ZM1580.1,1573.4c0,2.9.6,5.2,1.2,8.1,4.6,20.8,24.3,32.4,53.8,32.4h68.9l-63.1-56.7h87.9l55,49.2c9.9-5.2,16.8-13.3,19.1-23.7.6-2.9.6-5.2.6-7.5v-172.4c0-1.8,0-4-.6-6.4-4.6-19.7-24.3-30.6-53.2-30.6h-114.6c-33.6,0-55,14.5-55,37v170.7h0Z"/>
</svg>