<?xml version="1.0" encoding="UTF-8"?>
<svg id="Calque_1" xmlns="http://www.w3.org/2000/svg" version="1.1" viewBox="0 0 2500 1251">
  <!-- Generator: Adobe Illustrator 29.5.1, SVG Export Plug-In . SVG Version: 2.1.0 Build 141)  -->
  <defs>
    <style>
      .st0 {
        fill: #2a2118;
      }
    </style>
  </defs>
  <path class="st0" d="M197,263.2h369.2c108.4.9,186.9,32.2,235.6,93.7,48.7,61.5,64.8,145.6,48.2,252.1-6.4,48.7-20.7,96.4-42.7,143.3-21.4,47.3-51.3,90.2-88.2,126.8-45.9,47.8-95.1,78.1-147.4,90.9s-106.6,19.3-162.6,19.3h-165.3l-52.4,261.8H0L197,263.2ZM358.2,420.2l-82.7,413.3c5.5.9,11,1.4,16.5,1.4h19.3c88.2.9,161.7-7.8,220.4-26.2,58.8-19.3,98.3-86.3,118.5-201.2,16.5-96.4,0-152-49.6-166.7-48.7-14.7-109.8-21.6-183.2-20.7-11,.9-21.6,1.4-31.7,1.4h-28.9l1.4-1.4ZM1068.2,0h190.1l-53.7,263.2h170.8c93.7,1.8,163.5,21.1,209.4,57.9,46.8,36.7,60.6,106.6,41.3,209.4l-92.3,458.8h-192.9l88.2-438.1c9.2-45.9,6.4-78.5-8.3-97.8s-46.4-28.9-95.1-28.9l-152.9-1.4-113,566.3h-190.1L1068.2,0ZM1830.4,263.2h369.2c108.4.9,186.9,32.2,235.6,93.7s64.8,145.6,48.2,252.1c-6.4,48.7-20.7,96.4-42.7,143.3-21.4,47.3-51.3,90.2-88.2,126.8-45.9,47.8-95.1,78.1-147.4,90.9s-106.6,19.3-162.6,19.3h-165.3l-52.4,261.8h-191.5l197-987.8ZM1991.6,420.2l-82.7,413.3c5.5.9,11,1.4,16.5,1.4h19.3c88.2.9,161.7-7.8,220.4-26.2,58.8-19.3,98.3-86.3,118.5-201.2,16.5-96.4,0-152-49.6-166.7-48.7-14.7-109.8-21.6-183.2-20.7-11,.9-21.6,1.4-31.7,1.4h-28.9l1.4-1.4Z"/>
</svg>