<?xml version="1.0" encoding="UTF-8"?>
<svg id="Calque_1" data-name="Calque 1" xmlns="http://www.w3.org/2000/svg" viewBox="0 0 1683 1116.25">
  <defs>
    <style>
      .cls-1 {
        opacity: .11;
      }

      .cls-2 {
        fill: #c8d4e4;
      }

      .cls-3 {
        fill: none;
        stroke: #c8d4e4;
        stroke-linecap: round;
        stroke-miterlimit: 10;
        stroke-width: 2px;
      }

      .cls-4 {
        fill: #8a6646;
      }

      .cls-5 {
        opacity: .65;
      }

      .cls-6 {
        fill: #f6e1ce;
      }

      .cls-7 {
        fill: #383447;
      }

      .cls-8 {
        opacity: .99;
      }
    </style>
  </defs>
  <path class="cls-5" d="M1647.96,129.51V58.54c0-5.36-4.35-9.71-9.71-9.71h-70.98c-5.42,0-9.15,4.11-9.67,8.68H115.48c-.52-4.57-4.25-8.68-9.67-8.68H34.84c-5.36,0-9.71,4.35-9.71,9.71v70.98c0,4.54,2.88,7.89,6.51,9.17v887.71c-3.62,1.27-6.51,4.62-6.51,9.17v70.98c0,5.36,4.35,9.71,9.71,9.71h70.98c5.42,0,9.15-4.11,9.67-8.68h1442.12c.52,4.57,4.25,8.68,9.67,8.68h70.98c5.36,0,9.71-4.35,9.71-9.71v-70.98c0-5.42-4.11-9.15-8.68-9.67V139.18c4.57-.52,8.68-4.25,8.68-9.67Z"/>
  <rect class="cls-6" x="6.75" y="9" width="1667.25" height="1089"/>
  <rect class="cls-4" x="45" y="49.5" width="1593" height="1008"/>
  <polygon class="cls-1" points="1611.38 49.5 1611 49.5 45 49.5 45.11 70.96 45 70.96 45 819.24 46.74 819.24 61.23 71.07 1611.38 74.17 1630.64 1055.96 1638 1056.64 1638 49.5 1611.38 49.5"/>
  <g>
    <g>
      <path class="cls-2" d="M0,10.07v73.61c0,8.97,10.85,13.47,17.2,7.12L90.8,17.2C97.15,10.85,92.66,0,83.68,0H10.07C4.51,0,0,4.51,0,10.07Z"/>
      <g class="cls-8">
        <circle class="cls-7" cx="74.83" cy="15.17" r="6.17"/>
        <line class="cls-3" x1="70.94" y1="17.42" x2="78.73" y2="12.92"/>
        <line class="cls-3" x1="77.09" y1="19.05" x2="72.59" y2="11.26"/>
      </g>
      <g class="cls-8">
        <circle class="cls-7" cx="15.17" cy="74.83" r="6.17"/>
        <line class="cls-3" x1="11.27" y1="77.08" x2="19.06" y2="72.58"/>
        <line class="cls-3" x1="17.42" y1="78.72" x2="12.92" y2="70.92"/>
      </g>
    </g>
    <g>
      <path class="cls-2" d="M1683,10.07v73.61c0,8.97-10.85,13.47-17.2,7.12l-73.61-73.61C1585.85,10.85,1590.34,0,1599.32,0h73.61c5.56,0,10.07,4.51,10.07,10.07Z"/>
      <g class="cls-8">
        <circle class="cls-7" cx="1608.17" cy="15.17" r="6.17"/>
        <line class="cls-3" x1="1612.06" y1="17.42" x2="1604.27" y2="12.92"/>
        <line class="cls-3" x1="1605.91" y1="19.05" x2="1610.41" y2="11.26"/>
      </g>
      <g class="cls-8">
        <circle class="cls-7" cx="1667.83" cy="74.83" r="6.17"/>
        <line class="cls-3" x1="1671.73" y1="77.08" x2="1663.94" y2="72.58"/>
        <line class="cls-3" x1="1665.58" y1="78.72" x2="1670.08" y2="70.92"/>
      </g>
    </g>
    <g>
      <path class="cls-2" d="M1683,1096.93v-73.61c0-8.97-10.85-13.47-17.2-7.12l-73.61,73.61c-6.35,6.35-1.85,17.2,7.12,17.2h73.61c5.56,0,10.07-4.51,10.07-10.07Z"/>
      <g class="cls-8">
        <circle class="cls-7" cx="1608.17" cy="1091.83" r="6.17"/>
        <line class="cls-3" x1="1612.06" y1="1089.58" x2="1604.27" y2="1094.08"/>
        <line class="cls-3" x1="1605.91" y1="1087.95" x2="1610.41" y2="1095.74"/>
      </g>
      <g class="cls-8">
        <circle class="cls-7" cx="1667.83" cy="1032.17" r="6.17"/>
        <line class="cls-3" x1="1671.73" y1="1029.92" x2="1663.94" y2="1034.42"/>
        <line class="cls-3" x1="1665.58" y1="1028.28" x2="1670.08" y2="1036.08"/>
      </g>
    </g>
    <g>
      <path class="cls-2" d="M0,1096.93v-73.61c0-8.97,10.85-13.47,17.2-7.12l73.61,73.61c6.35,6.35,1.85,17.2-7.12,17.2H10.07C4.51,1107,0,1102.49,0,1096.93Z"/>
      <g class="cls-8">
        <circle class="cls-7" cx="74.83" cy="1091.83" r="6.17"/>
        <line class="cls-3" x1="70.94" y1="1089.58" x2="78.73" y2="1094.08"/>
        <line class="cls-3" x1="77.09" y1="1087.95" x2="72.59" y2="1095.74"/>
      </g>
      <g class="cls-8">
        <circle class="cls-7" cx="15.17" cy="1032.17" r="6.17"/>
        <line class="cls-3" x1="11.27" y1="1029.92" x2="19.06" y2="1034.42"/>
        <line class="cls-3" x1="17.42" y1="1028.28" x2="12.92" y2="1036.08"/>
      </g>
    </g>
  </g>
</svg>